<svg xmlns="http://www.w3.org/2000/svg" class="svgRect closed" viewBox="0 110 500 700">
  <defs>
    <style>
      .\34 9b60357-16be-4760-ae11-10d0f480980d {
        fill: #cebaa3;
      }

      .\30 35303a3-f6da-42e1-b59b-fb247001920c, .e77a3ce6-7f75-4ca2-a131-7e6b4fd6cb7b {
        font-size: 48px;
      }

      .\30 35303a3-f6da-42e1-b59b-fb247001920c {
        font-family: FredokaOne-Regular, Fredoka One;
      }

      .e5c8a4d9-b131-4d9a-af1c-fff76d6898f8 {
        letter-spacing: -0.06em;
      }

      .c208187a-3af1-4cac-b5aa-4035fe66d862 {
        letter-spacing: -0.01em;
      }

      .\33 90a8f8c-89d6-4d03-8474-ddee4cc5e078 {
        letter-spacing: -0.02em;
      }

      .d033967d-8041-4b94-ad6d-173c44bb9028 {
        letter-spacing: -0.03em;
      }

      .\37 0eed070-d698-41c5-9438-e91ce0158f85 {
        font-size: 14px;
        font-family: MyriadPro-Regular, Myriad Pro;
      }

      .a837e7d4-cc8c-4171-9ab6-242469cd5b52 {
        fill: #506091;
      }

      .cf666491-f269-4ede-a3ca-391c1d8dee14 {
        fill: #234c13;
      }

      .ad9e8d7f-1931-4256-a606-0c1173fdb81b, .e77a3ce6-7f75-4ca2-a131-7e6b4fd6cb7b {
        fill: #fff;
      }

      .e77a3ce6-7f75-4ca2-a131-7e6b4fd6cb7b {
        font-family: ArialRoundedMTBold, Arial Rounded MT Bold;
      }

      .\39 7f9dae0-3a5e-499d-8e5a-d794fc76dee4 {
        fill: #1d1d1b;
      }

      .\34 666ecac-2e95-406c-a085-a12db27e3679 {
        fill: #03acd5;
      }

      .cd66ba08-5fbe-4593-818b-7904994aae55 {
        fill: #59baba;
      }

      .\35 953e692-56a4-4a90-81ec-0bd206b0a5f0 {
        fill: #2b3571;
      }

      .\31 0e63e5e-6ce6-4516-967a-0bae169db8b5 {
        fill: #0792ca;
      }

      .b297cb42-f7b6-489c-8279-e304f13cf9a6 {
        fill: #9e2153;
      }

      .df7e4991-d245-4ef8-a0ba-3c6bd5d020a1 {
        fill: #5488ef;
      }

      .\35 0e87f4d-2e61-4f74-8208-0437a8eb0de7 {
        fill: #232323;
      }
    </style>
  </defs>
  <title>A funk odyssey</title>
  <g id="cd9ce9ca-0aaf-40d8-8b47-ed74d1757900" data-name="Lag 7">
    <rect class="49b60357-16be-4760-ae11-10d0f480980d" width="500" height="700"/>
  </g>
  <g id="a382730a-93e3-4095-877c-ea060c7b3a0e" data-name="AlbumBackground">
    <text class="035303a3-f6da-42e1-b59b-fb247001920c" transform="translate(39 294.77)">A <tspan class="e5c8a4d9-b131-4d9a-af1c-fff76d6898f8" x="48.86" y="0">F</tspan><tspan x="76.56" y="0">unk O</tspan><tspan class="c208187a-3af1-4cac-b5aa-4035fe66d862" x="209.81" y="0">d</tspan><tspan class="390a8f8c-89d6-4d03-8474-ddee4cc5e078" x="238.03" y="0">y</tspan><tspan x="266.06" y="0">ss</tspan><tspan class="d033967d-8041-4b94-ad6d-173c44bb9028" x="313" y="0">e</tspan><tspan x="339.07" y="0">y</tspan></text>
    <text class="70eed070-d698-41c5-9438-e91ce0158f85" transform="translate(256 400.27)">1</text>
    <text class="70eed070-d698-41c5-9438-e91ce0158f85" transform="translate(256 420.27)">2</text>
    <text class="70eed070-d698-41c5-9438-e91ce0158f85" transform="translate(256 440.27)">3</text>
    <text class="70eed070-d698-41c5-9438-e91ce0158f85" transform="translate(256 460.27)">4</text>
    <text class="70eed070-d698-41c5-9438-e91ce0158f85" transform="translate(256 480.27)">5</text>
    <text class="70eed070-d698-41c5-9438-e91ce0158f85" transform="translate(256 500.27)">6</text>
    <text class="70eed070-d698-41c5-9438-e91ce0158f85" transform="translate(256 520.27)">7</text>
    <text class="70eed070-d698-41c5-9438-e91ce0158f85" transform="translate(256 540.27)">8</text>
    <text class="70eed070-d698-41c5-9438-e91ce0158f85" transform="translate(256 560.27)">9</text>
    <text class="70eed070-d698-41c5-9438-e91ce0158f85" transform="translate(256 580.27)">10</text>
    <text class="70eed070-d698-41c5-9438-e91ce0158f85" transform="translate(256 600.27)">11</text>
  </g>
  <g id="e3af39f8-7c6d-47f8-b27f-81193c154432" data-name="Categori">
    <rect class="a837e7d4-cc8c-4171-9ab6-242469cd5b52" width="500" height="128"/>
    <rect class="cf666491-f269-4ede-a3ca-391c1d8dee14" x="26" y="43" width="199" height="57" rx="12" ry="12"/>
    <text class="e77a3ce6-7f75-4ca2-a131-7e6b4fd6cb7b" transform="translate(68 87)">2001</text>
  </g>
  <g id="b4d544eb-9e38-410c-92a2-404df9a0734f" data-name="Lag 9">
    <rect class="97f9dae0-3a5e-499d-8e5a-d794fc76dee4" x="31" y="390" width="206" height="206"/>
    <g id="3a650d4a-bf37-4c34-9cac-fc1485ee9c5b" data-name="Lag 13">
      <path class="4666ecac-2e95-406c-a085-a12db27e3679" d="M148,490l40,106h5L149,488Z"/>
      <path class="cd66ba08-5fbe-4593-818b-7904994aae55" d="M149,484q26.5,56,53,112h6L150,480Z"/>
      <path class="5953e692-56a4-4a90-81ec-0bd206b0a5f0" d="M150,475l73,121h8L150,472Z"/>
      <path class="4666ecac-2e95-406c-a085-a12db27e3679" d="M150,468l87,113V570L150,465Z"/>
      <path class="10e63e5e-6ce6-4516-967a-0bae169db8b5" d="M152,463l85,83v-7l-85-78Z"/>
      <path class="cd66ba08-5fbe-4593-818b-7904994aae55" d="M153,457l84,58v-6l-85-54Z"/>
      <path class="5953e692-56a4-4a90-81ec-0bd206b0a5f0" d="M150,450l87,41v-6l-88-37Z"/>
      <path class="4666ecac-2e95-406c-a085-a12db27e3679" d="M145,445l92,24v-6l-91-19Z"/>
      <path class="5953e692-56a4-4a90-81ec-0bd206b0a5f0" d="M145,442l92,6v-6l-90-1Z"/>
      <path class="b297cb42-f7b6-489c-8279-e304f13cf9a6" d="M148,440l89-7v-5l-89,11Z"/>
      <path class="5953e692-56a4-4a90-81ec-0bd206b0a5f0" d="M149,438l88-16v-5l-89,20Z"/>
      <path class="10e63e5e-6ce6-4516-967a-0bae169db8b5" d="M147,436l90-26v-5l-90,30Z"/>
      <path class="4666ecac-2e95-406c-a085-a12db27e3679" d="M145,433l73-43h-7l-67,43Z"/>
      <path class="10e63e5e-6ce6-4516-967a-0bae169db8b5" d="M142,431l53-41h-4l-50,41Z"/>
      <path class="cd66ba08-5fbe-4593-818b-7904994aae55" d="M140,427l34-37h-3l-32,37Z"/>
      <path class="5953e692-56a4-4a90-81ec-0bd206b0a5f0" d="M135,424l10-34h-3l-9,34Z"/>
      <path class="b297cb42-f7b6-489c-8279-e304f13cf9a6" d="M128,422V390h-3q.5,16,1,32Z"/>
      <path class="cd66ba08-5fbe-4593-818b-7904994aae55" d="M108.87,490q-17.49,53-35,106H69.5L108,488Z"/>
      <path class="4666ecac-2e95-406c-a085-a12db27e3679" d="M108,484,61.62,596H56.37q25.38-58,50.75-116C107.42,481.33,107.71,482.67,108,484Z"/>
      <path class="cd66ba08-5fbe-4593-818b-7904994aae55" d="M107.12,475,43.25,596h-7l70.87-124Z"/>
      <path class="5953e692-56a4-4a90-81ec-0bd206b0a5f0" d="M107.12,468,31,581V570l76.12-105Z"/>
      <path class="4666ecac-2e95-406c-a085-a12db27e3679" d="M120,452.26,31,546v-7.91L120,450Z"/>
      <path class="10e63e5e-6ce6-4516-967a-0bae169db8b5" d="M113,450.23,31,515v-6.7L114,448Z"/>
      <path class="cd66ba08-5fbe-4593-818b-7904994aae55" d="M111.08,448.09,31,491v-6.28L112,446Z"/>
      <path class="4666ecac-2e95-406c-a085-a12db27e3679" d="M111.5,445,31,469v-6l79.62-19Z"/>
      <path class="10e63e5e-6ce6-4516-967a-0bae169db8b5" d="M114,442l-83,6v-6l81.2-1Z"/>
      <path class="5953e692-56a4-4a90-81ec-0bd206b0a5f0" d="M114,441l-83-7.58V428l83,11.92Z"/>
      <path class="4666ecac-2e95-406c-a085-a12db27e3679" d="M114.06,440,31,422.48V417l84,21.9Z"/>
      <path class="cd66ba08-5fbe-4593-818b-7904994aae55" d="M115,438,31,410.32V405l84,31.94Z"/>
      <path class="10e63e5e-6ce6-4516-967a-0bae169db8b5" d="M114.09,435,47.62,390H54l61,45Z"/>
      <path class="10e63e5e-6ce6-4516-967a-0bae169db8b5" d="M114.12,431,67.75,390h3.5L115,431Z"/>
      <path class="10e63e5e-6ce6-4516-967a-0bae169db8b5" d="M115.87,427,86.12,390h2.63l28,37Z"/>
      <path class="b297cb42-f7b6-489c-8279-e304f13cf9a6" d="M120.25,424q-4.38-17-8.75-34h2.62q3.94,17,7.88,34Z"/>
      <path class="10e63e5e-6ce6-4516-967a-0bae169db8b5" d="M126.37,422V390H129q-.44,16-.88,32Z"/>
    </g>
    <g id="cd3edc3f-9ed6-42bb-98d8-5a4a911b814a" data-name="Lag 14">
      <path class="df7e4991-d245-4ef8-a0ba-3c6bd5d020a1" d="M101,539l8-18c.67-2.33,1.33-4.67,2-7v-7l2-3,1-7-1-1-9,5h-3a8.51,8.51,0,0,1-9,8,9.69,9.69,0,0,1-5,4c-5,1.58-9.67-2.49-13,0-1,.74-.83,1.29-2,2-2.18,1.31-5,.73-7,0a25.92,25.92,0,0,1-5,0,25.43,25.43,0,0,1-5-1,9.75,9.75,0,0,1-6-2,9.64,9.64,0,0,1-3-4l-1-2H44a6.52,6.52,0,0,1-3,0c-.6-.15-2.53-.61-3-2-.07-.21-.23-.7,0-1,.35-.46,1.3-.11,3,0a16.4,16.4,0,0,0,2,0h3l-9-3a1,1,0,0,1,0-2,2,2,0,0,1-1-2,2.17,2.17,0,0,1,3-1,1.46,1.46,0,0,1,0-1c.32-.8,1.54-1.29,3-1l16,5c.91-2.51,2.1-4.15,3-4,.58.09,1,.91,1,1,.59,1.31-.49,2.35,0,3s1.58.15,4,0a24.62,24.62,0,0,1,3,0l22-10a6.38,6.38,0,0,1,1-3c1.06-1.59,2.4-1.86,4-3,1.33-.94,2.24-2.31,4-5,2.57-3.93,2.43-4.64,4-7,3.25-4.89,5.88-4.88,11-11a49.08,49.08,0,0,0,3-4v-4l2-2a3.54,3.54,0,0,0-1-2,3.61,3.61,0,0,0-2-1,3.39,3.39,0,0,0-1,1,4.42,4.42,0,0,0,0,4h-4a6.47,6.47,0,0,1-2-3c-1.11-3.67,1.84-6.83,2-7l1-2q.5-7,1-14c.33-1.67.67-3.33,1-5l2,1v-2h1l1-4,11-3,1-5,3,4v1l-9,3v2l1-1v1h2l3-2,1,1,16-8c-.33,2.33-.67,4.67-1,7l-11,4-2,2,1,1,19-4,6,1-3,4-19,1,2,1,29,3-7,6-20-4,1,2,4,3,7,5-2,1-3-3v1a2.17,2.17,0,0,1,0,2,2,2,0,0,1-2,1h-2a1.69,1.69,0,0,1,1,1,1.62,1.62,0,0,1,0,1v1a1.62,1.62,0,0,1,0,1,1.69,1.69,0,0,1-1,1,8,8,0,0,1,4,2,8.06,8.06,0,0,1,2,3,8.65,8.65,0,0,1,2,5,8.77,8.77,0,0,1-2,6q.1,3.35,0,7a114.25,114.25,0,0,1-1,12q-1,5-2,10v12a74.14,74.14,0,0,1,24,7,8.36,8.36,0,0,1,6,6,8.26,8.26,0,0,1-1,6l-15,25a9.25,9.25,0,0,1-4-2,9.44,9.44,0,0,1-3-5l-9-3a4.53,4.53,0,0,1-3-2c-1-2,0-5.13,3-7h3l2-3-16-1-5,1c-2.31,2.74-4.66,5.74-7,9a147.51,147.51,0,0,0-10,16l-5,10a9,9,0,0,1-6,5,8.71,8.71,0,0,1-9-4l-2-5L79,546l2-13-9,3c-.73.09-2.81.25-4-1-1.64-1.71-1.29-5.75,2-9l12-11a6.5,6.5,0,0,1,6,0,6.14,6.14,0,0,1,3,6l-2,3,11,15Z"/>
    </g>
    <g>
      <path class="ad9e8d7f-1931-4256-a606-0c1173fdb81b" d="M108.66,570.73v.17c0,1.87.69,2.72-2.14,2.38a1.06,1.06,0,0,1-1.09-1,.75.75,0,0,1,0-.15c0-.17-.85-.68-1,.17s.85,1.87,2.72,1.87c.68,0,2.72.18,2.72-1.7v-1.7a.63.63,0,0,0-.69-.55.63.63,0,0,0-.5.38Z"/>
      <path class="ad9e8d7f-1931-4256-a606-0c1173fdb81b" d="M113.26,570.22s3.06-.17,3.23,1.7v1s-.17.34.68.34c.18,0,.18.68-.34.68h-.51s-.34,0-.34-.17-.17-.17-.34,0c0,0-.68.51-3.06.34-2.73,0-3.06-3.23,2.38-2.21,0,0,.34.17.34-.17,0-1.19-3.41-1-3.57-.17-.51.68-1.19-.17-.68-.68a4.1,4.1,0,0,1,2-.68Z"/>
      <path class="50e87f4d-2e61-4f74-8208-0437a8eb0de7" d="M113.43,572.26c.51,0,3.74.85,0,1.19-1.7,0-2.89-.85-.34-1.19Z"/>
      <path class="ad9e8d7f-1931-4256-a606-0c1173fdb81b" d="M117.69,571.07v2.55a.6.6,0,0,0,1.19,0v-2a2.55,2.55,0,0,1,3.06,0v2a.61.61,0,0,0,.17.34.65.65,0,0,0,.85,0,.61.61,0,0,0,.17-.34v-2a2.54,2.54,0,0,1,3.07,0v2a.6.6,0,0,0,1.19,0v-2.38a2.48,2.48,0,0,0-.69-.68,2.9,2.9,0,0,0-2-.34,4,4,0,0,0-1.51.51.47.47,0,0,1-.34.17.51.51,0,0,1-.35-.17,2.76,2.76,0,0,0-1-.51,3.21,3.21,0,0,0-2,.17,3.93,3.93,0,0,0-.68.34.6.6,0,0,0-.51-.51h-.71a.47.47,0,0,0-.34.51.45.45,0,0,0,.34.34Z"/>
      <path class="ad9e8d7f-1931-4256-a606-0c1173fdb81b" d="M128.07,570.9v2.55a.68.68,0,1,0,1.36.1V570.9a.68.68,0,0,0-.73-.63A.67.67,0,0,0,128.07,570.9Z"/>
      <path class="ad9e8d7f-1931-4256-a606-0c1173fdb81b" d="M128.07,569a.68.68,0,0,1,1.36,0v.17a.68.68,0,0,1-1.36.1V569Z"/>
      <path class="ad9e8d7f-1931-4256-a606-0c1173fdb81b" d="M163.13,570.9v2.55a.68.68,0,1,0,1.36.1V570.9a.68.68,0,0,0-.73-.63A.67.67,0,0,0,163.13,570.9Z"/>
      <path class="ad9e8d7f-1931-4256-a606-0c1173fdb81b" d="M163.13,569a.68.68,0,0,1,1.36,0v.17a.68.68,0,0,1-1.36.1V569Z"/>
      <path class="ad9e8d7f-1931-4256-a606-0c1173fdb81b" d="M130.28,571.24v2.38a.62.62,0,0,0,.51.51.63.63,0,0,0,.68-.51v-1.87a5.32,5.32,0,0,1,3.91-1c-.14.11-1.17.92-1,1.87a1.32,1.32,0,0,0,.33.68c1.24,1.43,5.25,1.3,6.13-.34a1.23,1.23,0,0,0,.17-.68c-.08-1.19-2.16-1.89-2.55-2-3.24-1.17-7.12.67-7.15.68a.89.89,0,0,0-.85-.68.57.57,0,0,0-.67.44.17.17,0,0,0,0,.07A.56.56,0,0,0,130.28,571.24Z"/>
      <path class="50e87f4d-2e61-4f74-8208-0437a8eb0de7" d="M137.43,571.24h.51c1.22,0,2,.6,2,1s-.82,1-2,1h-.51c-1.23,0-2.05-.6-2.05-1S136.2,571.28,137.43,571.24Z"/>
      <path class="ad9e8d7f-1931-4256-a606-0c1173fdb81b" d="M147.13,570.9a4.86,4.86,0,0,0-3.92-.34c-.28.12-1.63.69-1.7,1.7a1.88,1.88,0,0,0,.68,1.36c1.57,1.47,4.65.29,4.93.17v1.7a.71.71,0,0,0,1.36,0v-4.08a.43.43,0,0,0,.51-.17.4.4,0,0,0,0-.34.83.83,0,0,0-1.09-.43.77.77,0,0,0-.42.43Z"/>
      <path class="50e87f4d-2e61-4f74-8208-0437a8eb0de7" d="M144.58,573.45h.33c1.3,0,2.2-.57,2.22-1s-.86-1.1-2.22-1.19h-.33c-1.2,0-2,.56-2.05,1S143.32,573.42,144.58,573.45Z"/>
      <path class="ad9e8d7f-1931-4256-a606-0c1173fdb81b" d="M149.33,570.9v2.21a3.24,3.24,0,0,0,1,1,3.55,3.55,0,0,0,2,.51,3.71,3.71,0,0,0,2.72-.85,2.82,2.82,0,0,0,.51-.68V570.9a.69.69,0,0,0-1.19,0v2a3.14,3.14,0,0,1-3.91,0v-2a.71.71,0,0,0-.69-.34A.7.7,0,0,0,149.33,570.9Z"/>
      <path class="ad9e8d7f-1931-4256-a606-0c1173fdb81b" d="M159,570.39a3.73,3.73,0,0,1,2.38.68,3.08,3.08,0,0,1,.51.51v1.51a.66.66,0,0,1,.83.41.65.65,0,0,1,0,.28,1,1,0,0,1-.34.34,1.12,1.12,0,0,1-1.19-.17,5.36,5.36,0,0,1-3.92.17c-.29-.12-1.19-.5-1.19-1s.89-.89,1.19-1a4.88,4.88,0,0,1,3.41,0,1.29,1.29,0,0,0-.34-.69c-.31-.29-.7-.31-1.36-.34a2.06,2.06,0,0,0-1.2.17,1.77,1.77,0,0,0-.51.51.54.54,0,0,1-.51.35.56.56,0,0,1-.51-.52.65.65,0,0,1,0-.34C156.57,570.37,158.8,570.39,159,570.39Z"/>
      <path class="50e87f4d-2e61-4f74-8208-0437a8eb0de7" d="M158.7,572.6h.51c.89.11,1.52.32,1.52.51s-.64.4-1.52.51h-.51c-.88-.11-1.51-.31-1.51-.51S157.82,572.71,158.7,572.6Z"/>
    </g>
  </g>
</svg>
