<svg xmlns="http://www.w3.org/2000/svg" viewBox="0 0 500 700">
  <defs>
    <style>
      .acf25d00-026a-4d55-8c74-b11a3e60288a {
        fill: #cebaa3;
      }

      .c52a7e61-bc68-46c4-98d5-76d3a9a0f5d4, .eaef4540-f22a-440b-bebe-76e1e4929f36 {
        font-size: 48px;
      }

      .eaef4540-f22a-440b-bebe-76e1e4929f36 {
        font-family: FredokaOne-Regular, Fredoka One;
        letter-spacing: -0.04em;
      }

      .af5280b4-75c0-432e-8fe4-7d52c5c24c06 {
        letter-spacing: 0em;
      }

      .\34 4b53aca-0d02-4321-9fb1-d43d5d77fcdf {
        font-size: 14px;
        font-family: MyriadPro-Regular, Myriad Pro;
      }

      .d04aa4a7-40d7-4f1b-a1f7-57a4f918d2cf {
        fill: aqua;
        stroke: #000;
        stroke-miterlimit: 10;
      }

      .\33 4d15460-75c5-4dcf-b880-c33ff682d88a {
        fill: #d01a26;
      }

      .\32 e514d93-f232-4231-afcb-76c09ee7b5bb {
        fill: #234c13;
      }

      .c52a7e61-bc68-46c4-98d5-76d3a9a0f5d4, .f1f502c7-b3ac-409a-add9-d26102467ef3 {
        fill: #fff;
      }

      .c52a7e61-bc68-46c4-98d5-76d3a9a0f5d4 {
        font-family: ArialRoundedMTBold, Arial Rounded MT Bold;
      }

      .da30b077-1d88-4a53-a70f-c28d1a7e6f85 {
        fill: #07090a;
      }

      .c77e9ceb-806d-468e-9e4c-3a86cd9fabf5 {
        fill: #71b3d8;
      }

      .fe28d842-aa75-4f06-b429-bba4087c4451 {
        fill: #212121;
      }
    </style>
  </defs>
  <title>Automaton</title>
  <g id="8773e074-5198-4576-b4b9-2bb62582f61f" data-name="Lag 7">
    <rect class="acf25d00-026a-4d55-8c74-b11a3e60288a" width="500" height="700"/>
  </g>
  <g id="43deb369-2441-4595-b17b-59ea7bdeb9ce" data-name="AlbumBackground">
    <text class="eaef4540-f22a-440b-bebe-76e1e4929f36" transform="translate(39 294.77)">A<tspan class="af5280b4-75c0-432e-8fe4-7d52c5c24c06" x="34.8" y="0">utomaton</tspan></text>
    <text class="44b53aca-0d02-4321-9fb1-d43d5d77fcdf" transform="translate(256 400.27)">1</text>
    <text class="44b53aca-0d02-4321-9fb1-d43d5d77fcdf" transform="translate(256 420.27)">2</text>
    <text class="44b53aca-0d02-4321-9fb1-d43d5d77fcdf" transform="translate(256 440.27)">3</text>
    <text class="44b53aca-0d02-4321-9fb1-d43d5d77fcdf" transform="translate(256 460.27)">4</text>
    <text class="44b53aca-0d02-4321-9fb1-d43d5d77fcdf" transform="translate(256 480.27)">5</text>
    <text class="44b53aca-0d02-4321-9fb1-d43d5d77fcdf" transform="translate(256 500.27)">6</text>
    <text class="44b53aca-0d02-4321-9fb1-d43d5d77fcdf" transform="translate(256 520.27)">7</text>
    <text class="44b53aca-0d02-4321-9fb1-d43d5d77fcdf" transform="translate(256 540.27)">8</text>
    <text class="44b53aca-0d02-4321-9fb1-d43d5d77fcdf" transform="translate(256 560.27)">9</text>
    <text class="44b53aca-0d02-4321-9fb1-d43d5d77fcdf" transform="translate(256 580.27)">10</text>
    <text class="44b53aca-0d02-4321-9fb1-d43d5d77fcdf" transform="translate(256 600.27)">11</text>
    <path class="d04aa4a7-40d7-4f1b-a1f7-57a4f918d2cf" d="M90,458a53.92,53.92,0,0,1,7,8c.73,1,1.39,2,2,3,.15.82.29,1.89,0,2s-.84-.76-1-1c-.83-1.24-3.07-3.91-9-10l-1-1Z"/>
  </g>
  <g id="1dfd21e7-c27e-4b94-b437-cb35d69422ea" data-name="Categori">
    <rect class="34d15460-75c5-4dcf-b880-c33ff682d88a" width="500" height="128"/>
    <rect class="2e514d93-f232-4231-afcb-76c09ee7b5bb" x="26" y="43" width="199" height="57" rx="12" ry="12"/>
    <text class="c52a7e61-bc68-46c4-98d5-76d3a9a0f5d4" transform="translate(68 87)">2017</text>
  </g>
  <g id="8af82ad9-fd3b-475f-93fe-0a323335cbc0" data-name="Lag 9">
    <rect class="da30b077-1d88-4a53-a70f-c28d1a7e6f85" x="31" y="390" width="206" height="206"/>
    <g id="6723fb18-75f6-4938-b8b1-e1c1f8933f02" data-name="Lag 29">
      <path class="c77e9ceb-806d-468e-9e4c-3a86cd9fabf5" d="M108,486c.33,0,1-.33,1,0h-4l-1,2-19-1-14,3-1-3,19-8-12-3,1-4h8l-6-1,2-2,22-2L92,455l3-3,12,7-3-8h4l7,7-3-7h4l7,8,2-5,3,1,4,10,3-1h1l5-3,3,3-3,8h-3l1,1,9,3,1,3-6,3v4h-1l-1,3,11,15-2,4-10-8-1-4a6.74,6.74,0,0,0,2-5,6.27,6.27,0,0,0-1-3l-5-5v-2l-6-2v2l-12,1h-5Z"/>
      <path class="c77e9ceb-806d-468e-9e4c-3a86cd9fabf5" d="M42.08,434.41l.48,1C42.4,435.06,42.41,434.28,42.08,434.41Z"/>
      <path class="c77e9ceb-806d-468e-9e4c-3a86cd9fabf5" d="M81.6,431.57q-6.27-4.1-12.52-8.21l9.15-.95-1.92-3.86L66.2,415.17l8.19-.47-1.92-3.86-11.08-2.91,3.86-4.33-2.41-2.41-11.57.95-.48-3.38-.48-1q.25-3.14.49-6.27l-4.33-1.45q-3.13,3.38-6.28,6.74l1.45,2.9-1.45-.49L33,392l-3.37.48q0,3.61,0,7.23L26,401.49v.67l.21.43-.21.21v2.93l6.47,2.17,1.93-1,4.81,4.82-1.93,1,4.81,12.06,2.4,4.82c-.64,1.92-1.29,3.85-1.93,5.78L44,438.27l-1.45,1.93L52.65,458,56.49,473l3.37-.47q-.7-11.08-1.42-22.17,4.34,5.06,8.66,10.13l3.38-2.89q-1.92-3.85-3.85-7.71,1.94,2.64,3.85,5.3l1-2.89Q67.13,441.2,62.8,430.1l17.35,5.81C80.63,434.46,81.11,433,81.6,431.57Z"/>
      <path class="c77e9ceb-806d-468e-9e4c-3a86cd9fabf5" d="M25.73,401.62l.27.54v-.67Z"/>
      <path class="c77e9ceb-806d-468e-9e4c-3a86cd9fabf5" d="M175.72,492c.24-.17.52-.74.71-.52l-2.83,2.08.33,1.94-14,9.18-8.38,9.42-2.27-1.61,9.32-15.57L148.52,501l-1.37-3.36,5.68-4.16-4.78,2.41.38-2.46L163,480.6l-14.76-2.27.56-3.69L161,473.36l-6.29-4.11,2.84-2.09,8.61,1.33-5.77-3.41,2.83-2.08,9.14,2-1.19-4.58,2.65-.86,8,5,1.61-2.27.71-.52,2-4.74,3.69.57c.68,2.41,1.36,4.83,2,7.24l-2.12,1.56,1.23.19,7.94-2.56,2.27,1.61-2.69,5.25,2.08,2.84-.71.52.85,2.65,15.62,4.92.66,3.88-11.26-.47L202.93,483a6,6,0,0,0-1.19-4.59,5.55,5.55,0,0,0-2.27-1.61l-6.15-.94-1-1.42-5.3,1.7,1,1.42-8,7-3.55,2.6C176.23,488.72,176,490.36,175.72,492Z"/>
      <path class="c77e9ceb-806d-468e-9e4c-3a86cd9fabf5" d="M206.79,451.17c0-.19-.2-.58,0-.58l-.16,2.33,1.42.68q-.75,5.49-1.51,11l1.62,8.29-2.23.43-5.06-11.45-2.68,6.82-2.87-.79.32-4.65c-.32,1.15-.65,2.29-1,3.44l-1.38-1.26q-.29-6.45-.56-12.89l-9.25,6.36-2.06-1.9,5.59-6.62-6,1.34.16-2.33,5.39-3.71-5.23,1.39.16-2.33,6.12-3.65-3.56-1.42L185,438l7.46-1.81-.61-1.79,0-.58-2-3.06,2.31-1.59,5.71,2.15L197.8,433l.77-.53,2.55-5.08,2.23-.42,2,3.64,2.92.2-.05.58,2.15.74,11.39-5.63,2.84,1.37-6.24,5.4-3,.38a5.54,5.54,0,0,0-3.57-1.42,5.39,5.39,0,0,0-2.23.43l-3.85,2.65-1.46-.1c-.57,1.12-1.13,2.25-1.7,3.38l1.46.1.24,7-.2,2.9Z"/>
      <path class="c77e9ceb-806d-468e-9e4c-3a86cd9fabf5" d="M198.51,406.93l-.55-.49C197.77,406.68,198.32,406.76,198.51,406.93Z"/>
      <path class="c77e9ceb-806d-468e-9e4c-3a86cd9fabf5" d="M221.36,422.29l-9.56-4.78-9.86-10-1.78.9-1.65-1.47-4.67.8-2.75-2.45-7.24-5.19-1.23,1.39-2.07-4.33,1.23-1.38c.1-1.92.21-3.85.31-5.77h-1.93l-.4.26-.29-.26H179l-2.26,2.54-5.15-.86-1.3,2.56,3.12,6.49-.06,1.18-1.66-1.47-6.57,4.06c-.07,1.19-.13,2.37-.19,3.55l4.6.38.55.49,2.27.77-4,8.88c.35.72.69,1.45,1,2.17l4.18-2.48c-.36,3-.71,6-1.06,9l2.2,2c.89-2.1,1.77-4.21,2.65-6.31-.15,2.76-.29,5.52-.44,8.27l2.2,2,3.27-7,2.31,10.72,3.5-.6L189,422l13.36,9.4,2.34-.4L202,427.4l4.41,3.92,3-2.28-4.77-8,15.39,3.78Z"/>
    </g>
    <g id="745a5a69-4129-4662-8124-f346f7df491c" data-name="Lag 30">
      <path class="34d15460-75c5-4dcf-b880-c33ff682d88a" d="M79,561h4l3-4h3c-.33,1.33-.67,2.67-1,4h3c.33-2.33.67-4.67,1-7H85Z"/>
      <path class="34d15460-75c5-4dcf-b880-c33ff682d88a" d="M86,553h6v-3H88Z"/>
      <path class="34d15460-75c5-4dcf-b880-c33ff682d88a" d="M93,553h3v-2H94Z"/>
      <path class="34d15460-75c5-4dcf-b880-c33ff682d88a" d="M93,554h3c-.33,1.33-.67,2.67-1,4h5v-4h3c-.33,2.33-.67,4.67-1,7H95l-3-3C92.33,556.67,92.67,555.33,93,554Z"/>
      <path class="34d15460-75c5-4dcf-b880-c33ff682d88a" d="M101,553h2v-2h-2l-1,2Z"/>
      <ellipse class="34d15460-75c5-4dcf-b880-c33ff682d88a" cx="108.5" cy="558" rx="4.31" ry="1.39" transform="translate(-459.94 562.2) rotate(-79.42)"/>
      <path class="34d15460-75c5-4dcf-b880-c33ff682d88a" d="M104,553h10v-2h-9Z"/>
      <path class="34d15460-75c5-4dcf-b880-c33ff682d88a" d="M115,553l1-2h7l2,2Z"/>
      <path class="34d15460-75c5-4dcf-b880-c33ff682d88a" d="M115,555h3l-1,3h5v-3h3l-1,6h-7l-3-3Z"/>
      <ellipse class="34d15460-75c5-4dcf-b880-c33ff682d88a" cx="126.5" cy="558" rx="4.31" ry="1.39" transform="translate(-445.24 579.89) rotate(-79.42)"/>
      <path class="34d15460-75c5-4dcf-b880-c33ff682d88a" d="M126,553h12l-2-2h-9Z"/>
      <ellipse class="34d15460-75c5-4dcf-b880-c33ff682d88a" cx="131.5" cy="558" rx="4.31" ry="1.39" transform="translate(-441.16 584.8) rotate(-79.42)"/>
      <ellipse class="34d15460-75c5-4dcf-b880-c33ff682d88a" cx="136.5" cy="558" rx="4.31" ry="1.39" transform="translate(-437.08 589.72) rotate(-79.42)"/>
      <path class="34d15460-75c5-4dcf-b880-c33ff682d88a" d="M138,561l5-6h7c-.33,2-.67,4-1,6h-2v-4h-3l-3,4Z"/>
      <path class="34d15460-75c5-4dcf-b880-c33ff682d88a" d="M145,553h5l1-2h-4Z"/>
      <path class="34d15460-75c5-4dcf-b880-c33ff682d88a" d="M152,553h9l1-2H152Z"/>
      <ellipse class="34d15460-75c5-4dcf-b880-c33ff682d88a" cx="155.5" cy="558" rx="4.31" ry="1.39" transform="translate(-421.57 608.4) rotate(-79.42)"/>
      <path class="34d15460-75c5-4dcf-b880-c33ff682d88a" d="M162,555h3l-1,3h5l1-3h2c-.33,2-.67,4-1,6h-7l-2-2Z"/>
      <path class="34d15460-75c5-4dcf-b880-c33ff682d88a" d="M163,553h9l-2-2h-7Z"/>
      <path class="34d15460-75c5-4dcf-b880-c33ff682d88a" d="M174,553h5l-3-2h-2Z"/>
      <ellipse class="34d15460-75c5-4dcf-b880-c33ff682d88a" cx="174" cy="558" rx="4.32" ry="2.08" transform="translate(-408.34 608.25) rotate(-77.61)"/>
      <path class="34d15460-75c5-4dcf-b880-c33ff682d88a" d="M177,555l3,2-1,4h3c.33-2,.67-4,1-6Z"/>
      <path class="34d15460-75c5-4dcf-b880-c33ff682d88a" d="M181,553h2l1-2h-3Z"/>
    </g>
    <g>
      <path class="f1f502c7-b3ac-409a-add9-d26102467ef3" d="M132.77,563.78v.15c0,1.6.6,2.33-1.9,2a.93.93,0,0,1-1-.88.53.53,0,0,1,0-.13c0-.15-.75-.58-.9.14s.75,1.6,2.4,1.6c.6,0,2.4.16,2.4-1.45v-1.46a.54.54,0,0,0-.61-.46.53.53,0,0,0-.44.32Z"/>
      <path class="f1f502c7-b3ac-409a-add9-d26102467ef3" d="M136.82,563.35s2.7-.15,2.85,1.45v.87s-.15.29.6.29c.15,0,.15.59-.3.59h-.45s-.3,0-.3-.15-.15-.14-.3,0c0,0-.6.44-2.7.29-2.4,0-2.7-2.76,2.1-1.89,0,0,.3.15.3-.14,0-1-3-.88-3.15-.15-.45.58-1.05-.14-.6-.58a3.73,3.73,0,0,1,1.8-.58Z"/>
      <path class="fe28d842-aa75-4f06-b429-bba4087c4451" d="M137,565.09c.45,0,3.3.73,0,1-1.5,0-2.55-.72-.3-1Z"/>
      <path class="f1f502c7-b3ac-409a-add9-d26102467ef3" d="M140.72,564.07v2.19a.56.56,0,0,0,.6.43.53.53,0,0,0,.45-.43v-1.75a2.33,2.33,0,0,1,2.71,0v1.75a.47.47,0,0,0,.14.29.6.6,0,0,0,.76,0,.54.54,0,0,0,.15-.29v-1.75a2.41,2.41,0,0,1,1.5-.44,2.37,2.37,0,0,1,1.2.44v1.75a.55.55,0,0,0,.6.43.53.53,0,0,0,.45-.43v-2a2.07,2.07,0,0,0-.6-.58,2.63,2.63,0,0,0-1.8-.29,3.7,3.7,0,0,0-1.34.43.37.37,0,0,1-.6,0,2.5,2.5,0,0,0-.9-.43,3,3,0,0,0-1.8.14,4.15,4.15,0,0,0-.6.29.54.54,0,0,0-.15-.29.49.49,0,0,0-.3-.14h-.63a.4.4,0,0,0-.3.43.39.39,0,0,0,.3.29Z"/>
      <path class="f1f502c7-b3ac-409a-add9-d26102467ef3" d="M149.88,563.93v2.18a.6.6,0,0,0,1.2.09v-2.27a.6.6,0,0,0-1.2,0Z"/>
      <path class="f1f502c7-b3ac-409a-add9-d26102467ef3" d="M149.88,562.33a.6.6,0,0,1,.64-.54.59.59,0,0,1,.56.54v.14a.59.59,0,0,1-.56.63.6.6,0,0,1-.64-.54v-.23Z"/>
      <path class="f1f502c7-b3ac-409a-add9-d26102467ef3" d="M180.8,563.93v2.18a.59.59,0,0,0,.55.63.61.61,0,0,0,.65-.54v-2.27a.61.61,0,0,0-.65-.54A.59.59,0,0,0,180.8,563.93Z"/>
      <path class="f1f502c7-b3ac-409a-add9-d26102467ef3" d="M180.8,562.33a.6.6,0,0,1,1.2,0v.14a.6.6,0,0,1-1.2.09v-.23Z"/>
      <path class="f1f502c7-b3ac-409a-add9-d26102467ef3" d="M151.83,564.22v2a.53.53,0,0,0,.45.43.55.55,0,0,0,.6-.43v-1.6a4.86,4.86,0,0,1,3.45-.88c-.12.1-1,.79-.9,1.61a1.26,1.26,0,0,0,.3.57c1.09,1.23,4.63,1.12,5.4-.29a.91.91,0,0,0,.15-.58c-.06-1-1.9-1.61-2.24-1.74-2.86-1-6.28.57-6.31.58a.76.76,0,0,0-.75-.58.5.5,0,0,0-.59.38.09.09,0,0,0,0,0A.48.48,0,0,0,151.83,564.22Z"/>
      <path class="fe28d842-aa75-4f06-b429-bba4087c4451" d="M158.13,564.22h.45c1.08,0,1.81.51,1.81.87s-.73.85-1.81.87h-.45c-1.08,0-1.8-.51-1.8-.87S157.05,564.25,158.13,564.22Z"/>
      <path class="f1f502c7-b3ac-409a-add9-d26102467ef3" d="M166.69,563.93a4.36,4.36,0,0,0-3.45-.29c-.25.1-1.45.59-1.5,1.45a1.59,1.59,0,0,0,.6,1.17c1.38,1.25,4.1.24,4.34.14v1.46a.62.62,0,0,0,.78.4.6.6,0,0,0,.42-.4v-3.49a.38.38,0,0,0,.45-.15.3.3,0,0,0,0-.29.74.74,0,0,0-1-.37.67.67,0,0,0-.37.37Z"/>
      <path class="fe28d842-aa75-4f06-b429-bba4087c4451" d="M164.44,566.11h.3c1.14,0,1.93-.49,1.95-.87s-.76-.94-1.95-1h-.3c-1.05,0-1.79.48-1.8.87S163.33,566.08,164.44,566.11Z"/>
      <path class="f1f502c7-b3ac-409a-add9-d26102467ef3" d="M168.63,563.93v1.89a2.88,2.88,0,0,0,.9.87,3.27,3.27,0,0,0,1.81.44,3.38,3.38,0,0,0,2.4-.73,2.51,2.51,0,0,0,.45-.58v-1.89a.63.63,0,0,0-.6-.29.61.61,0,0,0-.45.29v1.74a2.84,2.84,0,0,1-3.45,0v-1.74a.64.64,0,0,0-.61-.29A.65.65,0,0,0,168.63,563.93Z"/>
      <path class="f1f502c7-b3ac-409a-add9-d26102467ef3" d="M177.2,563.49a3.48,3.48,0,0,1,2.1.58,3.73,3.73,0,0,1,.45.44v1.3a.57.57,0,0,1,.72.34.5.5,0,0,1,0,.24.83.83,0,0,1-.3.29,1,1,0,0,1-1-.15,4.81,4.81,0,0,1-3.46.15c-.25-.1-1.05-.42-1.05-.87s.79-.77,1.05-.87a4.45,4.45,0,0,1,3,0,1,1,0,0,0-.3-.59c-.27-.25-.61-.27-1.2-.29a1.72,1.72,0,0,0-1,.15,1.33,1.33,0,0,0-.45.43.47.47,0,0,1-.9-.14.48.48,0,0,1,0-.29C175,563.48,177,563.49,177.2,563.49Z"/>
      <path class="fe28d842-aa75-4f06-b429-bba4087c4451" d="M176.9,565.39h.45c.78.09,1.33.26,1.33.43s-.56.34-1.33.44h-.45c-.79-.1-1.34-.27-1.34-.44S176.11,565.48,176.9,565.39Z"/>
    </g>
  </g>
</svg>
