<svg xmlns="http://www.w3.org/2000/svg" class="svgRect closed" viewBox="0 10 500 700">
  <defs>
    <style>
      .f8083b69-c846-4547-8241-9326e6e09640 {
        fill: #cebaa3;
      }

      .\32 ecb9d48-b041-4193-9e40-847ec17e7712, .\33 ee4a524-4dc1-4adb-bce3-c8575e4deece {
        font-size: 48px;
      }

      .\32 ecb9d48-b041-4193-9e40-847ec17e7712 {
        font-family: FredokaOne-Regular, Fredoka One;
      }

      .\39 fb1f393-a393-40ad-ba36-7449d2f85cf8 {
        letter-spacing: -0.01em;
      }

      .\37 33a9fc2-b62e-43b4-ad90-d83fea70c26a {
        letter-spacing: -0.02em;
      }

      .a80c52c7-59d5-401a-b15c-6c14ffbb0d2f {
        font-size: 14px;
        font-family: MyriadPro-Regular, Myriad Pro;
      }

      .a24ada6e-3e3c-4a77-afe9-a46e3511e237 {
        fill: #1d1d1b;
      }

      .\33 9e3119e-a71d-4d95-b971-97c5971ca6c7 {
        fill: #234c13;
      }

      .\31 9d3d4b6-cd57-406c-b8a1-6d8da5e20ad4, .\33 ee4a524-4dc1-4adb-bce3-c8575e4deece {
        fill: #fff;
      }

      .\33 ee4a524-4dc1-4adb-bce3-c8575e4deece {
        font-family: ArialRoundedMTBold, Arial Rounded MT Bold;
      }

      .\37 5016963-935b-4dbc-94b5-9d34dc470837 {
        fill: #232323;
      }

      .\39 493edfb-52bf-4e31-99ff-3eb3feaebad6 {
        fill: #efc643;
      }
    </style>
  </defs>
  <title>Dynamite</title>
  <g id="f899f4da-1bf5-405d-b510-374017368ac6" data-name="Lag 7">
    <rect class="f8083b69-c846-4547-8241-9326e6e09640" width="500" height="700"/>
  </g>
  <g id="1a66aa6c-2062-4a3c-a474-7fb3ba8eca2d" data-name="AlbumBackground">
    <text class="2ecb9d48-b041-4193-9e40-847ec17e7712" transform="translate(39 294.77)"><tspan class="9fb1f393-a393-40ad-ba36-7449d2f85cf8">Dy</tspan><tspan x="61.82" y="0">nami</tspan><tspan class="733a9fc2-b62e-43b4-ad90-d83fea70c26a" x="172.61" y="0">t</tspan><tspan x="193.2" y="0">e</tspan></text>
    <text class="a80c52c7-59d5-401a-b15c-6c14ffbb0d2f" transform="translate(256 400.27)">1</text>
    <text class="a80c52c7-59d5-401a-b15c-6c14ffbb0d2f" transform="translate(256 420.27)">2</text>
    <text class="a80c52c7-59d5-401a-b15c-6c14ffbb0d2f" transform="translate(256 440.27)">3</text>
    <text class="a80c52c7-59d5-401a-b15c-6c14ffbb0d2f" transform="translate(256 460.27)">4</text>
    <text class="a80c52c7-59d5-401a-b15c-6c14ffbb0d2f" transform="translate(256 480.27)">5</text>
    <text class="a80c52c7-59d5-401a-b15c-6c14ffbb0d2f" transform="translate(256 500.27)">6</text>
    <text class="a80c52c7-59d5-401a-b15c-6c14ffbb0d2f" transform="translate(256 520.27)">7</text>
    <text class="a80c52c7-59d5-401a-b15c-6c14ffbb0d2f" transform="translate(256 540.27)">8</text>
    <text class="a80c52c7-59d5-401a-b15c-6c14ffbb0d2f" transform="translate(256 560.27)">9</text>
    <text class="a80c52c7-59d5-401a-b15c-6c14ffbb0d2f" transform="translate(256 580.27)">10</text>
    <text class="a80c52c7-59d5-401a-b15c-6c14ffbb0d2f" transform="translate(256 600.27)">11</text>
  </g>
  <g id="54b4cfe5-b308-41fb-a69d-388cea804316" data-name="Categori">
    <rect class="a24ada6e-3e3c-4a77-afe9-a46e3511e237" width="500" height="128"/>
    <rect class="39e3119e-a71d-4d95-b971-97c5971ca6c7" x="26" y="43" width="199" height="57" rx="12" ry="12"/>
    <text class="3ee4a524-4dc1-4adb-bce3-c8575e4deece" transform="translate(68 87)">2005</text>
  </g>
  <g id="ce76fbb8-d75e-4c0c-81d7-ef254673beae" data-name="Lag 9">
    <rect class="a24ada6e-3e3c-4a77-afe9-a46e3511e237" x="31" y="390" width="206" height="206"/>
    <g>
      <path class="19d3d4b6-cd57-406c-b8a1-6d8da5e20ad4" d="M49.05,404v.26c0,2.92,1.06,4.25-3.35,3.71a1.66,1.66,0,0,1-1.7-1.61,1.93,1.93,0,0,1,0-.24c0-.26-1.32-1.06-1.59.27s1.33,2.91,4.24,2.91c1.06,0,4.24.28,4.24-2.65V404a1,1,0,0,0-1.85-.26Z"/>
      <path class="19d3d4b6-cd57-406c-b8a1-6d8da5e20ad4" d="M56.21,403.24s4.76-.27,5,2.65v1.58S61,408,62.3,408c.27,0,.27,1.07-.53,1.07H61s-.53,0-.53-.27-.26-.26-.52,0c0,0-1.06.8-4.78.53-4.24,0-4.76-5,3.72-3.44,0,0,.53.26.53-.27,0-1.85-5.31-1.59-5.57-.27-.79,1.07-1.86-.26-1.06-1.06a6.5,6.5,0,0,1,3.18-1.05Z"/>
      <path class="75016963-935b-4dbc-94b5-9d34dc470837" d="M56.47,406.42c.79,0,5.83,1.32,0,1.85-2.65,0-4.51-1.32-.53-1.85Z"/>
      <path class="19d3d4b6-cd57-406c-b8a1-6d8da5e20ad4" d="M63.1,404.56v4a.93.93,0,0,0,1.85,0v-3.19a4,4,0,0,1,4.78,0v3.19a.92.92,0,0,0,.26.53,1,1,0,0,0,1.32,0,.93.93,0,0,0,.27-.53v-3.19a4.11,4.11,0,0,1,2.65-.79,4,4,0,0,1,2.12.79v3.19a.94.94,0,0,0,1.86,0v-3.72a3.78,3.78,0,0,0-1.06-1.05,4.56,4.56,0,0,0-3.19-.53,6.22,6.22,0,0,0-2.36.79.67.67,0,0,1-.53.26.68.68,0,0,1-.53-.26,4.32,4.32,0,0,0-1.59-.79,5,5,0,0,0-3.18.26,6.17,6.17,0,0,0-1.06.53,1,1,0,0,0-.26-.53.92.92,0,0,0-.54-.26H62.82a.7.7,0,0,0-.53.79.69.69,0,0,0,.53.53Z"/>
      <path class="19d3d4b6-cd57-406c-b8a1-6d8da5e20ad4" d="M79.27,404.29v4a1.06,1.06,0,0,0,2.12.16v-4.14a1.06,1.06,0,0,0-2.12,0Z"/>
      <path class="19d3d4b6-cd57-406c-b8a1-6d8da5e20ad4" d="M79.27,401.38a1.05,1.05,0,0,1,1.14-1,1.06,1.06,0,0,1,1,1v.26a1.06,1.06,0,1,1-2.12.16v-.42Z"/>
      <path class="19d3d4b6-cd57-406c-b8a1-6d8da5e20ad4" d="M133.88,404.29v4a1.05,1.05,0,0,0,1,1.14,1.08,1.08,0,0,0,1.14-1v-4.14a1.08,1.08,0,0,0-1.14-1A1.06,1.06,0,0,0,133.88,404.29Z"/>
      <path class="19d3d4b6-cd57-406c-b8a1-6d8da5e20ad4" d="M133.88,401.38a1.05,1.05,0,0,1,1.14-1,1.06,1.06,0,0,1,1,1v.26a1.06,1.06,0,0,1-2.12.16.43.43,0,0,1,0-.16Z"/>
      <path class="19d3d4b6-cd57-406c-b8a1-6d8da5e20ad4" d="M82.72,404.82v3.72a1,1,0,0,0,.79.79,1,1,0,0,0,1.06-.79v-2.92a8.32,8.32,0,0,1,6.1-1.59c-.23.17-1.84,1.44-1.59,2.92A2.09,2.09,0,0,0,89.6,408c1.93,2.24,8.17,2,9.55-.53a1.83,1.83,0,0,0,.26-1.05c-.12-1.86-3.37-2.95-4-3.18-5-1.83-11.08,1-11.14,1.05a1.42,1.42,0,0,0-.53-.79,1.34,1.34,0,0,0-.79-.26.89.89,0,0,0-1,.69s0,.06,0,.1A.86.86,0,0,0,82.72,404.82Z"/>
      <path class="75016963-935b-4dbc-94b5-9d34dc470837" d="M93.85,404.82h.79c1.9.05,3.18.94,3.18,1.6S96.54,408,94.64,408h-.79c-1.91,0-3.18-.93-3.18-1.58S91.94,404.88,93.85,404.82Z"/>
      <path class="19d3d4b6-cd57-406c-b8a1-6d8da5e20ad4" d="M109,404.29a7.53,7.53,0,0,0-6.1-.52c-.44.18-2.55,1.07-2.65,2.65a2.94,2.94,0,0,0,1.06,2.12c2.44,2.28,7.24.44,7.67.26v2.65a1.11,1.11,0,0,0,1.39.74,1.1,1.1,0,0,0,.74-.74v-6.36a.66.66,0,0,0,.79-.27.62.62,0,0,0,0-.53,1.29,1.29,0,0,0-2.36,0Z"/>
      <path class="75016963-935b-4dbc-94b5-9d34dc470837" d="M105,408.27h.53c2,0,3.42-.89,3.45-1.59s-1.34-1.71-3.45-1.86H105c-1.86,0-3.15.88-3.18,1.6S103,408.22,105,408.27Z"/>
      <path class="19d3d4b6-cd57-406c-b8a1-6d8da5e20ad4" d="M112.39,404.29v3.45a5.24,5.24,0,0,0,1.59,1.59,5.74,5.74,0,0,0,3.18.8,5.83,5.83,0,0,0,4.25-1.33,4.58,4.58,0,0,0,.79-1.06v-3.45a1.07,1.07,0,0,0-1.85,0v3.18a4.9,4.9,0,0,1-6.1,0v-3.18a1.1,1.1,0,0,0-1.06-.52A1.16,1.16,0,0,0,112.39,404.29Z"/>
      <path class="19d3d4b6-cd57-406c-b8a1-6d8da5e20ad4" d="M127.52,403.5a5.76,5.76,0,0,1,3.7,1.06,4.6,4.6,0,0,1,.8.79v2.37a1,1,0,0,1,1.28.63,1,1,0,0,1,0,.43,1.5,1.5,0,0,1-.53.53A1.74,1.74,0,0,1,131,409a8.24,8.24,0,0,1-6.1.27c-.45-.19-1.85-.77-1.85-1.59s1.38-1.4,1.85-1.59a7.58,7.58,0,0,1,5.31,0,2,2,0,0,0-.53-1.06c-.48-.46-1.08-.49-2.12-.54a3.14,3.14,0,0,0-1.86.27,2.42,2.42,0,0,0-.79.8.82.82,0,0,1-1.59-.27,1,1,0,0,1,0-.53C123.66,403.47,127.14,403.5,127.52,403.5Z"/>
      <path class="75016963-935b-4dbc-94b5-9d34dc470837" d="M127,407h.79c1.38.16,2.36.49,2.36.79s-1,.62-2.36.8H127c-1.39-.18-2.37-.49-2.37-.8S125.6,407.11,127,407Z"/>
    </g>
    <path class="9493edfb-52bf-4e31-99ff-3eb3feaebad6" d="M138.37,452.68a6.22,6.22,0,0,0,6.07-3.74,6.39,6.39,0,0,0-4.21-7.94c.62,0,6.86.26,9.81,5.12a10,10,0,0,1,1.41,4.66,10.27,10.27,0,0,1-.47,4.67c-2.1,5.93-9.25,7.38-9.81,7.49l-.46.93a2.65,2.65,0,0,1,1.39.93,2.6,2.6,0,0,1,.47.94.55.55,0,0,1,0,.47c-.19.32-.94.35-1.86,0,.93.86,1.28,1.91.93,2.33s-1.6.47-2.8-.46a1.29,1.29,0,0,1-.5,1.74,1.25,1.25,0,0,1-.91.12v.94c.68,0,6.88.55,9.81,5.6a10.7,10.7,0,0,1,1.41,5.12q-.22,9.12-.47,18.22A23.84,23.84,0,0,0,151.91,511l-.46.93a19.31,19.31,0,0,1,8.4,2.34.47.47,0,0,1,.48.45h0a.48.48,0,0,1-.48.48,18.66,18.66,0,0,1-3.73.46h-.91a.47.47,0,0,1,0,.94h-2.8a5.6,5.6,0,0,0-1.41-.94,5.67,5.67,0,0,0-1.39-.46,1.87,1.87,0,0,0-.47.46,2.35,2.35,0,0,0-.46,1.4q-.48,10.06-.94,20.1a29.16,29.16,0,0,0,2.36,15,27.93,27.93,0,0,0,3.74,6.08,2.93,2.93,0,0,1-.47.46,3,3,0,0,1-.93.47,3.7,3.7,0,0,1,1.86,4.19,3.41,3.41,0,0,1-2.34,1.87,4.23,4.23,0,0,1-3.26-.46l-8.47-4.22v-1.87l-1.39-.46a21.08,21.08,0,0,0,0-5.61c-.38-2.69-1.15-3.84-1.41-7a33.33,33.33,0,0,1,0-3.74c0-1.38.21-7.45,0-13.08,0-2-.21-6.06-.46-6.08s-.48,2.15-.93,12.15a120.7,120.7,0,0,0,0,16.36c.2,3.12.52,6.09.93,8.88h-2.34a1.55,1.55,0,0,1,0,1.39c-.52.75-2,.13-3.73.48a6.44,6.44,0,0,0-3.28,1.86,12.92,12.92,0,0,1-3.27.47,13.14,13.14,0,0,1-3.74-.47,1.7,1.7,0,0,1-.93-.93c-.4-1.12.84-2.9,3.27-4.21l-1.4-.93a30.75,30.75,0,0,0,2.34-5.12,29.36,29.36,0,0,0,1.39-6.07v-14c.24-3.84.79-5.18.94-9.34v-3.73a.55.55,0,0,0-.47,0c-.24.11-.28.39-.47.93s-.31.88-.46.93c-.42.15-1.2-1.08-1.41-1.4a1.69,1.69,0,0,0-.46-1.4,1.73,1.73,0,0,0-1.4-.47,9.64,9.64,0,0,0-2.33.47,10.86,10.86,0,0,0-2.81,1.4c-1,.29-1.76,0-1.87-.46s.42-.9.47-.94a12.91,12.91,0,0,1,4.67-4.2,12.44,12.44,0,0,1,2.34-.94,35,35,0,0,1,1.87-15.88,34,34,0,0,0,.46-5.61,35.19,35.19,0,0,0-.46-5.61A14.71,14.71,0,0,1,129,472.26a3.55,3.55,0,0,1-1.86-.46,3.67,3.67,0,0,1-1.41-1.41,11.7,11.7,0,0,0-1.41.48c-.85.34-1.17.6-1.39.46s-.33-.55,0-1.87c-1,.25-1.28.15-1.41,0s0-.23,0-.46a1.43,1.43,0,0,0-.46-.94,9.92,9.92,0,0,1-8.42,0,9.14,9.14,0,0,1-3.73-3.74A13.92,13.92,0,0,1,116.38,448c-3.68,3.91-3.84,8.57-1.87,10.23,1.65,1.46,4.63.62,5.12.46-.53-.44-1.08-1-.94-1.4.23-.63,2.1-.27,2.35-.94s-1.13-1.28-.94-1.86c.1-.31.71-.59,2.8-.46-1.43-1.16-2.06-1.94-1.86-2.35s2.12-.42,5.6.48a13.4,13.4,0,0,1,1.4-1.87c1.16-1.34,1.62-1.42,1.87-1.41a1.5,1.5,0,0,1,.94.48,3.62,3.62,0,0,0,.93,0c1.37-.2,2.05-1.13,2.33-.95s.21.6-.46,2.34a13.29,13.29,0,0,0,1.86-.46c1.09-.36,1.63-.69,1.87-.47s-.32,1,0,1.86A1.85,1.85,0,0,0,138.37,452.68Z"/>
  </g>
</svg>
