<svg xmlns="http://www.w3.org/2000/svg" viewBox="0 0 500 700">
  <defs>
    <style>
      .c39c686d-09d8-4f70-819e-ce1b49a17b9a {
        fill: #cebaa3;
      }

      .\32 01ae4e2-0460-4231-83c5-29e25414c53d {
        fill: #6f524f;
      }

      .\34 1125ed7-afee-4142-82d3-0262d65121d7, .b891bbde-097c-471c-b5cc-722a85385776, .d0f56cc9-4fe5-4c18-aac7-898b5f21742f, .ec310a17-814a-4678-b2c9-40fc01f2d8c0 {
        fill: #fff;
      }

      .ec310a17-814a-4678-b2c9-40fc01f2d8c0 {
        stroke: #fff;
      }

      .\34 21777fa-1dfa-401a-82fe-b61328b9a379, .b891bbde-097c-471c-b5cc-722a85385776, .ec310a17-814a-4678-b2c9-40fc01f2d8c0, .fa36eb9f-cccc-4bce-aeb9-3008ce5820b8 {
        stroke-miterlimit: 10;
        stroke-width: 0.5px;
      }

      .\34 1125ed7-afee-4142-82d3-0262d65121d7, .\34 c137144-25c7-4c7b-b685-96887333207b {
        font-size: 48px;
      }

      .\34 c137144-25c7-4c7b-b685-96887333207b {
        font-family: FredokaOne-Regular, Fredoka One;
      }

      .\37 03043fd-1aad-415a-81de-5e1bfeead05d {
        letter-spacing: -0.03em;
      }

      .\35 5f4b1d2-bebe-4a1f-b636-33c91cac429b {
        letter-spacing: -0.02em;
      }

      .\35 84f2714-34ea-4648-9411-740559a0e9ad {
        letter-spacing: -0.01em;
      }

      .da36abf6-0a7c-482b-a041-ba5265c3ec34 {
        letter-spacing: 0em;
      }

      .f2b9c283-c014-48ca-b2a5-e27fb798a41c {
        font-size: 14px;
        font-family: MyriadPro-Regular, Myriad Pro;
      }

      .\34 21777fa-1dfa-401a-82fe-b61328b9a379, .b891bbde-097c-471c-b5cc-722a85385776, .fa36eb9f-cccc-4bce-aeb9-3008ce5820b8 {
        stroke: #000;
      }

      .fa36eb9f-cccc-4bce-aeb9-3008ce5820b8 {
        fill: #020202;
      }

      .\39 0e95fb8-03f1-457f-ab7c-ac744fa65287 {
        fill: #234c13;
      }

      .\34 1125ed7-afee-4142-82d3-0262d65121d7 {
        font-family: ArialRoundedMTBold, Arial Rounded MT Bold;
      }
    </style>
  </defs>
  <title>Emergency On Planet Earth3</title>
  <g id="a1961c90-a18b-44a3-965b-9a29eedc6a1d" data-name="Lag 7">
    <rect class="c39c686d-09d8-4f70-819e-ce1b49a17b9a" width="500" height="700"/>
  </g>
  <g id="d6e67096-33f4-43ea-b365-5e4c716ea6fb" data-name="AlbumBackground">
    <g>
      <rect class="201ae4e2-0460-4231-83c5-29e25414c53d" x="31" y="390" width="206" height="206"/>
      <g>
        <path class="d0f56cc9-4fe5-4c18-aac7-898b5f21742f" d="M64.67,429.55V430c0,4.94,1.8,7.19-5.67,6.29a2.81,2.81,0,0,1-2.86-3.14c0-.45-2.25-1.8-2.7.45s2.25,4.94,7.19,4.94c1.79,0,7.18.47,7.18-4.49v-4.5a1.64,1.64,0,0,0-3.14-.44Z"/>
        <path class="d0f56cc9-4fe5-4c18-aac7-898b5f21742f" d="M76.8,428.21s8.08-.45,8.53,4.49v2.69s-.45.9,1.8.9c.45,0,.45,1.8-.9,1.8H84.88s-.9,0-.9-.45-.44-.45-.89,0c0,0-1.8,1.35-8.09.9-7.19,0-8.08-8.54,6.29-5.84,0,0,.9.45.9-.45,0-3.14-9-2.7-9.43-.45-1.35,1.8-3.15-.45-1.8-1.8.9-.89,4-1.79,5.39-1.79Z"/>
        <path class="201ae4e2-0460-4231-83c5-29e25414c53d" d="M77.25,433.6c1.34,0,9.88,2.24,0,3.14-4.49,0-7.64-2.24-.9-3.14Z"/>
        <path class="d0f56cc9-4fe5-4c18-aac7-898b5f21742f" d="M88.48,430.45v6.74a1.66,1.66,0,0,0,1.79,1.35,1.65,1.65,0,0,0,1.35-1.35V431.8a6.74,6.74,0,0,1,8.09,0v5.39a1.6,1.6,0,0,0,.44.9,1.72,1.72,0,0,0,2.25,0,1.56,1.56,0,0,0,.45-.9V431.8a6.89,6.89,0,0,1,4.49-1.35,6.77,6.77,0,0,1,3.6,1.35v5.39a1.66,1.66,0,0,0,1.79,1.35,1.65,1.65,0,0,0,1.35-1.35V430.9a6.41,6.41,0,0,0-1.8-1.79,7.71,7.71,0,0,0-5.39-.9,10.77,10.77,0,0,0-4,1.34,1.15,1.15,0,0,1-.9.45,1.18,1.18,0,0,1-.9-.45,7.56,7.56,0,0,0-2.69-1.34,8.57,8.57,0,0,0-5.39.45,10.32,10.32,0,0,0-1.8.89,1.56,1.56,0,0,0-.45-.89,1.54,1.54,0,0,0-.9-.45H88a1.21,1.21,0,0,0-.9,1.34,1.17,1.17,0,0,0,.9.9Z"/>
        <path class="d0f56cc9-4fe5-4c18-aac7-898b5f21742f" d="M115.88,430v6.74a1.8,1.8,0,1,0,3.59,0V430a1.8,1.8,0,0,0-3.59,0Z"/>
        <path class="d0f56cc9-4fe5-4c18-aac7-898b5f21742f" d="M115.88,425.06a1.8,1.8,0,0,1,3.59,0v.45a1.8,1.8,0,1,1-3.59,0Z"/>
        <path class="d0f56cc9-4fe5-4c18-aac7-898b5f21742f" d="M208.41,430v6.74a1.8,1.8,0,1,0,3.59,0V430a1.8,1.8,0,0,0-3.59,0Z"/>
        <path class="d0f56cc9-4fe5-4c18-aac7-898b5f21742f" d="M208.41,425.06a1.8,1.8,0,0,1,3.59,0v.45a1.8,1.8,0,1,1-3.59,0Z"/>
        <path class="d0f56cc9-4fe5-4c18-aac7-898b5f21742f" d="M121.72,430.9v6.29a1.64,1.64,0,0,0,1.34,1.35,1.67,1.67,0,0,0,1.8-1.35v-4.94a14.12,14.12,0,0,1,10.33-2.7c-.38.29-3.11,2.44-2.69,4.95a3.66,3.66,0,0,0,.89,1.79c3.27,3.78,13.84,3.44,16.17-.9a3.16,3.16,0,0,0,.45-1.79c-.2-3.14-5.71-5-6.73-5.39-8.54-3.09-18.78,1.77-18.87,1.79a2.41,2.41,0,0,0-.9-1.34,2.32,2.32,0,0,0-1.35-.45,1.5,1.5,0,0,0-1.79,1.34A1.47,1.47,0,0,0,121.72,430.9Z"/>
        <path class="201ae4e2-0460-4231-83c5-29e25414c53d" d="M140.58,430.9h1.35c3.22.08,5.39,1.59,5.39,2.7s-2.17,2.62-5.39,2.69h-1.35c-3.23-.07-5.39-1.58-5.39-2.69S137.35,431,140.58,430.9Z"/>
        <path class="d0f56cc9-4fe5-4c18-aac7-898b5f21742f" d="M166.18,430c-1.2-.61-5.81-2.8-10.33-.89-.74.31-4.32,1.82-4.49,4.49a4.93,4.93,0,0,0,1.8,3.59c4.14,3.87,12.27.75,13,.45v4.49a1.88,1.88,0,0,0,3.6,0V431.35a1.11,1.11,0,0,0,1.34-.45,1.05,1.05,0,0,0,0-.9,2.18,2.18,0,0,0-4,0Z"/>
        <path class="201ae4e2-0460-4231-83c5-29e25414c53d" d="M159.45,436.74h.89c3.42-.05,5.8-1.51,5.84-2.69s-2.27-2.91-5.84-3.15h-.89c-3.15-.06-5.34,1.48-5.39,2.7S156.14,436.65,159.45,436.74Z"/>
        <path class="d0f56cc9-4fe5-4c18-aac7-898b5f21742f" d="M172,430v5.84a8.82,8.82,0,0,0,2.7,2.7,9.72,9.72,0,0,0,5.39,1.35c1.5,0,4.8.07,7.19-2.25a7.42,7.42,0,0,0,1.34-1.8V430a1.85,1.85,0,0,0-1.79-.89,1.89,1.89,0,0,0-1.35.89v5.39a8.3,8.3,0,0,1-10.33,0V430a1.86,1.86,0,0,0-1.8-.89A1.92,1.92,0,0,0,172,430Z"/>
        <path class="d0f56cc9-4fe5-4c18-aac7-898b5f21742f" d="M197.63,428.66a9.85,9.85,0,0,1,6.28,1.79,8.08,8.08,0,0,1,1.35,1.35v4a1.71,1.71,0,0,1,2.25,1.8,2.48,2.48,0,0,1-.9.9,2.94,2.94,0,0,1-3.14-.45c-2.38.94-6.46,2.06-10.34.45-.77-.32-3.14-1.31-3.14-2.7s2.34-2.36,3.14-2.69a12.92,12.92,0,0,1,9,0,3.3,3.3,0,0,0-.9-1.8c-.81-.78-1.83-.83-3.59-.9a5.29,5.29,0,0,0-3.15.45,4.08,4.08,0,0,0-1.35,1.35,1.43,1.43,0,0,1-1.34.9,1.46,1.46,0,0,1-1.35-1.35,1.71,1.71,0,0,1,0-.9C191.1,428.6,197,428.65,197.63,428.66Z"/>
        <path class="201ae4e2-0460-4231-83c5-29e25414c53d" d="M196.73,434.5h1.35c2.34.28,4,.83,4,1.34s-1.7,1.06-4,1.35h-1.35c-2.34-.29-4-.83-4-1.35S194.39,434.78,196.73,434.5Z"/>
      </g>
      <path class="ec310a17-814a-4678-b2c9-40fc01f2d8c0" d="M134.83,470.63a4.86,4.86,0,0,0,4.75-2.92,5,5,0,0,0-3.29-6.21c.48,0,5.36.2,7.67,4a7.81,7.81,0,0,1,1.1,3.65,8,8,0,0,1-.37,3.65c-1.64,4.63-7.23,5.77-7.67,5.85l-.36.73a2.11,2.11,0,0,1,1.09.73,2,2,0,0,1,.37.73.44.44,0,0,1,0,.37c-.15.25-.74.27-1.46,0,.73.67,1,1.49.73,1.82s-1.25.37-2.19-.36a1,1,0,0,1-1.1,1.46v.73c.53,0,5.38.43,7.67,4.38a8.38,8.38,0,0,1,1.1,4q-.18,7.13-.37,14.25a18.62,18.62,0,0,0,2.92,8.76l-.36.73a15.11,15.11,0,0,1,6.57,1.83.36.36,0,0,1,.37.36.37.37,0,0,1-.37.37,14,14,0,0,1-2.92.36H148a.37.37,0,0,1,0,.74h-2.19a4.62,4.62,0,0,0-1.1-.74,4.91,4.91,0,0,0-1.09-.36,1.76,1.76,0,0,0-.37.36,1.87,1.87,0,0,0-.36,1.1q-.37,7.86-.73,15.71A22.86,22.86,0,0,0,144,548.44a22,22,0,0,0,2.93,4.75,2.13,2.13,0,0,1-.37.36,2.17,2.17,0,0,1-.73.37,2.9,2.9,0,0,1,1.46,3.28,2.71,2.71,0,0,1-1.83,1.46,3.32,3.32,0,0,1-2.55-.36L136.29,555v-1.46l-1.09-.36a16.21,16.21,0,0,0,0-4.39c-.3-2.1-.9-3-1.1-5.48a25.07,25.07,0,0,1,0-2.92c0-1.08.16-5.83,0-10.23,0-1.54-.17-4.74-.36-4.75s-.38,1.68-.73,9.5a93.91,93.91,0,0,0,0,12.79c.16,2.44.41,4.76.73,6.94h-1.83a1.23,1.23,0,0,1,0,1.09c-.41.58-1.56.1-2.92.37a5,5,0,0,0-2.56,1.46,9.94,9.94,0,0,1-2.56.36,10.33,10.33,0,0,1-2.92-.36,1.35,1.35,0,0,1-.73-.73c-.31-.88.66-2.27,2.56-3.29l-1.1-.73a24.05,24.05,0,0,0,1.83-4,23.1,23.1,0,0,0,1.09-4.75c0-1.3,0-3.33,0-5.84,0-4.23,0-4.18,0-5.12.19-3,.62-4.05.73-7.3,0-1.26,0-2.28,0-2.92a.45.45,0,0,0-.36,0c-.19.09-.22.31-.37.73s-.24.69-.36.73c-.33.11-.94-.85-1.1-1.1a1.31,1.31,0,0,0-.36-1.09,1.35,1.35,0,0,0-1.1-.37,7.72,7.72,0,0,0-1.82.37,8.46,8.46,0,0,0-2.2,1.09c-.76.23-1.37,0-1.46-.36s.33-.7.37-.73a10.09,10.09,0,0,1,3.65-3.29,9.66,9.66,0,0,1,1.83-.73,27.32,27.32,0,0,1,1.46-12.42,26.15,26.15,0,0,0,.36-4.38,27.26,27.26,0,0,0-.36-4.39,11.5,11.5,0,0,1,4-11,2.78,2.78,0,0,1-1.46-.36,2.84,2.84,0,0,1-1.1-1.1,10.12,10.12,0,0,0-1.1.37c-.67.27-.92.47-1.09.36s-.26-.43,0-1.46c-.78.2-1,.12-1.1,0s0-.18,0-.36a1.11,1.11,0,0,0-.36-.73,7.76,7.76,0,0,1-6.58,0,7.11,7.11,0,0,1-2.92-2.93,11.06,11.06,0,0,1,.36-6.94,11.23,11.23,0,0,1,5.48-5.84c-2.88,3.06-3,6.7-1.46,8,1.29,1.14,3.62.48,4,.36-.41-.35-.84-.79-.73-1.1.18-.49,1.64-.21,1.83-.73s-.88-1-.73-1.46c.08-.24.55-.46,2.19-.36-1.12-.9-1.61-1.51-1.46-1.83s1.66-.33,4.38.37a10.72,10.72,0,0,1,1.1-1.46c.9-1.05,1.26-1.11,1.46-1.1a1.14,1.14,0,0,1,.73.37,2.9,2.9,0,0,0,.73,0c1.07-.15,1.6-.88,1.82-.74s.17.47-.36,1.83a10.7,10.7,0,0,0,1.46-.36c.85-.28,1.27-.54,1.46-.37s-.25.81,0,1.46A1.44,1.44,0,0,0,134.83,470.63Z"/>
    </g>
    <text class="4c137144-25c7-4c7b-b685-96887333207b" transform="translate(39 294.77)">Eme<tspan class="703043fd-1aad-415a-81de-5e1bfeead05d" x="98.97" y="0">r</tspan><tspan x="119.47" y="0">gen</tspan><tspan class="55f4b1d2-bebe-4a1f-b636-33c91cac429b" x="204.14" y="0">c</tspan><tspan x="228" y="0">y on </tspan><tspan x="0" y="48">plan</tspan><tspan class="584f2714-34ea-4648-9411-740559a0e9ad" x="101.33" y="48">e</tspan><tspan class="da36abf6-0a7c-482b-a041-ba5265c3ec34" x="128.35" y="48">t earth</tspan></text>
    <text class="f2b9c283-c014-48ca-b2a5-e27fb798a41c" transform="translate(256 400.27)">1</text>
    <text class="f2b9c283-c014-48ca-b2a5-e27fb798a41c" transform="translate(256 420.27)">2</text>
    <text class="f2b9c283-c014-48ca-b2a5-e27fb798a41c" transform="translate(256 440.27)">3</text>
    <text class="f2b9c283-c014-48ca-b2a5-e27fb798a41c" transform="translate(256 460.27)">4</text>
    <text class="f2b9c283-c014-48ca-b2a5-e27fb798a41c" transform="translate(256 480.27)">5</text>
    <text class="f2b9c283-c014-48ca-b2a5-e27fb798a41c" transform="translate(256 500.27)">6</text>
    <text class="f2b9c283-c014-48ca-b2a5-e27fb798a41c" transform="translate(256 520.27)">7</text>
    <text class="f2b9c283-c014-48ca-b2a5-e27fb798a41c" transform="translate(256 540.27)">8</text>
    <text class="f2b9c283-c014-48ca-b2a5-e27fb798a41c" transform="translate(256 560.27)">9</text>
    <text class="f2b9c283-c014-48ca-b2a5-e27fb798a41c" transform="translate(256 580.27)">10</text>
    <text class="f2b9c283-c014-48ca-b2a5-e27fb798a41c" transform="translate(256 600.27)">11</text>
    <g>
      <rect class="d0f56cc9-4fe5-4c18-aac7-898b5f21742f" x="31" y="390" width="206" height="206"/>
      <g>
        <path class="421777fa-1dfa-401a-82fe-b61328b9a379" d="M64.67,429.55V430c0,4.94,1.8,7.19-5.67,6.29a2.81,2.81,0,0,1-2.88-2.74,2.68,2.68,0,0,1,0-.4c0-.45-2.25-1.8-2.7.45s2.25,4.94,7.19,4.94c1.79,0,7.18.47,7.18-4.49v-4.5a1.64,1.64,0,0,0-3.14-.44Z"/>
        <path class="421777fa-1dfa-401a-82fe-b61328b9a379" d="M76.8,428.21s8.08-.45,8.53,4.49v2.69s-.45.9,1.8.9c.45,0,.45,1.8-.9,1.8H84.88s-.9,0-.9-.45-.44-.45-.89,0c0,0-1.8,1.35-8.09.9-7.19,0-8.08-8.54,6.29-5.84,0,0,.9.45.9-.45,0-3.14-9-2.7-9.43-.45-1.35,1.8-3.15-.45-1.8-1.8.9-.89,4-1.79,5.39-1.79Z"/>
        <path class="b891bbde-097c-471c-b5cc-722a85385776" d="M77.25,433.6c1.34,0,9.88,2.24,0,3.14-4.49,0-7.64-2.24-.9-3.14Z"/>
        <path class="421777fa-1dfa-401a-82fe-b61328b9a379" d="M88.48,430.45v6.74a1.59,1.59,0,0,0,3.14,0V431.8a6.74,6.74,0,0,1,8.09,0v5.39a1.63,1.63,0,0,0,.44.9,1.72,1.72,0,0,0,2.25,0,1.55,1.55,0,0,0,.45-.9V431.8a6.88,6.88,0,0,1,4.49-1.35,6.71,6.71,0,0,1,3.6,1.35v5.39a1.59,1.59,0,0,0,3.14,0V430.9a6.39,6.39,0,0,0-1.8-1.79,7.69,7.69,0,0,0-5.39-.9,10.7,10.7,0,0,0-4,1.34,1.14,1.14,0,0,1-.9.45,1.18,1.18,0,0,1-.9-.45,7.56,7.56,0,0,0-2.69-1.34,8.52,8.52,0,0,0-5.39.45,10.76,10.76,0,0,0-1.8.89,1.58,1.58,0,0,0-.45-.89,1.49,1.49,0,0,0-.9-.45H88a1.2,1.2,0,0,0-.9,1.34,1.18,1.18,0,0,0,.9.9Z"/>
        <path class="421777fa-1dfa-401a-82fe-b61328b9a379" d="M115.88,430v6.74a1.8,1.8,0,1,0,3.59.27,1.22,1.22,0,0,0,0-.27V430a1.8,1.8,0,0,0-3.59,0Z"/>
        <path class="421777fa-1dfa-401a-82fe-b61328b9a379" d="M115.88,425.06a1.8,1.8,0,0,1,3.59,0v.45a1.8,1.8,0,1,1-3.59.27,1.22,1.22,0,0,1,0-.27Z"/>
        <path class="421777fa-1dfa-401a-82fe-b61328b9a379" d="M208.41,430v6.74A1.8,1.8,0,1,0,212,437a1.22,1.22,0,0,0,0-.27V430a1.8,1.8,0,0,0-3.59,0Z"/>
        <path class="421777fa-1dfa-401a-82fe-b61328b9a379" d="M208.41,425.06a1.8,1.8,0,0,1,3.59,0v.45a1.8,1.8,0,1,1-3.59.27,1.22,1.22,0,0,1,0-.27Z"/>
        <path class="421777fa-1dfa-401a-82fe-b61328b9a379" d="M121.72,430.9v6.29a1.64,1.64,0,0,0,1.34,1.35,1.67,1.67,0,0,0,1.8-1.35v-4.94a14.1,14.1,0,0,1,10.33-2.7c-.38.29-3.11,2.44-2.69,4.95a3.58,3.58,0,0,0,.89,1.79c3.27,3.78,13.84,3.44,16.17-.9a3.21,3.21,0,0,0,.45-1.79c-.2-3.14-5.71-5-6.73-5.39-8.54-3.09-18.78,1.77-18.87,1.79a2.39,2.39,0,0,0-.9-1.34,2.26,2.26,0,0,0-1.35-.45,1.51,1.51,0,0,0-1.77,1.17,1,1,0,0,0,0,.17A1.48,1.48,0,0,0,121.72,430.9Z"/>
        <path class="b891bbde-097c-471c-b5cc-722a85385776" d="M140.58,430.9h1.35c3.22.08,5.39,1.59,5.39,2.7s-2.17,2.62-5.39,2.69h-1.35c-3.23-.07-5.39-1.58-5.39-2.69S137.35,431,140.58,430.9Z"/>
        <path class="421777fa-1dfa-401a-82fe-b61328b9a379" d="M166.18,430c-1.2-.61-5.81-2.8-10.33-.89-.74.31-4.32,1.82-4.49,4.49a4.93,4.93,0,0,0,1.8,3.59c4.14,3.87,12.27.75,13,.45v4.49a1.88,1.88,0,0,0,3.6,0V431.35a1.11,1.11,0,0,0,1.34-.45,1,1,0,0,0,0-.9,2.18,2.18,0,0,0-4,0Z"/>
        <path class="b891bbde-097c-471c-b5cc-722a85385776" d="M159.45,436.74h.89c3.42-.05,5.8-1.51,5.84-2.69s-2.27-2.91-5.84-3.15h-.89c-3.15-.06-5.34,1.48-5.39,2.7S156.14,436.65,159.45,436.74Z"/>
        <path class="421777fa-1dfa-401a-82fe-b61328b9a379" d="M172,430v5.84a8.7,8.7,0,0,0,2.7,2.7,9.8,9.8,0,0,0,5.39,1.35c1.5,0,4.8.07,7.19-2.25a7.34,7.34,0,0,0,1.34-1.8V430a1.85,1.85,0,0,0-1.79-.89,1.9,1.9,0,0,0-1.35.89v5.39a8.31,8.31,0,0,1-10.33,0V430a1.86,1.86,0,0,0-1.8-.89A1.92,1.92,0,0,0,172,430Z"/>
        <path class="fa36eb9f-cccc-4bce-aeb9-3008ce5820b8" d="M197.63,428.66a9.89,9.89,0,0,1,6.28,1.79,8.62,8.62,0,0,1,1.35,1.35v4a1.72,1.72,0,0,1,2.17,1.07,1.63,1.63,0,0,1,.08.73,2.59,2.59,0,0,1-.9.9,2.93,2.93,0,0,1-3.14-.45c-2.38.94-6.46,2.06-10.34.45-.77-.32-3.14-1.31-3.14-2.7s2.34-2.36,3.14-2.69a12.91,12.91,0,0,1,9,0,3.32,3.32,0,0,0-.9-1.8c-.81-.78-1.83-.83-3.59-.9a5.27,5.27,0,0,0-3.15.45,4.15,4.15,0,0,0-1.35,1.35,1.43,1.43,0,0,1-1.34.9,1.46,1.46,0,0,1-1.35-1.35,1.72,1.72,0,0,1,0-.9C191.1,428.6,197,428.65,197.63,428.66Z"/>
        <path class="b891bbde-097c-471c-b5cc-722a85385776" d="M196.73,434.5h1.35c2.34.28,4,.83,4,1.34s-1.7,1.06-4,1.35h-1.35c-2.34-.29-4-.83-4-1.35S194.39,434.78,196.73,434.5Z"/>
      </g>
      <path class="421777fa-1dfa-401a-82fe-b61328b9a379" d="M134.83,470.63a4.85,4.85,0,0,0,4.75-2.92,5,5,0,0,0-3.29-6.21c.48,0,5.36.2,7.67,4a7.85,7.85,0,0,1,1.1,3.65,8.07,8.07,0,0,1-.37,3.65c-1.64,4.63-7.23,5.77-7.67,5.85l-.36.73a2.14,2.14,0,0,1,1.09.73,2,2,0,0,1,.37.73.48.48,0,0,1,0,.37c-.15.25-.74.27-1.46,0,.73.67,1,1.49.73,1.82s-1.25.37-2.19-.36a1,1,0,0,1-.39,1.36,1,1,0,0,1-.71.1v.73c.53,0,5.38.43,7.67,4.38a8.4,8.4,0,0,1,1.1,4q-.18,7.13-.37,14.25a18.63,18.63,0,0,0,2.92,8.76l-.36.73a15.13,15.13,0,0,1,6.57,1.83.36.36,0,0,1,.37.35h0a.38.38,0,0,1-.37.37,14.4,14.4,0,0,1-2.92.36H148a.37.37,0,1,1,0,.74h-2.19a4.52,4.52,0,0,0-1.1-.74,5.16,5.16,0,0,0-1.09-.36,1.58,1.58,0,0,0-.37.36,1.88,1.88,0,0,0-.36,1.1q-.37,7.86-.73,15.71A22.83,22.83,0,0,0,144,548.44a22.1,22.1,0,0,0,2.93,4.75,2.1,2.1,0,0,1-.37.36,2.29,2.29,0,0,1-.73.37,2.89,2.89,0,0,1,1.46,3.28,2.7,2.7,0,0,1-1.83,1.46,3.31,3.31,0,0,1-2.55-.36l-6.62-3.3v-1.46l-1.09-.36a16.14,16.14,0,0,0,0-4.39c-.3-2.1-.9-3-1.1-5.48a23.71,23.71,0,0,1,0-2.92c0-1.08.16-5.83,0-10.23a23.45,23.45,0,0,0-.36-4.75c-.19,0-.38,1.68-.73,9.5a94.12,94.12,0,0,0,0,12.79c.16,2.44.41,4.76.73,6.94h-1.83a1.23,1.23,0,0,1,0,1.09c-.41.58-1.56.1-2.92.37a5,5,0,0,0-2.56,1.46,10,10,0,0,1-2.56.36,10.26,10.26,0,0,1-2.92-.36,1.37,1.37,0,0,1-.73-.73c-.31-.88.66-2.27,2.56-3.29l-1.1-.73a24.1,24.1,0,0,0,1.83-4,22.73,22.73,0,0,0,1.09-4.75v-11c.19-3,.62-4.05.73-7.3v-2.92a.45.45,0,0,0-.36,0c-.19.09-.22.31-.37.73s-.24.69-.36.73c-.33.11-.94-.85-1.1-1.1a1.33,1.33,0,0,0-.36-1.09,1.36,1.36,0,0,0-1.1-.37,7.54,7.54,0,0,0-1.82.37,8.36,8.36,0,0,0-2.2,1.09c-.76.23-1.37,0-1.46-.36s.33-.7.37-.73a10.12,10.12,0,0,1,3.65-3.29,10,10,0,0,1,1.83-.73,27.32,27.32,0,0,1,1.46-12.42,26.89,26.89,0,0,0,0-8.77,11.5,11.5,0,0,1,4-11,2.75,2.75,0,0,1-1.46-.36,2.91,2.91,0,0,1-1.1-1.1,10.93,10.93,0,0,0-1.1.37c-.67.27-.92.47-1.09.36s-.26-.43,0-1.46c-.78.2-1,.12-1.1,0s0-.18,0-.36a1.09,1.09,0,0,0-.36-.73,7.73,7.73,0,0,1-6.58,0,7.17,7.17,0,0,1-2.92-2.93,11.07,11.07,0,0,1,.36-6.94,11.28,11.28,0,0,1,5.48-5.84c-2.88,3.06-3,6.7-1.46,8,1.29,1.14,3.62.48,4,.36-.41-.35-.84-.79-.73-1.1.18-.49,1.64-.21,1.83-.73s-.88-1-.73-1.46c.08-.24.55-.46,2.19-.36-1.12-.9-1.61-1.51-1.46-1.83s1.66-.33,4.38.37a9.79,9.79,0,0,1,1.1-1.46c.9-1.05,1.26-1.11,1.46-1.1a1.15,1.15,0,0,1,.73.37,3,3,0,0,0,.73,0c1.07-.15,1.6-.88,1.82-.74s.17.47-.36,1.83a12.44,12.44,0,0,0,1.46-.36c.85-.28,1.27-.54,1.46-.37s-.25.81,0,1.46A1.44,1.44,0,0,0,134.83,470.63Z"/>
    </g>
  </g>
  <g id="502cfe12-5a37-4533-ac81-42ff218fc69e" data-name="Categori">
    <rect class="d0f56cc9-4fe5-4c18-aac7-898b5f21742f" y="1" width="500" height="128"/>
    <rect class="90e95fb8-03f1-457f-ab7c-ac744fa65287" x="26" y="43" width="199" height="57" rx="12" ry="12"/>
    <text class="41125ed7-afee-4142-82d3-0262d65121d7" transform="translate(68 87)">1993</text>
  </g>
</svg>
