<svg xmlns="http://www.w3.org/2000/svg" viewBox="0 0 500 700">
  <defs>
    <style>
      .cls-1 {
        fill: #ead9c3;
      }

      .cls-2, .cls-4 {
        fill: #fff;
      }

      .cls-3, .cls-4, .cls-5 {
        stroke: #000;
        stroke-miterlimit: 10;
        stroke-width: 0.5px;
      }

      .cls-5 {
        fill: #020202;
      }

      .cls-16, .cls-6 {
        font-size: 48px;
        font-family: ArialRoundedMTBold, Arial Rounded MT Bold;
      }

      .cls-7 {
        letter-spacing: -0.02em;
      }

      .cls-8 {
        letter-spacing: -0.03em;
      }

      .cls-9 {
        font-size: 14px;
        font-family: MyriadPro-Regular, Myriad Pro;
      }

      .cls-10 {
        letter-spacing: -0.01em;
      }

      .cls-11 {
        letter-spacing: -0.01em;
      }

      .cls-12 {
        letter-spacing: 0em;
      }

      .cls-13 {
        letter-spacing: -0.01em;
      }

      .cls-14 {
        letter-spacing: -0.01em;
      }

      .cls-15 {
        fill: #333;
      }

      .cls-16 {
        fill: #006fd0;
      }
    </style>
  </defs>
  <title>Ikke-angivet-1</title>
  <g id="Lag_7" data-name="Lag 7">
    <rect class="cls-1" width="500" height="700"/>
  </g>
  <g id="AlbumBackground">
    <g>
      <rect class="cls-2" x="31" y="390" width="206" height="206"/>
      <g>
        <path class="cls-3" d="M64.67,429.55V430c0,4.94,1.8,7.19-5.67,6.29a2.81,2.81,0,0,1-2.86-3.14c0-.45-2.25-1.8-2.7.45s2.25,4.94,7.19,4.94c1.79,0,7.18.47,7.18-4.49v-4.5a1.64,1.64,0,0,0-3.14-.44Z"/>
        <path class="cls-3" d="M76.8,428.21s8.08-.45,8.53,4.49v2.69s-.45.9,1.8.9c.45,0,.45,1.8-.9,1.8H84.88s-.9,0-.9-.45-.44-.45-.89,0c0,0-1.8,1.35-8.09.9-7.19,0-8.08-8.54,6.29-5.84,0,0,.9.45.9-.45,0-3.14-9-2.7-9.43-.45-1.35,1.8-3.15-.45-1.8-1.8.9-.89,4-1.79,5.39-1.79Z"/>
        <path class="cls-4" d="M77.25,433.6c1.34,0,9.88,2.24,0,3.14-4.49,0-7.64-2.24-.9-3.14Z"/>
        <path class="cls-3" d="M88.48,430.45v6.74a1.66,1.66,0,0,0,1.79,1.35,1.65,1.65,0,0,0,1.35-1.35V431.8a6.74,6.74,0,0,1,8.09,0v5.39a1.6,1.6,0,0,0,.44.9,1.72,1.72,0,0,0,2.25,0,1.56,1.56,0,0,0,.45-.9V431.8a6.89,6.89,0,0,1,4.49-1.35,6.77,6.77,0,0,1,3.6,1.35v5.39a1.66,1.66,0,0,0,1.79,1.35,1.65,1.65,0,0,0,1.35-1.35V430.9a6.41,6.41,0,0,0-1.8-1.79,7.71,7.71,0,0,0-5.39-.9,10.77,10.77,0,0,0-4,1.34,1.15,1.15,0,0,1-.9.45,1.18,1.18,0,0,1-.9-.45,7.56,7.56,0,0,0-2.69-1.34,8.57,8.57,0,0,0-5.39.45,10.32,10.32,0,0,0-1.8.89,1.56,1.56,0,0,0-.45-.89,1.54,1.54,0,0,0-.9-.45H88a1.21,1.21,0,0,0-.9,1.34,1.17,1.17,0,0,0,.9.9Z"/>
        <path class="cls-3" d="M115.88,430v6.74a1.8,1.8,0,1,0,3.59,0V430a1.8,1.8,0,0,0-3.59,0Z"/>
        <path class="cls-3" d="M115.88,425.06a1.8,1.8,0,0,1,3.59,0v.45a1.8,1.8,0,1,1-3.59,0Z"/>
        <path class="cls-3" d="M208.41,430v6.74a1.8,1.8,0,1,0,3.59,0V430a1.8,1.8,0,0,0-3.59,0Z"/>
        <path class="cls-3" d="M208.41,425.06a1.8,1.8,0,0,1,3.59,0v.45a1.8,1.8,0,1,1-3.59,0Z"/>
        <path class="cls-3" d="M121.72,430.9v6.29a1.64,1.64,0,0,0,1.34,1.35,1.67,1.67,0,0,0,1.8-1.35v-4.94a14.12,14.12,0,0,1,10.33-2.7c-.38.29-3.11,2.44-2.69,4.95a3.66,3.66,0,0,0,.89,1.79c3.27,3.78,13.84,3.44,16.17-.9a3.16,3.16,0,0,0,.45-1.79c-.2-3.14-5.71-5-6.73-5.39-8.54-3.09-18.78,1.77-18.87,1.79a2.41,2.41,0,0,0-.9-1.34,2.32,2.32,0,0,0-1.35-.45,1.5,1.5,0,0,0-1.79,1.34A1.47,1.47,0,0,0,121.72,430.9Z"/>
        <path class="cls-4" d="M140.58,430.9h1.35c3.22.08,5.39,1.59,5.39,2.7s-2.17,2.62-5.39,2.69h-1.35c-3.23-.07-5.39-1.58-5.39-2.69S137.35,431,140.58,430.9Z"/>
        <path class="cls-3" d="M166.18,430c-1.2-.61-5.81-2.8-10.33-.89-.74.31-4.32,1.82-4.49,4.49a4.93,4.93,0,0,0,1.8,3.59c4.14,3.87,12.27.75,13,.45v4.49a1.88,1.88,0,0,0,3.6,0V431.35a1.11,1.11,0,0,0,1.34-.45,1.05,1.05,0,0,0,0-.9,2.18,2.18,0,0,0-4,0Z"/>
        <path class="cls-4" d="M159.45,436.74h.89c3.42-.05,5.8-1.51,5.84-2.69s-2.27-2.91-5.84-3.15h-.89c-3.15-.06-5.34,1.48-5.39,2.7S156.14,436.65,159.45,436.74Z"/>
        <path class="cls-3" d="M172,430v5.84a8.82,8.82,0,0,0,2.7,2.7,9.72,9.72,0,0,0,5.39,1.35c1.5,0,4.8.07,7.19-2.25a7.42,7.42,0,0,0,1.34-1.8V430a1.85,1.85,0,0,0-1.79-.89,1.89,1.89,0,0,0-1.35.89v5.39a8.3,8.3,0,0,1-10.33,0V430a1.86,1.86,0,0,0-1.8-.89A1.92,1.92,0,0,0,172,430Z"/>
        <path class="cls-5" d="M197.63,428.66a9.85,9.85,0,0,1,6.28,1.79,8.08,8.08,0,0,1,1.35,1.35v4a1.71,1.71,0,0,1,2.25,1.8,2.48,2.48,0,0,1-.9.9,2.94,2.94,0,0,1-3.14-.45c-2.38.94-6.46,2.06-10.34.45-.77-.32-3.14-1.31-3.14-2.7s2.34-2.36,3.14-2.69a12.92,12.92,0,0,1,9,0,3.3,3.3,0,0,0-.9-1.8c-.81-.78-1.83-.83-3.59-.9a5.29,5.29,0,0,0-3.15.45,4.08,4.08,0,0,0-1.35,1.35,1.43,1.43,0,0,1-1.34.9,1.46,1.46,0,0,1-1.35-1.35,1.71,1.71,0,0,1,0-.9C191.1,428.6,197,428.65,197.63,428.66Z"/>
        <path class="cls-4" d="M196.73,434.5h1.35c2.34.28,4,.83,4,1.34s-1.7,1.06-4,1.35h-1.35c-2.34-.29-4-.83-4-1.35S194.39,434.78,196.73,434.5Z"/>
      </g>
      <path class="cls-3" d="M134.83,470.63a4.86,4.86,0,0,0,4.75-2.92,5,5,0,0,0-3.29-6.21c.48,0,5.36.2,7.67,4a7.81,7.81,0,0,1,1.1,3.65,8,8,0,0,1-.37,3.65c-1.64,4.63-7.23,5.77-7.67,5.85l-.36.73a2.11,2.11,0,0,1,1.09.73,2,2,0,0,1,.37.73.44.44,0,0,1,0,.37c-.15.25-.74.27-1.46,0,.73.67,1,1.49.73,1.82s-1.25.37-2.19-.36a1,1,0,0,1-1.1,1.46v.73c.53,0,5.38.43,7.67,4.38a8.38,8.38,0,0,1,1.1,4q-.18,7.13-.37,14.25a18.62,18.62,0,0,0,2.92,8.76l-.36.73a15.11,15.11,0,0,1,6.57,1.83.36.36,0,0,1,.37.36.37.37,0,0,1-.37.37,14,14,0,0,1-2.92.36H148a.37.37,0,0,1,0,.74h-2.19a4.62,4.62,0,0,0-1.1-.74,4.91,4.91,0,0,0-1.09-.36,1.76,1.76,0,0,0-.37.36,1.87,1.87,0,0,0-.36,1.1q-.37,7.86-.73,15.71A22.86,22.86,0,0,0,144,548.44a22,22,0,0,0,2.93,4.75,2.13,2.13,0,0,1-.37.36,2.17,2.17,0,0,1-.73.37,2.9,2.9,0,0,1,1.46,3.28,2.71,2.71,0,0,1-1.83,1.46,3.32,3.32,0,0,1-2.55-.36L136.29,555v-1.46l-1.09-.36a16.21,16.21,0,0,0,0-4.39c-.3-2.1-.9-3-1.1-5.48a25.07,25.07,0,0,1,0-2.92c0-1.08.16-5.83,0-10.23,0-1.54-.17-4.74-.36-4.75s-.38,1.68-.73,9.5a93.91,93.91,0,0,0,0,12.79c.16,2.44.41,4.76.73,6.94h-1.83a1.23,1.23,0,0,1,0,1.09c-.41.58-1.56.1-2.92.37a5,5,0,0,0-2.56,1.46,9.94,9.94,0,0,1-2.56.36,10.33,10.33,0,0,1-2.92-.36,1.35,1.35,0,0,1-.73-.73c-.31-.88.66-2.27,2.56-3.29l-1.1-.73a24.05,24.05,0,0,0,1.83-4,23.1,23.1,0,0,0,1.09-4.75c0-1.3,0-3.33,0-5.84,0-4.23,0-4.18,0-5.12.19-3,.62-4.05.73-7.3,0-1.26,0-2.28,0-2.92a.45.45,0,0,0-.36,0c-.19.09-.22.31-.37.73s-.24.69-.36.73c-.33.11-.94-.85-1.1-1.1a1.31,1.31,0,0,0-.36-1.09,1.35,1.35,0,0,0-1.1-.37,7.72,7.72,0,0,0-1.82.37,8.46,8.46,0,0,0-2.2,1.09c-.76.23-1.37,0-1.46-.36s.33-.7.37-.73a10.09,10.09,0,0,1,3.65-3.29,9.66,9.66,0,0,1,1.83-.73,27.32,27.32,0,0,1,1.46-12.42,26.15,26.15,0,0,0,.36-4.38,27.26,27.26,0,0,0-.36-4.39,11.5,11.5,0,0,1,4-11,2.78,2.78,0,0,1-1.46-.36,2.84,2.84,0,0,1-1.1-1.1,10.12,10.12,0,0,0-1.1.37c-.67.27-.92.47-1.09.36s-.26-.43,0-1.46c-.78.2-1,.12-1.1,0s0-.18,0-.36a1.11,1.11,0,0,0-.36-.73,7.76,7.76,0,0,1-6.58,0,7.11,7.11,0,0,1-2.92-2.93,11.06,11.06,0,0,1,.36-6.94,11.23,11.23,0,0,1,5.48-5.84c-2.88,3.06-3,6.7-1.46,8,1.29,1.14,3.62.48,4,.36-.41-.35-.84-.79-.73-1.1.18-.49,1.64-.21,1.83-.73s-.88-1-.73-1.46c.08-.24.55-.46,2.19-.36-1.12-.9-1.61-1.51-1.46-1.83s1.66-.33,4.38.37a10.72,10.72,0,0,1,1.1-1.46c.9-1.05,1.26-1.11,1.46-1.1a1.14,1.14,0,0,1,.73.37,2.9,2.9,0,0,0,.73,0c1.07-.15,1.6-.88,1.82-.74s.17.47-.36,1.83a10.7,10.7,0,0,0,1.46-.36c.85-.28,1.27-.54,1.46-.37s-.25.81,0,1.46A1.44,1.44,0,0,0,134.83,470.63Z"/>
    </g>
    <text class="cls-6" transform="translate(39 292.61)">Eme<tspan class="cls-7" x="103.01" y="0">rg</tspan><tspan x="151.64" y="0">en</tspan><tspan class="cls-8" x="209.16" y="0">c</tspan><tspan x="236.44" y="0">y On</tspan><tspan x="0" y="48">Planet Earh</tspan></text>
    <text class="cls-9" transform="translate(253 399.61)"><tspan class="cls-10">L</tspan><tspan x="6.41" y="0">o</tspan><tspan class="cls-11" x="14.1" y="0">r</tspan><tspan x="18.54" y="0">em ipsum dolor sit ame</tspan><tspan class="cls-12" x="155.31" y="0">t</tspan><tspan x="159.9" y="0">, </tspan><tspan class="cls-13" x="165.77" y="0">L</tspan><tspan x="172.18" y="0">o</tspan><tspan class="cls-14" x="179.87" y="0">r</tspan><tspan x="184.3" y="0">em </tspan><tspan x="0" y="14">ipsum dolor sit ame</tspan><tspan class="cls-12" x="115.12" y="14">t</tspan><tspan x="119.71" y="14">, </tspan><tspan class="cls-13" x="125.58" y="14">L</tspan><tspan x="131.99" y="14">o</tspan><tspan class="cls-14" x="139.67" y="14">r</tspan><tspan x="144.11" y="14">em ipsum dolor </tspan><tspan x="0" y="28">sit ame</tspan><tspan class="cls-12" x="41.86" y="28">t</tspan><tspan x="46.45" y="28">, </tspan><tspan class="cls-13" x="52.32" y="28">L</tspan><tspan x="58.73" y="28">o</tspan><tspan class="cls-14" x="66.41" y="28">r</tspan><tspan x="70.85" y="28">em ipsum dolor sit ame</tspan><tspan class="cls-12" x="207.63" y="28">t</tspan><tspan x="212.22" y="28">, </tspan><tspan class="cls-10" x="0" y="42">L</tspan><tspan x="6.41" y="42">o</tspan><tspan class="cls-11" x="14.1" y="42">r</tspan><tspan x="18.54" y="42">em ipsum dolor sit ame</tspan><tspan class="cls-12" x="155.31" y="42">t</tspan><tspan x="159.9" y="42">, </tspan><tspan class="cls-13" x="165.77" y="42">L</tspan><tspan x="172.18" y="42">o</tspan><tspan class="cls-14" x="179.87" y="42">r</tspan><tspan x="184.3" y="42">em </tspan><tspan x="0" y="56">ipsum dolor sit ame</tspan><tspan class="cls-12" x="115.12" y="56">t</tspan><tspan x="119.71" y="56" xml:space="preserve">,  ipsum dolor sit </tspan><tspan x="0" y="70">ame</tspan><tspan class="cls-12" x="25.44" y="70">t</tspan><tspan x="30.03" y="70" xml:space="preserve">,  ipsum dolor sit ame</tspan><tspan class="cls-12" x="153.98" y="70">t</tspan><tspan x="158.57" y="70" xml:space="preserve">,  ipsum dolor </tspan><tspan x="0" y="84">sit ame</tspan><tspan class="cls-12" x="41.86" y="84">t</tspan><tspan x="46.45" y="84" xml:space="preserve">,  ipsum dolor sit ame</tspan><tspan class="cls-12" x="170.4" y="84">t</tspan><tspan x="175" y="84" xml:space="preserve">,  ipsum </tspan><tspan x="0" y="98">dolor sit ame</tspan><tspan class="cls-12" x="75.98" y="98">t</tspan><tspan x="80.57" y="98" xml:space="preserve">,  ipsum dolor sit ame</tspan><tspan class="cls-12" x="204.52" y="98">t</tspan><tspan x="209.11" y="98" xml:space="preserve">,  </tspan><tspan x="0" y="112">ipsum dolor sit ame</tspan><tspan class="cls-12" x="115.12" y="112">t</tspan><tspan x="119.71" y="112" xml:space="preserve">,  ipsum dolor sit </tspan><tspan x="0" y="126">ame</tspan><tspan class="cls-12" x="25.44" y="126">t</tspan><tspan x="30.03" y="126" xml:space="preserve">,  ipsum dolor sit ame</tspan><tspan class="cls-12" x="153.98" y="126">t</tspan><tspan x="158.57" y="126" xml:space="preserve">,  ipsum dolor </tspan><tspan x="0" y="140">sit ame</tspan><tspan class="cls-12" x="41.86" y="140">t</tspan><tspan x="46.45" y="140" xml:space="preserve">,  ipsum dolor sit ame</tspan><tspan class="cls-12" x="170.4" y="140">t</tspan><tspan x="175" y="140" xml:space="preserve">,  ipsum </tspan><tspan x="0" y="154">dolor sit ame</tspan><tspan class="cls-12" x="75.98" y="154">t</tspan><tspan x="80.57" y="154" xml:space="preserve">,  ipsum dolor sit ame</tspan><tspan class="cls-12" x="204.52" y="154">t</tspan><tspan x="209.11" y="154" xml:space="preserve">,  </tspan><tspan x="0" y="168">ipsum dolor sit ame</tspan><tspan class="cls-12" x="115.12" y="168">t</tspan><tspan x="119.71" y="168" xml:space="preserve">,  ipsum dolor sit </tspan><tspan x="0" y="182">ame</tspan><tspan class="cls-12" x="25.44" y="182">t</tspan><tspan x="30.03" y="182" xml:space="preserve">,  ipsum dolor sit ame</tspan><tspan class="cls-12" x="153.98" y="182">t</tspan><tspan x="158.57" y="182" xml:space="preserve">,  ipsum dolor </tspan></text>
  </g>
  <g id="Categori">
    <rect class="cls-2" y="1" width="500" height="128"/>
    <rect class="cls-15" x="26" y="43" width="199" height="57" rx="12" ry="12"/>
    <text class="cls-16" transform="translate(68 87)">1993</text>
  </g>
</svg>
