<svg xmlns="http://www.w3.org/2000/svg" class="svgRect closed" viewBox="0 -130 500 700">
  <defs>
    <style>
      .e0ac17ec-325a-44a5-bbce-2cdb12d104d7 {
        fill: #cebaa3;
      }

      .\33 2f808d9-eaa3-43bd-a105-423cdf2e783d, .\34 9160f13-be35-44e3-be49-fa77d1c9f3c5 {
        font-size: 48px;
      }

      .\33 2f808d9-eaa3-43bd-a105-423cdf2e783d {
        font-family: FredokaOne-Regular, Fredoka One;
      }

      .dffe1eb5-50a5-4b5f-8952-e4a187115880 {
        letter-spacing: -0.01em;
      }

      .\39 6d7158c-506e-4cd5-a9cd-97631bf7ee5a {
        font-size: 14px;
        font-family: MyriadPro-Regular, Myriad Pro;
      }

      .\35 06e5779-e933-483a-a581-2d5a8f6cfe96 {
        fill: aqua;
        stroke: #000;
        stroke-miterlimit: 10;
      }

      .\35 6eefaa3-09d2-49b9-932b-f68eff3018a6 {
        fill: #bdbdbd;
      }

      .f42c7f81-e1aa-4a5f-9d7b-3c28c1daf473 {
        fill: #234c13;
      }

      .\34 9160f13-be35-44e3-be49-fa77d1c9f3c5 {
        fill: #fff;
        font-family: ArialRoundedMTBold, Arial Rounded MT Bold;
      }

      .\30 568b621-dcc0-4218-a404-b8202db6a2b1 {
        fill: #e9e2d6;
      }

      .d06074e3-b1f0-4403-8529-f34e5eda7bb9 {
        fill: #444866;
      }

      .a34d4122-4b93-49a7-94d7-6fd605056b67 {
        fill: #29323c;
      }
    </style>
  </defs>
  <title>High Times</title>
  <g id="b15acea3-825f-430f-93da-4da18675d1f5" data-name="Lag 7">
    <rect class="e0ac17ec-325a-44a5-bbce-2cdb12d104d7" width="500" height="700"/>
  </g>
  <g id="e8260f4d-25b0-4248-85cb-7c50d5aa888a" data-name="AlbumBackground">
    <text class="32f808d9-eaa3-43bd-a105-423cdf2e783d" transform="translate(39 294.77)">High Times:<tspan x="0" y="48">Sing</tspan><tspan class="dffe1eb5-50a5-4b5f-8952-e4a187115880" x="97.39" y="48">l</tspan><tspan x="112.61" y="48">es 1992-2006</tspan></text>
    <text class="96d7158c-506e-4cd5-a9cd-97631bf7ee5a" transform="translate(256 400.27)">1</text>
    <text class="96d7158c-506e-4cd5-a9cd-97631bf7ee5a" transform="translate(256 420.27)">2</text>
    <text class="96d7158c-506e-4cd5-a9cd-97631bf7ee5a" transform="translate(256 440.27)">3</text>
    <text class="96d7158c-506e-4cd5-a9cd-97631bf7ee5a" transform="translate(256 460.27)">4</text>
    <text class="96d7158c-506e-4cd5-a9cd-97631bf7ee5a" transform="translate(256 480.27)">5</text>
    <text class="96d7158c-506e-4cd5-a9cd-97631bf7ee5a" transform="translate(256 500.27)">6</text>
    <text class="96d7158c-506e-4cd5-a9cd-97631bf7ee5a" transform="translate(256 520.27)">7</text>
    <text class="96d7158c-506e-4cd5-a9cd-97631bf7ee5a" transform="translate(256 540.27)">8</text>
    <text class="96d7158c-506e-4cd5-a9cd-97631bf7ee5a" transform="translate(256 560.27)">9</text>
    <text class="96d7158c-506e-4cd5-a9cd-97631bf7ee5a" transform="translate(256 580.27)">10</text>
    <text class="96d7158c-506e-4cd5-a9cd-97631bf7ee5a" transform="translate(256 600.27)">11</text>
    <path class="506e5779-e933-483a-a581-2d5a8f6cfe96" d="M90,458a53.92,53.92,0,0,1,7,8c.73,1,1.39,2,2,3,.15.82.29,1.89,0,2s-.84-.76-1-1c-.83-1.24-3.07-3.91-9-10l-1-1Z"/>
  </g>
  <g id="4b464962-08af-4607-823e-31ded69d0d6c" data-name="Categori">
    <rect class="56eefaa3-09d2-49b9-932b-f68eff3018a6" width="500" height="128"/>
    <rect class="f42c7f81-e1aa-4a5f-9d7b-3c28c1daf473" x="26" y="43" width="199" height="57" rx="12" ry="12"/>
    <text class="49160f13-be35-44e3-be49-fa77d1c9f3c5" transform="translate(68 87)">2003</text>
  </g>
  <g id="f6c456db-df8c-4e38-a750-5d257567a3ac" data-name="Lag 9">
    <rect class="0568b621-dcc0-4218-a404-b8202db6a2b1" x="31" y="390" width="206" height="206"/>
    <g id="78fd5c04-0471-4596-85e3-f01e26e6e375" data-name="crown">
      <path class="56eefaa3-09d2-49b9-932b-f68eff3018a6" d="M58,525c2.73,2.32,5.72,4.68,9,7a129.44,129.44,0,0,0,23,13h12l20,6,40,30,20,4-3-8-24-14,25,13,23,2,25,9-16-19-77-32,2-4-3-2,88,11,15-8v-5l-19-7-88,1-5-1,11-5-2-3,60-10,16-18H186l-58,16-3-5-8,4-2-1,1-1-3,1h-4l1-6-3,1,3-5,44-14q-.5-9.5-1-19l-14,14-20,7-10-7c-.33,3-.67,6-1,9l-7,2-7-2-4,6-9,3,1-4a56.05,56.05,0,0,0-5,5,55.34,55.34,0,0,0-7,10q-5.5,11-11,22Z"/>
    </g>
    <g id="82f16c4a-d25f-4d69-90ed-e21bac91ff89" data-name="Crown 2">
      <path class="d06074e3-b1f0-4403-8529-f34e5eda7bb9" d="M67,506h2v-4C68.33,503.33,67.67,504.67,67,506Z"/>
      <path class="d06074e3-b1f0-4403-8529-f34e5eda7bb9" d="M71,506h3l3-12v-3l-3,5Z"/>
      <path class="d06074e3-b1f0-4403-8529-f34e5eda7bb9" d="M77,507l3,1,6-16v-5l-4,5Z"/>
      <path class="d06074e3-b1f0-4403-8529-f34e5eda7bb9" d="M84,509l2,1,11-16v-6l-5,4Z"/>
      <path class="d06074e3-b1f0-4403-8529-f34e5eda7bb9" d="M91,512l3,1,14-13,1-6-6,3Z"/>
      <path class="d06074e3-b1f0-4403-8529-f34e5eda7bb9" d="M99,516l5,2,12-7,3-6-6,1Z"/>
      <path class="d06074e3-b1f0-4403-8529-f34e5eda7bb9" d="M111,521l7,4,4-1,4-5-6-1Z"/>
    </g>
    <g>
      <path class="a34d4122-4b93-49a7-94d7-6fd605056b67" d="M90.26,425v.26c0,2.92,1.1,4.25-3.45,3.71a1.69,1.69,0,0,1-1.76-1.61,1.94,1.94,0,0,1,0-.24c0-.26-1.37-1.06-1.65.27s1.37,2.91,4.38,2.91c1.09,0,4.37.28,4.37-2.65V425a1,1,0,0,0-1.11-.85,1,1,0,0,0-.8.59Z"/>
      <path class="a34d4122-4b93-49a7-94d7-6fd605056b67" d="M97.65,424.24s4.92-.27,5.19,2.65v1.58s-.27.53,1.1.53c.28,0,.28,1.07-.55,1.07h-.82s-.55,0-.55-.27-.27-.26-.54,0c0,0-1.1.8-4.93.53-4.38,0-4.92-5,3.83-3.44,0,0,.55.26.55-.27,0-1.85-5.48-1.59-5.74-.27-.82,1.07-1.92-.26-1.1-1.06a6.88,6.88,0,0,1,3.29-1.05Z"/>
      <path class="0568b621-dcc0-4218-a404-b8202db6a2b1" d="M97.92,427.42c.82,0,6,1.32,0,1.85-2.73,0-4.65-1.32-.54-1.85Z"/>
      <path class="a34d4122-4b93-49a7-94d7-6fd605056b67" d="M104.76,425.56v4a1,1,0,0,0,1.09.79,1,1,0,0,0,.83-.79v-3.19a4.2,4.2,0,0,1,4.92,0v3.19a1,1,0,0,0,.27.53,1.07,1.07,0,0,0,1.37,0,1,1,0,0,0,.28-.53v-3.19a4.32,4.32,0,0,1,2.73-.79,4.16,4.16,0,0,1,2.19.79v3.19a1,1,0,0,0,1.09.79,1,1,0,0,0,.83-.79v-3.72a3.93,3.93,0,0,0-1.1-1.05,4.8,4.8,0,0,0-3.28-.53,6.54,6.54,0,0,0-2.44.79.71.71,0,0,1-.55.26.74.74,0,0,1-.55-.26,4.49,4.49,0,0,0-1.63-.79,5.37,5.37,0,0,0-3.29.26,6.1,6.1,0,0,0-1.09.53,1,1,0,0,0-.83-.79h-1.13a.67.67,0,0,0,0,1.32Z"/>
      <path class="a34d4122-4b93-49a7-94d7-6fd605056b67" d="M121.45,425.29v4a1.07,1.07,0,0,0,1,1.14,1.1,1.1,0,0,0,1.18-1v-4.14a1.1,1.1,0,0,0-1.18-1A1.08,1.08,0,0,0,121.45,425.29Z"/>
      <path class="a34d4122-4b93-49a7-94d7-6fd605056b67" d="M121.45,422.38a1.1,1.1,0,0,1,2.19,0v.26a1.07,1.07,0,0,1-1,1.14,1.09,1.09,0,0,1-1.18-1v-.42Z"/>
      <path class="a34d4122-4b93-49a7-94d7-6fd605056b67" d="M177.81,425.29v4a1.07,1.07,0,0,0,1,1.14,1.1,1.1,0,0,0,1.18-1v-4.14a1.1,1.1,0,0,0-1.18-1A1.08,1.08,0,0,0,177.81,425.29Z"/>
      <path class="a34d4122-4b93-49a7-94d7-6fd605056b67" d="M177.81,422.38a1.1,1.1,0,0,1,2.19,0v.26a1.07,1.07,0,0,1-1,1.14,1.09,1.09,0,0,1-1.18-1v-.42Z"/>
      <path class="a34d4122-4b93-49a7-94d7-6fd605056b67" d="M125,425.82v3.72a1,1,0,0,0,.82.79,1,1,0,0,0,1.09-.79v-2.92a8.78,8.78,0,0,1,6.29-1.59c-.23.17-1.89,1.44-1.64,2.92a2.14,2.14,0,0,0,.55,1.05c2,2.24,8.43,2,9.85-.53a1.84,1.84,0,0,0,.27-1.05c-.12-1.86-3.48-2.95-4.1-3.18-5.2-1.83-11.44,1-11.49,1.05a1.51,1.51,0,0,0-.55-.79,1.43,1.43,0,0,0-.82-.26.91.91,0,0,0-1.08.69.31.31,0,0,0,0,.1A.87.87,0,0,0,125,425.82Z"/>
      <path class="0568b621-dcc0-4218-a404-b8202db6a2b1" d="M136.5,425.82h.82c2,.05,3.28.94,3.28,1.6s-1.32,1.54-3.28,1.58h-.82c-2,0-3.29-.93-3.29-1.58S134.53,425.88,136.5,425.82Z"/>
      <path class="a34d4122-4b93-49a7-94d7-6fd605056b67" d="M152.09,425.29a8,8,0,0,0-6.29-.52c-.45.18-2.63,1.07-2.74,2.65a2.91,2.91,0,0,0,1.1,2.12c2.52,2.28,7.47.44,7.92.26v2.65a1.14,1.14,0,0,0,1.42.74,1.1,1.1,0,0,0,.77-.74v-6.36a.7.7,0,0,0,.82-.27.62.62,0,0,0,0-.53,1.36,1.36,0,0,0-1.75-.67,1.29,1.29,0,0,0-.69.67Z"/>
      <path class="0568b621-dcc0-4218-a404-b8202db6a2b1" d="M148,429.27h.54c2.08,0,3.53-.89,3.56-1.59s-1.38-1.71-3.56-1.86H148c-1.92,0-3.25.88-3.28,1.6S146,429.22,148,429.27Z"/>
      <path class="a34d4122-4b93-49a7-94d7-6fd605056b67" d="M155.63,425.29v3.45a5.44,5.44,0,0,0,1.65,1.59,6.05,6.05,0,0,0,3.28.8,6.15,6.15,0,0,0,4.38-1.33,4.43,4.43,0,0,0,.82-1.06v-3.45a1.14,1.14,0,0,0-1.92,0v3.18a5.18,5.18,0,0,1-6.29,0v-3.18a1.14,1.14,0,0,0-1.09-.52A1.19,1.19,0,0,0,155.63,425.29Z"/>
      <path class="a34d4122-4b93-49a7-94d7-6fd605056b67" d="M171.24,424.5a6.09,6.09,0,0,1,3.83,1.06,4.73,4.73,0,0,1,.82.79v2.37a1,1,0,0,1,1.32.63.9.9,0,0,1,0,.43,1.47,1.47,0,0,1-.55.53,1.82,1.82,0,0,1-1.91-.27,8.77,8.77,0,0,1-6.3.27c-.47-.19-1.91-.77-1.91-1.59s1.43-1.4,1.91-1.59a8.09,8.09,0,0,1,5.49,0,2,2,0,0,0-.55-1.06c-.5-.46-1.12-.49-2.19-.54a3.34,3.34,0,0,0-1.92.27,2.41,2.41,0,0,0-.82.8.88.88,0,0,1-.82.53.87.87,0,0,1-.82-.8,1,1,0,0,1,0-.53C167.27,424.47,170.86,424.5,171.24,424.5Z"/>
      <path class="0568b621-dcc0-4218-a404-b8202db6a2b1" d="M170.7,428h.82c1.42.16,2.43.49,2.43.79s-1,.62-2.43.8h-.82c-1.43-.18-2.44-.49-2.44-.8S169.27,428.11,170.7,428Z"/>
    </g>
  </g>
</svg>
