<svg xmlns="http://www.w3.org/2000/svg" viewBox="0 0 500 700">
  <defs>
    <style>
      .fc7e1bfa-d9e8-47de-9f9a-a41e39151522 {
        fill: #cebaa3;
      }

      .\39 81debf1-513b-4094-94dc-ee7f0bfe9bdb, .db62916e-7701-43b5-b42c-15fa3bebc936 {
        font-size: 48px;
      }

      .db62916e-7701-43b5-b42c-15fa3bebc936 {
        font-family: FredokaOne-Regular, Fredoka One;
      }

      .a65285de-f329-4682-a8ef-97a67534afa7 {
        letter-spacing: -0.02em;
      }

      .\31 3787e30-c1fb-489d-9fe7-58706e9d8185 {
        letter-spacing: -0.12em;
      }

      .d82efacc-1ad0-4983-b2be-cb1b474bc2a2 {
        letter-spacing: -0.01em;
      }

      .bd5b755c-7358-4862-8501-3d2addc3d37b {
        letter-spacing: -0.03em;
      }

      .\32 1a59613-ec97-4cbb-ae8e-8fdc24634930 {
        font-size: 14px;
        font-family: MyriadPro-Regular, Myriad Pro;
      }

      .c8e673b0-a360-4209-962b-629f5795ee25 {
        fill: aqua;
        stroke: #000;
        stroke-miterlimit: 10;
      }

      .\37 87699f6-4b42-4c8c-981b-0cc1bd2a1b72 {
        fill: #875459;
      }

      .\31 b189c36-436c-4239-bb23-a4cf9b8be7fd {
        fill: #234c13;
      }

      .\39 81debf1-513b-4094-94dc-ee7f0bfe9bdb, .d08d2e32-6203-41a6-8e37-94644073f9a5, .fc17334d-d67f-47d6-8cde-ffe8273245a8 {
        fill: #fff;
      }

      .\39 81debf1-513b-4094-94dc-ee7f0bfe9bdb {
        font-family: ArialRoundedMTBold, Arial Rounded MT Bold;
      }

      .\30 78cebc2-347a-44b3-8196-694dc56e586a {
        fill: #964329;
      }

      .\32 0ef424d-2927-4ef9-b783-76626436702d, .d08d2e32-6203-41a6-8e37-94644073f9a5 {
        font-size: 16.34px;
        font-family: Haettenschweiler, Haettenschweiler;
      }

      .\32 0ef424d-2927-4ef9-b783-76626436702d {
        fill: #ce9ec2;
      }
    </style>
  </defs>
  <title>LateNightTales</title>
  <g id="780ee513-0daf-4a4d-9f54-2bfa5bac0c8f" data-name="Lag 7">
    <rect class="fc7e1bfa-d9e8-47de-9f9a-a41e39151522" width="500" height="700"/>
  </g>
  <g id="60320cee-c5be-4a41-8fac-3f8f878aa3f8" data-name="AlbumBackground">
    <text class="db62916e-7701-43b5-b42c-15fa3bebc936" transform="translate(39 294.77)">La<tspan class="a65285de-f329-4682-a8ef-97a67534afa7" x="56.78" y="0">t</tspan><tspan x="77.38" y="0">e Night </tspan><tspan class="13787e30-c1fb-489d-9fe7-58706e9d8185" x="254.64" y="0">T</tspan><tspan x="283.96" y="0">a</tspan><tspan class="d82efacc-1ad0-4983-b2be-cb1b474bc2a2" x="312.57" y="0">l</tspan><tspan x="327.79" y="0">es:</tspan><tspan x="0" y="48">Jami</tspan><tspan class="bd5b755c-7358-4862-8501-3d2addc3d37b" x="108.05" y="48">r</tspan><tspan x="128.54" y="48">oquai</tspan></text>
    <text class="21a59613-ec97-4cbb-ae8e-8fdc24634930" transform="translate(256 400.27)">1</text>
    <text class="21a59613-ec97-4cbb-ae8e-8fdc24634930" transform="translate(256 420.27)">2</text>
    <text class="21a59613-ec97-4cbb-ae8e-8fdc24634930" transform="translate(256 440.27)">3</text>
    <text class="21a59613-ec97-4cbb-ae8e-8fdc24634930" transform="translate(256 460.27)">4</text>
    <text class="21a59613-ec97-4cbb-ae8e-8fdc24634930" transform="translate(256 480.27)">5</text>
    <text class="21a59613-ec97-4cbb-ae8e-8fdc24634930" transform="translate(256 500.27)">6</text>
    <text class="21a59613-ec97-4cbb-ae8e-8fdc24634930" transform="translate(256 520.27)">7</text>
    <text class="21a59613-ec97-4cbb-ae8e-8fdc24634930" transform="translate(256 540.27)">8</text>
    <text class="21a59613-ec97-4cbb-ae8e-8fdc24634930" transform="translate(256 560.27)">9</text>
    <text class="21a59613-ec97-4cbb-ae8e-8fdc24634930" transform="translate(256 580.27)">10</text>
    <text class="21a59613-ec97-4cbb-ae8e-8fdc24634930" transform="translate(256 600.27)">11</text>
    <path class="c8e673b0-a360-4209-962b-629f5795ee25" d="M90,458a53.92,53.92,0,0,1,7,8c.73,1,1.39,2,2,3,.15.82.29,1.89,0,2s-.84-.76-1-1c-.83-1.24-3.07-3.91-9-10l-1-1Z"/>
  </g>
  <g id="b8b49933-7adf-4d38-8e07-faa6c76c6857" data-name="Categori">
    <rect class="787699f6-4b42-4c8c-981b-0cc1bd2a1b72" width="500" height="128"/>
    <rect class="1b189c36-436c-4239-bb23-a4cf9b8be7fd" x="26" y="43" width="199" height="57" rx="12" ry="12"/>
    <text class="981debf1-513b-4094-94dc-ee7f0bfe9bdb" transform="translate(68 87)">2003</text>
  </g>
  <g id="840908b0-845d-4589-908a-2a588f7330c4" data-name="Lag 9">
    <rect class="787699f6-4b42-4c8c-981b-0cc1bd2a1b72" x="31" y="390" width="206" height="206"/>
    <g id="1e57733e-4dae-4fdb-8a40-a5b1c72a617b" data-name="dog2">
      <path class="fc17334d-d67f-47d6-8cde-ffe8273245a8" d="M88,528a2,2,0,0,0,0-4H86l-2-6V498l8-12v-4l-1-4,4-2,5-5,5-3h2a1.69,1.69,0,0,0,1,1,1.77,1.77,0,0,0,2-1,5.46,5.46,0,0,0,3-1c1.91-1.41,2.7-4.17,2-7a1.9,1.9,0,0,0,1-2c-.27-.78-1.47-.93-2-1a4.11,4.11,0,0,0-1,0h-6a8.88,8.88,0,0,0-15,0l-7,5-3,2-3,2a13.31,13.31,0,0,0-3,1,13.94,13.94,0,0,0-5,4L58,484a62.15,62.15,0,0,0-6,9c-.75,1.37-1.41,2.71-2,4l-9,16v5a12.56,12.56,0,0,0,1,7,12.25,12.25,0,0,0,2,3l14,2,1,1,14-1a4.51,4.51,0,0,0,2,1,5,5,0,0,0,4-1c1.38-.24,2.15-1.26,2-2s-.87-1-1-1a5.66,5.66,0,0,0-2-1,5.86,5.86,0,0,0-3,0l-7,1-3-1v-4l3-10,2,3a5.72,5.72,0,0,0,1,4,5,5,0,0,0,1,1,3.62,3.62,0,0,0,2,1,3.8,3.8,0,0,0,3-1v-2a2.29,2.29,0,0,0-1-1,2.4,2.4,0,0,0-2,0,30.41,30.41,0,0,1-1-6,29.59,29.59,0,0,1,0-4l5-2q1,5.5,2,11a2.5,2.5,0,0,0,0,4,4.64,4.64,0,0,1,2,3,3.71,3.71,0,0,1,0,1,4.1,4.1,0,0,0,0,1c.06.49.21,1.66,1,2a1.38,1.38,0,0,0,1,0h3Z"/>
    </g>
    <g id="b1e75efe-8270-4d66-b927-3cf483921f53" data-name="dog">
      <path class="078cebc2-347a-44b3-8196-694dc56e586a" d="M82,464a53.92,53.92,0,0,1,7,8c.73,1,1.39,2,2,3,.15.82.29,1.89,0,2s-.84-.76-1-1c-.83-1.24-3.07-3.91-9-10l-1-1Z"/>
    </g>
    <g id="ecf0c19e-0ac7-4900-96a0-650545e8bc34" data-name="spots">
      <path d="M94,475c.44.92.89,1,1,1,.71.06,1.6-1.09,2-3l1-4,4-2h3a3.54,3.54,0,0,0,2-1,3.61,3.61,0,0,0,1-2v-5a4.42,4.42,0,0,1-1-1c-.6-.84-.54-1.41-1-2a2.94,2.94,0,0,0-2-1h-3a4.78,4.78,0,0,0-3-2c-2.22-.36-4.64,1.19-5,3a2.56,2.56,0,0,0,0,1l-3,3-2,1a2.5,2.5,0,0,0-2,4,8,8,0,0,0,2,4,8.06,8.06,0,0,0,3,2c.67,1.33,1.33,2.67,2,4Z"/>
      <path d="M115.56,459.49a.59.59,0,0,1-.26-.07.54.54,0,0,1-.25-.37,2.34,2.34,0,0,1-.08-.53,4,4,0,0,1,0-1,.34.34,0,0,1,.13-.27.31.31,0,0,1,.25,0,1.47,1.47,0,0,1,.46.32.92.92,0,0,1,.28.71,1.48,1.48,0,0,1,0,.19l-.08.33c0,.07,0,.13,0,.2a1.17,1.17,0,0,1-.17.28c-.06.08-.16.14-.17.24a1.94,1.94,0,0,1-.55,1.08.27.27,0,0,1-.12.09.38.38,0,0,1-.35-.09,3.2,3.2,0,0,1-.65-.77l-.38-.56a.43.43,0,0,1,0-.12.25.25,0,0,1,0-.17,1.17,1.17,0,0,0,.06-.45c0-.15.07-.17.11-.29a1.53,1.53,0,0,0,0-.48.55.55,0,0,1,0-.18l.07-.12a1.06,1.06,0,0,1,.36-.34,1,1,0,0,1,.66-.07.8.8,0,0,1,.21.05.92.92,0,0,1,.35.38.89.89,0,0,1,.15.27,1.9,1.9,0,0,1,0,.25l0,1c0,.16,0,.32,0,.48"/>
      <path d="M71.72,470.33,58.81,483.19a2.79,2.79,0,0,0-.65.84,9.32,9.32,0,0,0-.23.91,4.15,4.15,0,0,1-.69,1.25l-2.92,4.07a7.41,7.41,0,0,0-1.16,2,3.89,3.89,0,0,0,.54,3.45,6.53,6.53,0,0,1,.95,1.34c.39,1-.13,2.09.15,3.1.36,1.33,1.94,1.93,3.31,1.89s2.72-.53,4.09-.5a1.07,1.07,0,0,1,.53.1c.33.19.41.63.65.94a1.42,1.42,0,0,0,1.5.37,4.18,4.18,0,0,0,1.38-.87,1.65,1.65,0,0,0,1.55,1.37,4.36,4.36,0,0,0,2.16-.54,32.53,32.53,0,0,0,3.49-1.88,6.13,6.13,0,0,0,2.7-2.75c.24-.62.29-1.29.49-1.93s.42-1,.62-1.48c.46-1.2.74-2.78,2-3.14.68-.19,1.43.09,2.12-.09a2.54,2.54,0,0,0,1.56-2A7.2,7.2,0,0,0,81.57,484a15,15,0,0,0-4.46-3.89c-1.58-1-3.42-2.09-3.69-3.94a5.2,5.2,0,0,0-.32-1.94c-.51-.88-1.74-.92-2.75-.86.75-1.92,3.41-2.42,4.38-4.23.24-.44.39-1,.82-1.23a3.43,3.43,0,0,1,1.15-.25c.52-.09,1.82-.75,1.67-1.44s-1.81.22-2.22.44A20.43,20.43,0,0,0,71.72,470.33Z"/>
      <path d="M73,469l-.85.79-.36.36c-.19.2-.36.42-.57.61s-.28.23-.4.36a.74.74,0,0,0-.22.48c.15,0,.27-.12.38-.23.58-.6,1.37-1,1.94-1.61a6.23,6.23,0,0,0,.57-.78c.06-.09.46-.6.28-.63s-.33.25-.39.3Z"/>
      <path d="M62.74,525.92c.14.37.47.83.83.67.18-.08.31-.29.5-.26s.21.41.1.63a6.07,6.07,0,0,1-3.58,2.88,14.32,14.32,0,0,1-4.66.54,56.9,56.9,0,0,1-7.71-.67,9.18,9.18,0,0,1-3.46-1,7.52,7.52,0,0,1-2.13-2.15,5.6,5.6,0,0,1-1.07-2.29c-.13-.84.07-1.7,0-2.55a8.31,8.31,0,0,0-.4-1.54,12.72,12.72,0,0,1-.63-5.76,14,14,0,0,1,2-5c1.35-2.28,3.13-4.5,5.62-5.42a3.47,3.47,0,0,1,1.61-.27A4.08,4.08,0,0,1,52.49,506c.12.19.23.44.11.63a1.07,1.07,0,0,1,1,.65,2.72,2.72,0,0,1,.16,1.27,40.09,40.09,0,0,1-.61,4.2,3.46,3.46,0,0,0,0,1.32,1.28,1.28,0,0,0,.81,1,1.93,1.93,0,0,0,1.53-.51,9.81,9.81,0,0,0,3-2.89,15.87,15.87,0,0,1,.8-1.46,3.16,3.16,0,0,1,5.07-.11c1,1.23.89,3,.53,4.51a16.06,16.06,0,0,0-.83,4.62l-1.91-.82.14,3.55a1.64,1.64,0,0,1-.21,1.05,1.17,1.17,0,0,1-.64.4c-.7.2-1.47.1-2.15.35-1,.39-1.59,1.49-2.3,2.35a6.33,6.33,0,0,1-2.2,1.7l3.61-.54a7.44,7.44,0,0,0,2-.53c.38-.18,1.34-1.28,1.38-.42A1.69,1.69,0,0,0,62.74,525.92Z"/>
    </g>
    <g id="da3972d3-7747-490d-9f4c-82e44ae8091a" data-name="Lag 16">
      <text class="20ef424d-2927-4ef9-b783-76626436702d" transform="translate(43 415.89) scale(1.13 1)">LateNightTales</text>
    </g>
    <g id="ca770a0e-babe-4be5-8922-46b09ba1ba79" data-name="Lag 17">
      <text class="d08d2e32-6203-41a6-8e37-94644073f9a5" transform="translate(41.17 429.83) scale(1.19 1)">Jamiroquai</text>
    </g>
    <path class="fc17334d-d67f-47d6-8cde-ffe8273245a8" d="M138.9,401.5a1.86,1.86,0,0,0,1.81-1.11,1.9,1.9,0,0,0-1.25-2.36,3.61,3.61,0,0,1,2.91,1.52,2.86,2.86,0,0,1,.42,1.39,2.94,2.94,0,0,1-.14,1.38,4,4,0,0,1-2.91,2.23l-.14.27a.84.84,0,0,1,.41.28.62.62,0,0,1,.14.28.17.17,0,0,1,0,.14c-.05.09-.28.1-.55,0,.28.25.38.57.28.69s-.48.14-.84-.14a.38.38,0,0,1-.14.52.37.37,0,0,1-.27,0v.28a3.73,3.73,0,0,1,2.91,1.66,3.16,3.16,0,0,1,.42,1.52c-.05,1.81-.09,3.61-.14,5.42a7.09,7.09,0,0,0,1.11,3.33l-.14.28a5.61,5.61,0,0,1,2.5.69.14.14,0,0,1,.14.13h0a.14.14,0,0,1-.14.14,5.91,5.91,0,0,1-1.11.14h-.27a.14.14,0,0,1,.14.14.14.14,0,0,1-.14.14h-.83a1.62,1.62,0,0,0-.42-.28,1.48,1.48,0,0,0-.42-.14.62.62,0,0,0-.14.14.74.74,0,0,0-.13.41q-.15,3-.28,6a8.74,8.74,0,0,0,.7,4.46,8.38,8.38,0,0,0,1.11,1.81.93.93,0,0,1-.14.14.82.82,0,0,1-.28.14,1.08,1.08,0,0,1,.56,1.24,1,1,0,0,1-.7.56,1.28,1.28,0,0,1-1-.14l-2.51-1.25V433l-.42-.13a5.84,5.84,0,0,0,0-1.67c-.11-.8-.34-1.14-.41-2.09a6.86,6.86,0,0,1,0-1.11c0-.41.06-2.21,0-3.88a9,9,0,0,0-.14-1.81c-.07,0-.15.64-.28,3.61a35.83,35.83,0,0,0,0,4.86c.06.93.16,1.81.28,2.64h-.7a.43.43,0,0,1,0,.41c-.15.22-.59,0-1.11.15a1.86,1.86,0,0,0-1,.55,4,4,0,0,1-1,.14,4.12,4.12,0,0,1-1.11-.14.48.48,0,0,1-.28-.28c-.12-.33.25-.86,1-1.25l-.41-.28a9.07,9.07,0,0,0,.69-1.52,9.23,9.23,0,0,0,.42-1.8v-4.17c.07-1.14.23-1.54.27-2.77v-1.11a.15.15,0,0,0-.13,0c-.08,0-.09.12-.14.28s-.1.26-.14.27-.36-.32-.42-.42a.49.49,0,0,0-.55-.55,3.34,3.34,0,0,0-.7.14,3.56,3.56,0,0,0-.83.41c-.29.09-.52,0-.56-.13s.13-.27.14-.28a4,4,0,0,1,1.39-1.25,3.53,3.53,0,0,1,.7-.28,10.25,10.25,0,0,1,.55-4.72,10,10,0,0,0,0-3.33,4.37,4.37,0,0,1,1.52-4.18,1.07,1.07,0,0,1-.55-.14,1.06,1.06,0,0,1-.42-.42l-.42.14c-.25.11-.35.18-.41.14s-.1-.16,0-.56c-.3.08-.38,0-.42,0s0-.06,0-.13a.42.42,0,0,0-.14-.28,3,3,0,0,1-2.5,0,2.7,2.7,0,0,1-1.11-1.11,4.19,4.19,0,0,1,.14-2.64,4.25,4.25,0,0,1,2.08-2.22c-1.1,1.16-1.14,2.55-.56,3s1.38.18,1.53.14c-.16-.14-.32-.3-.28-.42s.62-.08.69-.28-.33-.38-.27-.55.2-.18.83-.14c-.43-.34-.61-.57-.56-.7s.63-.12,1.67.14a3.64,3.64,0,0,1,.42-.55c.34-.4.48-.42.55-.42a.42.42,0,0,1,.28.14H137c.4-.06.6-.33.69-.28s.06.18-.14.7a5.73,5.73,0,0,0,.56-.14c.32-.11.48-.21.55-.14s-.09.31,0,.55A.55.55,0,0,0,138.9,401.5Z"/>
  </g>
</svg>
