<svg id="1b7cb2c3-18e1-4249-976e-ae7789c60f4c" data-name="Lag 1" xmlns="http://www.w3.org/2000/svg" viewBox="0 0 485.61 61.46">
  <defs>
    <style>
      .\36 c6df38e-414d-485f-a6d9-371f5d0e5048 {
        fill: #c6263d;
      }

      .\33 5cb2d25-766c-45b1-bb17-6402347cccd3 {
        fill: #3f5f7b;
      }
    </style>
  </defs>
  <title>Logo</title>
  <g>
    <path class="6c6df38e-414d-485f-a6d9-371f5d0e5048" d="M36.92,19.24v1.38c0,15.12,5.51,22-17.36,19.26a8.61,8.61,0,0,1-8.81-8.39,8.45,8.45,0,0,1,.06-1.23c0-1.38-6.89-5.51-8.27,1.38s6.89,15.12,22,15.12c5.48,0,22,1.44,22-13.74V19.24a5,5,0,0,0-9.62-1.35Z" transform="translate(-2.39 -0.39)"/>
    <path class="6c6df38e-414d-485f-a6d9-371f5d0e5048" d="M74.06,15.14s24.74-1.38,26.11,13.74v8.24s-1.37,2.76,5.51,2.76c1.38,0,1.38,5.51-2.75,5.51H98.8S96,45.39,96,44s-1.35-1.38-2.72,0c0,0-5.51,4.13-24.77,2.75-22,0-24.74-26.14,19.26-17.88,0,0,2.75,1.38,2.75-1.37,0-9.62-27.55-8.27-28.87-1.38-4.13,5.51-9.64-1.38-5.51-5.51,2.75-2.73,12.25-5.48,16.5-5.48Z" transform="translate(-2.39 -0.39)"/>
    <path class="35cb2d25-766c-45b1-bb17-6402347cccd3" d="M75.44,31.64c4.1,0,30.24,6.86,0,9.61-13.75,0-23.39-6.85-2.76-9.61Z" transform="translate(-2.39 -0.39)"/>
    <path class="6c6df38e-414d-485f-a6d9-371f5d0e5048" d="M109.82,22V42.63a4.85,4.85,0,0,0,9.61,0V26.13a20.63,20.63,0,0,1,24.77,0v16.5a4.85,4.85,0,0,0,1.35,2.76,5.27,5.27,0,0,0,6.89,0,4.75,4.75,0,0,0,1.37-2.76V26.13A21.06,21.06,0,0,1,167.56,22a20.72,20.72,0,0,1,11,4.13v16.5a4.85,4.85,0,0,0,9.61,0V23.37a19.56,19.56,0,0,0-5.51-5.48,23.6,23.6,0,0,0-16.5-2.75,33,33,0,0,0-12.24,4.1,3.53,3.53,0,0,1-2.76,1.38,3.63,3.63,0,0,1-2.76-1.38,23.15,23.15,0,0,0-8.23-4.1,26.17,26.17,0,0,0-16.5,1.38,31.35,31.35,0,0,0-5.51,2.72,4.81,4.81,0,0,0-1.38-2.72A4.71,4.71,0,0,0,114,15.14h-5.69a3.7,3.7,0,0,0-2.76,4.1A3.61,3.61,0,0,0,108.35,22Z" transform="translate(-2.39 -0.39)"/>
    <path class="6c6df38e-414d-485f-a6d9-371f5d0e5048" d="M193.71,20.62V41.25a5.51,5.51,0,1,0,11,.82,5.61,5.61,0,0,0,0-.82V20.62a5.51,5.51,0,0,0-11,0Z" transform="translate(-2.39 -0.39)"/>
    <path class="6c6df38e-414d-485f-a6d9-371f5d0e5048" d="M193.71,5.49a5.51,5.51,0,0,1,11,0V6.87a5.51,5.51,0,1,1-11,.82,3.75,3.75,0,0,1,0-.82Z" transform="translate(-2.39 -0.39)"/>
    <path class="6c6df38e-414d-485f-a6d9-371f5d0e5048" d="M477,20.62V41.25a5.51,5.51,0,1,0,11,.82,5.61,5.61,0,0,0,0-.82V20.62a5.51,5.51,0,0,0-11,0Z" transform="translate(-2.39 -0.39)"/>
    <path class="6c6df38e-414d-485f-a6d9-371f5d0e5048" d="M477,5.49a5.51,5.51,0,0,1,11,0V6.87a5.51,5.51,0,1,1-11,.82,5.61,5.61,0,0,1,0-.82Z" transform="translate(-2.39 -0.39)"/>
    <path class="6c6df38e-414d-485f-a6d9-371f5d0e5048" d="M211.58,23.37V42.63a5,5,0,0,0,4.11,4.13,5.1,5.1,0,0,0,5.51-4.13V27.51a43.22,43.22,0,0,1,31.62-8.27c-1.16.89-9.52,7.47-8.23,15.16a11.2,11.2,0,0,0,2.72,5.48c10,11.57,42.38,10.53,49.51-2.76a9.77,9.77,0,0,0,1.38-5.48c-.62-9.61-17.48-15.31-20.61-16.5-26.14-9.46-57.49,5.42-57.77,5.48a7.39,7.39,0,0,0-2.75-4.1,7.09,7.09,0,0,0-4.14-1.38,4.6,4.6,0,0,0-5.41,3.6c0,.16-.05.33-.07.5A4.5,4.5,0,0,0,211.58,23.37Z" transform="translate(-2.39 -0.39)"/>
    <path class="35cb2d25-766c-45b1-bb17-6402347cccd3" d="M269.33,23.37h4.13c9.86.25,16.5,4.87,16.5,8.27s-6.64,8-16.5,8.24h-4.13c-9.89-.22-16.51-4.84-16.51-8.24S259.44,23.68,269.33,23.37Z" transform="translate(-2.39 -0.39)"/>
    <path class="6c6df38e-414d-485f-a6d9-371f5d0e5048" d="M347.7,20.62c-3.67-1.87-17.79-8.57-31.62-2.73-2.27.95-13.23,5.58-13.75,13.75a15.08,15.08,0,0,0,5.51,11c12.68,11.85,37.57,2.3,39.8,1.38V57.76a5.75,5.75,0,0,0,11,0v-33a3.39,3.39,0,0,0,4.11-1.38,3.23,3.23,0,0,0,0-2.75,6.68,6.68,0,0,0-12.25,0Z" transform="translate(-2.39 -0.39)"/>
    <path class="35cb2d25-766c-45b1-bb17-6402347cccd3" d="M327.1,41.25h2.72c10.47-.15,17.76-4.62,17.88-8.23s-6.95-8.91-17.88-9.65H327.1c-9.65-.18-16.35,4.54-16.5,8.27S317,41,327.1,41.25Z" transform="translate(-2.39 -0.39)"/>
    <path class="6c6df38e-414d-485f-a6d9-371f5d0e5048" d="M365.52,20.62V38.5a26.93,26.93,0,0,0,8.27,8.26,29.67,29.67,0,0,0,16.5,4.14c4.59,0,14.69.21,22-6.89a22.79,22.79,0,0,0,4.1-5.51V20.62a5.66,5.66,0,0,0-5.48-2.73,5.82,5.82,0,0,0-4.13,2.73v16.5a25.4,25.4,0,0,1-31.62,0V20.62a5.71,5.71,0,0,0-5.52-2.73A5.9,5.9,0,0,0,365.52,20.62Z" transform="translate(-2.39 -0.39)"/>
    <path class="6c6df38e-414d-485f-a6d9-371f5d0e5048" d="M444,16.52A30.11,30.11,0,0,1,463.22,22a24.83,24.83,0,0,1,4.13,4.13V38.38A5.23,5.23,0,0,1,474,41.65a5.31,5.31,0,0,1,.25,2.24,7.58,7.58,0,0,1-2.76,2.75,9,9,0,0,1-9.61-1.38c-7.29,2.88-19.78,6.31-31.66,1.38-2.35-1-9.61-4-9.61-8.26s7.16-7.23,9.61-8.24a39.6,39.6,0,0,1,27.56,0A10.14,10.14,0,0,0,455,24.63c-2.48-2.39-5.6-2.54-11-2.76a16.17,16.17,0,0,0-9.64,1.38,12.48,12.48,0,0,0-4.14,4.13,4.36,4.36,0,0,1-4.1,2.76A4.47,4.47,0,0,1,422,26a5.17,5.17,0,0,1,0-2.76C424,16.33,442.06,16.49,444,16.52Z" transform="translate(-2.39 -0.39)"/>
    <path class="35cb2d25-766c-45b1-bb17-6402347cccd3" d="M441.23,34.4h4.14c7.16.85,12.24,2.54,12.24,4.1s-5.2,3.24-12.24,4.13h-4.14C434.07,41.74,429,40.09,429,38.5S434.07,35.25,441.23,34.4Z" transform="translate(-2.39 -0.39)"/>
  </g>
</svg>
