<svg xmlns="http://www.w3.org/2000/svg" viewBox="0 0 500 700">
  <defs>
    <style>
      .\36 b73506d-63ec-4c23-8e3f-4b86d0c70726 {
        fill: #cebaa3;
      }

      .\33 edc298a-2fc4-4c1d-b77e-030705615ad6, .ca8c1a11-1b76-4940-af85-eb1875a749f5 {
        font-size: 48px;
      }

      .\33 edc298a-2fc4-4c1d-b77e-030705615ad6 {
        font-family: FredokaOne-Regular, Fredoka One;
      }

      .\39 83822ee-c2fd-46cd-a2d2-663a741b2326 {
        letter-spacing: -0.02em;
      }

      .\35 75777a2-ce39-4b73-aaa1-fd4a2868ca5b {
        letter-spacing: -0.02em;
      }

      .f7fd1b10-fe2e-4881-b3a7-64e507968fb0 {
        letter-spacing: 0em;
      }

      .e7974c91-8975-489e-818b-14b8aab510b9 {
        font-size: 14px;
        font-family: MyriadPro-Regular, Myriad Pro;
      }

      .f49df6e3-caf3-46bb-b043-d5d7b84a71bb {
        fill: aqua;
        stroke: #000;
        stroke-miterlimit: 10;
      }

      .de99a1a8-fb11-423b-9196-d27870fab22a {
        fill: #232222;
      }

      .\39 09e1a37-1d0c-4157-a1db-65314d5a006c {
        fill: #234c13;
      }

      .\33 26dd89d-1374-422f-827f-c429958f2d68, .ca8c1a11-1b76-4940-af85-eb1875a749f5 {
        fill: #fff;
      }

      .ca8c1a11-1b76-4940-af85-eb1875a749f5 {
        font-family: ArialRoundedMTBold, Arial Rounded MT Bold;
      }

      .\39 0b2c47d-0947-49b9-9ec1-2669f3c23c68 {
        fill: #91e052;
      }

      .\35 c631d01-63d3-41be-b0d9-a711cf2b00b6 {
        fill: #ed18c7;
      }

      .\36 fff5b1b-b827-4d7c-9de1-fa8f0c47f905 {
        fill: #0ba9de;
      }

      .c3401606-7615-42d1-8515-71b5ed5e78f9 {
        fill: #bd5be6;
      }

      .b3be6fd9-c9da-4304-b7e3-e51956ed1d50 {
        fill: #e8e8e8;
      }

      .\36 eb9ed4f-445e-4cef-a622-5e1d14bf3b00 {
        fill: #212121;
      }
    </style>
  </defs>
  <title>Rock Dust Light star</title>
  <g id="6abb8160-7a52-41b0-9d15-9f9467df025c" data-name="Lag 7">
    <rect class="6b73506d-63ec-4c23-8e3f-4b86d0c70726" width="500" height="700"/>
  </g>
  <g id="e4f40d39-6d86-4851-a88e-f543d2d69fb4" data-name="AlbumBackground">
    <text class="3edc298a-2fc4-4c1d-b77e-030705615ad6" transform="translate(39 294.77)"><tspan class="983822ee-c2fd-46cd-a2d2-663a741b2326">R</tspan><tspan x="29.33" y="0">ock Du</tspan><tspan class="575777a2-ce39-4b73-aaa1-fd4a2868ca5b" x="183.7" y="0">s</tspan><tspan class="f7fd1b10-fe2e-4881-b3a7-64e507968fb0" x="206.4" y="0">t Light</tspan><tspan class="983822ee-c2fd-46cd-a2d2-663a741b2326" x="0" y="48">S</tspan><tspan x="27.02" y="48">tar</tspan></text>
    <text class="e7974c91-8975-489e-818b-14b8aab510b9" transform="translate(256 400.27)">1</text>
    <text class="e7974c91-8975-489e-818b-14b8aab510b9" transform="translate(256 420.27)">2</text>
    <text class="e7974c91-8975-489e-818b-14b8aab510b9" transform="translate(256 440.27)">3</text>
    <text class="e7974c91-8975-489e-818b-14b8aab510b9" transform="translate(256 460.27)">4</text>
    <text class="e7974c91-8975-489e-818b-14b8aab510b9" transform="translate(256 480.27)">5</text>
    <text class="e7974c91-8975-489e-818b-14b8aab510b9" transform="translate(256 500.27)">6</text>
    <text class="e7974c91-8975-489e-818b-14b8aab510b9" transform="translate(256 520.27)">7</text>
    <text class="e7974c91-8975-489e-818b-14b8aab510b9" transform="translate(256 540.27)">8</text>
    <text class="e7974c91-8975-489e-818b-14b8aab510b9" transform="translate(256 560.27)">9</text>
    <text class="e7974c91-8975-489e-818b-14b8aab510b9" transform="translate(256 580.27)">10</text>
    <text class="e7974c91-8975-489e-818b-14b8aab510b9" transform="translate(256 600.27)">11</text>
    <path class="f49df6e3-caf3-46bb-b043-d5d7b84a71bb" d="M90,458a53.92,53.92,0,0,1,7,8c.73,1,1.39,2,2,3,.15.82.29,1.89,0,2s-.84-.76-1-1c-.83-1.24-3.07-3.91-9-10l-1-1Z"/>
  </g>
  <g id="982c5a65-88a8-4adf-82c3-89565f770f2c" data-name="Categori">
    <rect class="de99a1a8-fb11-423b-9196-d27870fab22a" width="500" height="128"/>
    <rect class="909e1a37-1d0c-4157-a1db-65314d5a006c" x="26" y="43" width="199" height="57" rx="12" ry="12"/>
    <text class="ca8c1a11-1b76-4940-af85-eb1875a749f5" transform="translate(68 87)">2010</text>
  </g>
  <g id="6c51a39f-df3c-408b-8e4f-542386ea28bc" data-name="Lag 9">
    <rect class="de99a1a8-fb11-423b-9196-d27870fab22a" x="31" y="390" width="206" height="206"/>
    <g id="14d26e24-de6e-45c5-8940-16658d3a7634" data-name="Lag 26">
      <path class="90b2c47d-0947-49b9-9ec1-2669f3c23c68" d="M51,596l46-45H200l35,45h2v-2l-36-45H96L47,596Z"/>
      <path class="5c631d01-63d3-41be-b0d9-a711cf2b00b6" d="M68,596h3l35-42h-2Z"/>
      <path class="5c631d01-63d3-41be-b0d9-a711cf2b00b6" d="M219,596h2l-26-43h-2Z"/>
      <path class="6fff5b1b-b827-4d7c-9de1-fa8f0c47f905" d="M185,555l13,30H97l18-30h2L99,584h97l-12-29Z"/>
      <path class="c3401606-7615-42d1-8515-71b5ed5e78f9" d="M131,555h1l-5,15h50q-2-7.5-4-15h1q2.5,8,5,16H126Q128.51,563,131,555Z"/>
      <path class="b3be6fd9-c9da-4304-b7e3-e51956ed1d50" d="M135,559h1c-.33,2-.67,4-1,6h35c-.33-2-.67-4-1-6h1l1,7H134Z"/>
    </g>
    <g>
      <path class="326dd89d-1374-422f-827f-c429958f2d68" d="M43,403.44v.23c0,2.57,1,3.74-3,3.27a1.46,1.46,0,0,1-1.54-1.63c0-.24-1.2-.94-1.44.23s1.2,2.57,3.85,2.57c1,0,3.85.24,3.85-2.33v-2.34a.87.87,0,0,0-1-.74.88.88,0,0,0-.71.51Z"/>
      <path class="326dd89d-1374-422f-827f-c429958f2d68" d="M49.54,402.74s4.33-.23,4.58,2.33v1.4s-.25.47,1,.47c.24,0,.24.93-.48.93h-.73s-.48,0-.48-.23-.23-.23-.47,0c0,0-1,.7-4.34.47-3.85,0-4.33-4.44,3.37-3,0,0,.48.24.48-.23,0-1.63-4.82-1.4-5-.23-.72.93-1.69-.24-1-.94a6.07,6.07,0,0,1,2.89-.93Z"/>
      <path class="6eb9ed4f-445e-4cef-a622-5e1d14bf3b00" d="M49.79,405.54c.71,0,5.29,1.17,0,1.63-2.41,0-4.1-1.16-.49-1.63Z"/>
      <path class="326dd89d-1374-422f-827f-c429958f2d68" d="M55.8,403.91v3.5a.86.86,0,0,0,1.69,0v-2.8a3.68,3.68,0,0,1,4.33,0v2.8a.82.82,0,0,0,.24.46.94.94,0,0,0,1.2,0,.77.77,0,0,0,.24-.46v-2.8a3.77,3.77,0,0,1,2.41-.7,3.63,3.63,0,0,1,1.93.7v2.8a.88.88,0,0,0,1,.7.86.86,0,0,0,.72-.7v-3.27a3.4,3.4,0,0,0-1-.93,4.27,4.27,0,0,0-2.89-.47,5.93,5.93,0,0,0-2.14.7.65.65,0,0,1-.49.23.63.63,0,0,1-.48-.23,4.28,4.28,0,0,0-1.44-.7,4.77,4.77,0,0,0-2.89.24,5.64,5.64,0,0,0-1,.46A.79.79,0,0,0,57,403a.88.88,0,0,0-.49-.24h-1a.64.64,0,0,0-.49.7.64.64,0,0,0,.49.47Z"/>
      <path class="326dd89d-1374-422f-827f-c429958f2d68" d="M70.49,403.67v3.5a.94.94,0,0,0,.89,1,1,1,0,0,0,1-.86v-3.64a1,1,0,0,0-1-.86A.94.94,0,0,0,70.49,403.67Z"/>
      <path class="326dd89d-1374-422f-827f-c429958f2d68" d="M70.49,401.11a1,1,0,0,1,1.92,0v.23a1,1,0,0,1-1.92.14.33.33,0,0,1,0-.14Z"/>
      <path class="326dd89d-1374-422f-827f-c429958f2d68" d="M120.07,403.67v3.5a.94.94,0,0,0,.89,1,1,1,0,0,0,1-.86v-3.64a1,1,0,0,0-1.93,0Z"/>
      <path class="326dd89d-1374-422f-827f-c429958f2d68" d="M120.07,401.11a1,1,0,0,1,1.93,0v.23a.94.94,0,0,1-.89,1,1,1,0,0,1-1-.86v-.37Z"/>
      <path class="326dd89d-1374-422f-827f-c429958f2d68" d="M73.62,404.14v3.27a.87.87,0,0,0,.71.7.89.89,0,0,0,1-.7v-2.57a7.76,7.76,0,0,1,5.54-1.4c-.21.15-1.67,1.27-1.45,2.57a1.93,1.93,0,0,0,.48.93c1.75,2,7.42,1.79,8.67-.47a1.68,1.68,0,0,0,.24-.93c-.11-1.63-3.06-2.59-3.61-2.8-4.58-1.6-10.06.92-10.11.93a1.3,1.3,0,0,0-.48-.69,1.35,1.35,0,0,0-.73-.24.8.8,0,0,0-.94.61s0,.06,0,.09A.78.78,0,0,0,73.62,404.14Z"/>
      <path class="6eb9ed4f-445e-4cef-a622-5e1d14bf3b00" d="M83.72,404.14h.73c1.72,0,2.89.83,2.89,1.4s-1.17,1.36-2.89,1.4h-.73c-1.73,0-2.88-.82-2.88-1.4S82,404.19,83.72,404.14Z"/>
      <path class="326dd89d-1374-422f-827f-c429958f2d68" d="M97.44,403.67a7.05,7.05,0,0,0-5.53-.46c-.4.16-2.32,1-2.41,2.33a2.53,2.53,0,0,0,1,1.87c2.21,2,6.57.39,7,.23V410a1,1,0,0,0,1.26.65,1,1,0,0,0,.67-.65v-5.6a.61.61,0,0,0,.72-.23.55.55,0,0,0,0-.47,1.2,1.2,0,0,0-1.54-.59,1.15,1.15,0,0,0-.6.59Z"/>
      <path class="6eb9ed4f-445e-4cef-a622-5e1d14bf3b00" d="M93.84,407.17h.47c1.84,0,3.11-.78,3.13-1.39s-1.21-1.52-3.13-1.64h-.47c-1.69,0-2.87.77-2.89,1.4S92.06,407.13,93.84,407.17Z"/>
      <path class="326dd89d-1374-422f-827f-c429958f2d68" d="M100.56,403.67v3a4.73,4.73,0,0,0,1.45,1.4,5.37,5.37,0,0,0,2.89.7,5.43,5.43,0,0,0,3.85-1.17,3.8,3.8,0,0,0,.72-.93v-3a1,1,0,0,0-1-.46,1,1,0,0,0-.72.46v2.8a4.56,4.56,0,0,1-5.54,0v-2.8a1,1,0,0,0-1-.46A1,1,0,0,0,100.56,403.67Z"/>
      <path class="326dd89d-1374-422f-827f-c429958f2d68" d="M114.3,403a5.35,5.35,0,0,1,3.36.93,4.39,4.39,0,0,1,.73.7v2.07a.94.94,0,0,1,1.16.56.81.81,0,0,1,0,.38,1.35,1.35,0,0,1-.48.47,1.62,1.62,0,0,1-1.68-.24,7.78,7.78,0,0,1-5.55.24c-.41-.17-1.68-.68-1.68-1.41s1.26-1.22,1.68-1.39a7.15,7.15,0,0,1,4.83,0,1.81,1.81,0,0,0-.48-.94c-.44-.4-1-.43-1.93-.46a2.9,2.9,0,0,0-1.69.23,2.1,2.1,0,0,0-.72.7.78.78,0,0,1-.72.47.77.77,0,0,1-.72-.7.94.94,0,0,1,0-.47C110.8,403,114,403,114.3,403Z"/>
      <path class="6eb9ed4f-445e-4cef-a622-5e1d14bf3b00" d="M113.81,406h.73c1.25.14,2.14.43,2.14.7s-.91.55-2.14.7h-.73c-1.25-.15-2.14-.43-2.14-.7S112.56,406.15,113.81,406Z"/>
    </g>
  </g>
</svg>
