<svg xmlns="http://www.w3.org/2000/svg" viewBox="0 0 500 700">
  <defs>
    <style>
      .\35 ff0857a-0adb-4e90-a70c-b2b953df7d5d {
        fill: #cebaa3;
      }

      .\32 51a7e64-b5ce-43a1-be4c-33c2acf1d759, .\33 e1fb6a4-fa70-468f-bfbc-4db7bf8c02df {
        font-size: 48px;
      }

      .\33 e1fb6a4-fa70-468f-bfbc-4db7bf8c02df {
        font-family: FredokaOne-Regular, Fredoka One;
      }

      .\39 2af3dae-f7e6-4f45-98e1-09efa6ca72e7 {
        letter-spacing: -0.04em;
      }

      .c98eaee9-5e4d-4d6b-867d-0cf4bee3e9d2 {
        letter-spacing: -0.01em;
      }

      .\32 830adf4-68c0-478e-9b69-22b5e7764eb8 {
        letter-spacing: -0.03em;
      }

      .adcb0332-11a4-4958-9ffe-93cdbd4dccd1 {
        font-size: 14px;
        font-family: MyriadPro-Regular, Myriad Pro;
      }

      .f2255d02-4aa7-4896-bf9e-0de525480272 {
        fill: aqua;
        stroke: #000;
        stroke-miterlimit: 10;
      }

      .\37 853590d-7f34-4c15-8b28-f28a5c266465 {
        fill: #2fa7cc;
      }

      .c4e01ea9-9fb4-4ddc-907a-f52f46522d8a {
        fill: #234c13;
      }

      .\32 51a7e64-b5ce-43a1-be4c-33c2acf1d759, .ce67bddb-9a1c-455f-94ba-70756a07379d {
        fill: #fff;
      }

      .\32 51a7e64-b5ce-43a1-be4c-33c2acf1d759 {
        font-family: ArialRoundedMTBold, Arial Rounded MT Bold;
      }

      .d02d50b8-186c-42d1-999e-d42c47c73a3e {
        fill: #4c4c4c;
      }
    </style>
  </defs>
  <title>Synkronized</title>
  <g id="78d65ac2-cb44-4566-88db-c503080c396a" data-name="Lag 7">
    <rect class="5ff0857a-0adb-4e90-a70c-b2b953df7d5d" width="500" height="700"/>
  </g>
  <g id="ae4d09b5-3c7b-4419-952b-589c9303e919" data-name="AlbumBackground">
    <text class="3e1fb6a4-fa70-468f-bfbc-4db7bf8c02df" transform="translate(39 294.77)"><tspan class="92af3dae-f7e6-4f45-98e1-09efa6ca72e7">S</tspan><tspan class="c98eaee9-5e4d-4d6b-867d-0cf4bee3e9d2" x="26.06" y="0">y</tspan><tspan x="54.58" y="0">nk</tspan><tspan class="2830adf4-68c0-478e-9b69-22b5e7764eb8" x="109.39" y="0">r</tspan><tspan x="129.89" y="0">oni</tspan><tspan class="2830adf4-68c0-478e-9b69-22b5e7764eb8" x="200.01" y="0">z</tspan><tspan x="226.7" y="0">ed</tspan></text>
    <text class="adcb0332-11a4-4958-9ffe-93cdbd4dccd1" transform="translate(256 400.27)">1</text>
    <text class="adcb0332-11a4-4958-9ffe-93cdbd4dccd1" transform="translate(256 420.27)">2</text>
    <text class="adcb0332-11a4-4958-9ffe-93cdbd4dccd1" transform="translate(256 440.27)">3</text>
    <text class="adcb0332-11a4-4958-9ffe-93cdbd4dccd1" transform="translate(256 460.27)">4</text>
    <text class="adcb0332-11a4-4958-9ffe-93cdbd4dccd1" transform="translate(256 480.27)">5</text>
    <text class="adcb0332-11a4-4958-9ffe-93cdbd4dccd1" transform="translate(256 500.27)">6</text>
    <text class="adcb0332-11a4-4958-9ffe-93cdbd4dccd1" transform="translate(256 520.27)">7</text>
    <text class="adcb0332-11a4-4958-9ffe-93cdbd4dccd1" transform="translate(256 540.27)">8</text>
    <text class="adcb0332-11a4-4958-9ffe-93cdbd4dccd1" transform="translate(256 560.27)">9</text>
    <text class="adcb0332-11a4-4958-9ffe-93cdbd4dccd1" transform="translate(256 580.27)">10</text>
    <text class="adcb0332-11a4-4958-9ffe-93cdbd4dccd1" transform="translate(256 600.27)">11</text>
    <path class="f2255d02-4aa7-4896-bf9e-0de525480272" d="M90,458a53.92,53.92,0,0,1,7,8c.73,1,1.39,2,2,3,.15.82.29,1.89,0,2s-.84-.76-1-1c-.83-1.24-3.07-3.91-9-10l-1-1Z"/>
  </g>
  <g id="ada0d26e-0a32-45d9-a24e-81ddc4acc5a7" data-name="Categori">
    <rect class="7853590d-7f34-4c15-8b28-f28a5c266465" width="500" height="128"/>
    <rect class="c4e01ea9-9fb4-4ddc-907a-f52f46522d8a" x="26" y="43" width="199" height="57" rx="12" ry="12"/>
    <text class="251a7e64-b5ce-43a1-be4c-33c2acf1d759" transform="translate(68 87)">1999</text>
  </g>
  <g id="409a9504-2421-4bcd-84dc-7e435c29268e" data-name="Lag 9">
    <rect class="d02d50b8-186c-42d1-999e-d42c47c73a3e" x="31" y="390" width="206" height="206"/>
    <g>
      <path class="ce67bddb-9a1c-455f-94ba-70756a07379d" d="M76.68,420.83v.34c0,3.68,1.38,5.35-4.37,4.68a2.13,2.13,0,0,1-2.21-2c0-.1,0-.2,0-.3,0-.33-1.73-1.34-2.07.34s1.73,3.68,5.53,3.68c1.37,0,5.52.35,5.52-3.35v-3.35a1.25,1.25,0,0,0-1.4-1.07,1.27,1.27,0,0,0-1,.74Z"/>
      <path class="ce67bddb-9a1c-455f-94ba-70756a07379d" d="M86,419.83s6.21-.33,6.56,3.35v2s-.35.67,1.38.67c.35,0,.35,1.35-.69,1.35h-1s-.69,0-.69-.34-.34-.34-.69,0c0,0-1.38,1-6.22.67-5.53,0-6.21-6.36,4.84-4.35,0,0,.69.33.69-.34,0-2.34-6.92-2-7.25-.33-1,1.34-2.43-.34-1.39-1.34a8.57,8.57,0,0,1,4.15-1.34Z"/>
      <path class="d02d50b8-186c-42d1-999e-d42c47c73a3e" d="M86.35,423.85c1,0,7.6,1.67,0,2.34-3.45,0-5.88-1.67-.69-2.34Z"/>
      <path class="ce67bddb-9a1c-455f-94ba-70756a07379d" d="M95,421.5v5a1.28,1.28,0,0,0,1.38,1,1.24,1.24,0,0,0,1-1v-4a5.33,5.33,0,0,1,6.23,0v4a1.14,1.14,0,0,0,.34.68,1.37,1.37,0,0,0,1.73,0,1.2,1.2,0,0,0,.34-.68v-4a5.46,5.46,0,0,1,3.46-1,5.27,5.27,0,0,1,2.76,1v4a1.28,1.28,0,0,0,1.38,1,1.25,1.25,0,0,0,1-1v-4.68a4.93,4.93,0,0,0-1.39-1.34,6.14,6.14,0,0,0-4.14-.67,8.58,8.58,0,0,0-3.08,1,.91.91,0,0,1-.69.34.92.92,0,0,1-.69-.34,6.12,6.12,0,0,0-2.07-1,6.79,6.79,0,0,0-4.15.34,7.94,7.94,0,0,0-1.38.66,1.16,1.16,0,0,0-.35-.66,1.19,1.19,0,0,0-.69-.34H94.62a.91.91,0,0,0-.69,1,.87.87,0,0,0,.69.67Z"/>
      <path class="ce67bddb-9a1c-455f-94ba-70756a07379d" d="M116.06,421.17v5a1.37,1.37,0,0,0,1.28,1.44,1.38,1.38,0,0,0,1.49-1.24v-5.22a1.39,1.39,0,0,0-2.77,0Z"/>
      <path class="ce67bddb-9a1c-455f-94ba-70756a07379d" d="M116.06,417.48a1.39,1.39,0,0,1,2.77,0v.34a1.37,1.37,0,0,1-1.28,1.44,1.38,1.38,0,0,1-1.49-1.24v-.54Z"/>
      <path class="ce67bddb-9a1c-455f-94ba-70756a07379d" d="M187.23,421.17v5a1.37,1.37,0,0,0,1.28,1.44,1.38,1.38,0,0,0,1.49-1.24v-5.22a1.39,1.39,0,0,0-2.77,0Z"/>
      <path class="ce67bddb-9a1c-455f-94ba-70756a07379d" d="M187.23,417.48a1.38,1.38,0,0,1,1.49-1.23,1.36,1.36,0,0,1,1.28,1.23v.34a1.37,1.37,0,0,1-1.28,1.44,1.38,1.38,0,0,1-1.49-1.24v-.54Z"/>
      <path class="ce67bddb-9a1c-455f-94ba-70756a07379d" d="M120.56,421.84v4.68a1.23,1.23,0,0,0,1,1,1.27,1.27,0,0,0,1.38-1v-3.68a11.16,11.16,0,0,1,7.95-2c-.3.22-2.4,1.82-2.07,3.69a2.61,2.61,0,0,0,.68,1.33c2.52,2.82,10.65,2.57,12.44-.67a2.31,2.31,0,0,0,.35-1.33c-.16-2.34-4.4-3.73-5.18-4-6.57-2.3-14.45,1.32-14.52,1.34a1.71,1.71,0,0,0-.69-1,1.82,1.82,0,0,0-1-.34,1.14,1.14,0,0,0-1.35.88.5.5,0,0,0,0,.12A1.12,1.12,0,0,0,120.56,421.84Z"/>
      <path class="d02d50b8-186c-42d1-999e-d42c47c73a3e" d="M135.06,421.84h1c2.48.06,4.15,1.18,4.15,2s-1.67,1.95-4.15,2h-1c-2.48-.05-4.14-1.17-4.14-2S132.58,421.91,135.06,421.84Z"/>
      <path class="ce67bddb-9a1c-455f-94ba-70756a07379d" d="M154.75,421.17c-.92-.46-4.47-2.09-7.94-.67-.57.23-3.33,1.36-3.46,3.35a3.64,3.64,0,0,0,1.39,2.67c3.18,2.89,9.44.56,10,.34v3.35a1.44,1.44,0,0,0,1.8.93,1.42,1.42,0,0,0,1-.93v-8a.88.88,0,0,0,1-.33.79.79,0,0,0,0-.67,1.7,1.7,0,0,0-2.21-.85,1.68,1.68,0,0,0-.87.85Z"/>
      <path class="d02d50b8-186c-42d1-999e-d42c47c73a3e" d="M149.58,426.19h.68c2.63,0,4.46-1.13,4.49-2s-1.74-2.16-4.49-2.34h-.68c-2.43,0-4.11,1.1-4.15,2S147,426.12,149.58,426.19Z"/>
      <path class="ce67bddb-9a1c-455f-94ba-70756a07379d" d="M159.23,421.17v4.35a6.66,6.66,0,0,0,2.08,2,7.67,7.67,0,0,0,4.14,1c1.16,0,3.69,0,5.53-1.68a5.57,5.57,0,0,0,1-1.34v-4.35a1.42,1.42,0,0,0-1.37-.67,1.46,1.46,0,0,0-1,.67v4a6.56,6.56,0,0,1-7.95,0v-4a1.44,1.44,0,0,0-1.38-.67A1.48,1.48,0,0,0,159.23,421.17Z"/>
      <path class="ce67bddb-9a1c-455f-94ba-70756a07379d" d="M178.94,420.17a7.77,7.77,0,0,1,4.83,1.33,5.86,5.86,0,0,1,1,1v3a1.32,1.32,0,0,1,1.67.8,1.24,1.24,0,0,1,.06.54,1.78,1.78,0,0,1-.69.67,2.32,2.32,0,0,1-2.41-.33c-1.84.7-5,1.53-8,.33-.59-.24-2.41-1-2.41-2s1.8-1.76,2.41-2a10.28,10.28,0,0,1,6.92,0,2.45,2.45,0,0,0-.69-1.34c-.62-.58-1.41-.62-2.76-.67a4.19,4.19,0,0,0-2.42.34,3,3,0,0,0-1,1,1.08,1.08,0,0,1-2.07-.33,1.27,1.27,0,0,1,0-.67C173.92,420.12,178.46,420.16,178.94,420.17Z"/>
      <path class="d02d50b8-186c-42d1-999e-d42c47c73a3e" d="M178.25,424.52h1c1.8.21,3.08.62,3.08,1s-1.31.79-3.08,1h-1c-1.8-.21-3.08-.61-3.08-1S176.45,424.73,178.25,424.52Z"/>
    </g>
    <path class="7853590d-7f34-4c15-8b28-f28a5c266465" d="M153.67,460.82c4.39,1.68,8.83,2.18,11.35.85,2.79-2.24.89-7.29-4.78-10.62,1.1.43,12,5.91,14.95,13.4a8.43,8.43,0,0,1,.41,5.66,5.08,5.08,0,0,1-2.54,3.62c-5.48,3-16.85-1.27-17.76-1.54l-1,.57a5.6,5.6,0,0,1,1.88,1.79,2.64,2.64,0,0,1,.44,1.19.35.35,0,0,1-.15.44c-.39.17-1.55-.33-2.87-1.23,1.19,1.39,1.38,2.6.73,2.77s-2.56-.58-4.16-2.12c.36.77-.2,1.37-1.25,1.37a3.43,3.43,0,0,1-1.44-.35l-.25.88c1.05.34,10.34,4.67,12.58,11.6a8.77,8.77,0,0,1,.05,5.77q-3.66,8-7.27,16a26.82,26.82,0,0,0-.16,12.7l-.84.49a25,25,0,0,1,7.19,8.94.77.77,0,0,1,.23.81h0c-.12.22-.41.19-.65-.05-1.25-.88-2.48-1.84-3.68-2.85l-.87-.74a.72.72,0,0,1,.25.79c-.11.22-.4.23-.65,0-1.07-.88-1.61-1.31-2.7-2.12a8.89,8.89,0,0,0-1-1.83,9.39,9.39,0,0,0-1.23-1.36,1.76,1.76,0,0,0-.66.1,1.72,1.72,0,0,0-1,1q-4.19,8.73-8.19,17.56a36.13,36.13,0,0,0-3.75,14.6,56.49,56.49,0,0,0,0,7.13,1.72,1.72,0,0,1-.48.17,1.67,1.67,0,0,1-.77,0,4.71,4.71,0,0,1-.6,4.52,2.14,2.14,0,0,1-2.1.6,2.74,2.74,0,0,1-1.73-1.7,39.8,39.8,0,0,0-4-6.59c.21-.7.32-1,.54-1.75l-.84-.79a26,26,0,0,0,1.57-5.29c.46-2.63.17-3.92.8-7a34.74,34.74,0,0,1,1-3.53c.37-1.31,2.19-7,3.49-12.38.53-1.86,1.39-5.81,1.14-5.9s-1.11,1.87-4.06,11.25a129.31,129.31,0,0,0-4.14,15.54c-.63,3-1.15,5.89-1.6,8.62-.65-.2-1-.29-1.63-.46a2.08,2.08,0,0,1-.34,1.33c-.54.62-1.41-.22-2.7-.09a4.35,4.35,0,0,0-2.62,1.5,8.3,8.3,0,0,1-2.35.31,7.91,7.91,0,0,1-2.56-.39,1.23,1.23,0,0,1-.58-.86c-.19-1.06.87-2.89,2.87-4.17-.38-.36-.57-.53-1-.88a53.52,53.52,0,0,0,2.48-5,42.17,42.17,0,0,0,2-5.85c.24-1.61.63-4.12,1.1-7.22.8-5.23.79-5.17,1-6.33.81-3.7,1.6-5,2.41-9l.58-3.61a.77.77,0,0,0-.52,0c-.3.1-.39.37-.68.88s-.48.84-.66.88c-.49.12-1.21-1.08-1.41-1.39a1.29,1.29,0,0,0-.35-1.34,2,2,0,0,0-1.59-.42,12.29,12.29,0,0,0-2.78.63,14.37,14.37,0,0,0-3.4,1.74c-1.16.46-2.06.35-2.17-.07s.53-.95.59-1a15.94,15.94,0,0,1,8.85-5.83,26.53,26.53,0,0,1,4.39-15.39,25.36,25.36,0,0,0,1.4-5.41,21.56,21.56,0,0,0,.1-5.44c-.77-5.12,2.88-10.6,10.12-13.06a9.94,9.94,0,0,1-2.92-.75,5.12,5.12,0,0,1-2.05-1.52,23.14,23.14,0,0,0-2.38.38c-1.45.3-2,.56-2.34.43s-.49-.53.23-1.81c-1.69.27-2.15.2-2.34.06s0-.22,0-.44a1,1,0,0,0-.68-.87,45.41,45.41,0,0,1-14.33,2,13.5,13.5,0,0,1-6.52-1.81c-1.48-2.33-1.34-5.35.67-8.64,2.44-3.83,7.22-7.7,13.38-10.1-7.27,4.83-7.47,9.51-4,10.42,2.94.83,8.31-.58,9.19-.8-.9-.36-1.84-.8-1.56-1.21.47-.65,3.81-.56,4.32-1.22s-1.92-1.11-1.51-1.7c.21-.31,1.36-.74,5.16-.65-2.47-1.09-3.56-1.75-3.16-2.16s4-.76,10.2.56A17.44,17.44,0,0,1,136,454.5c2.33-1.09,3.19-1,3.65-.94a3.54,3.54,0,0,1,1.6.72,16,16,0,0,0,1.68.3c2.5.27,3.92-.31,4.38,0s.24.65-1.36,2c1.14.15,2.28.28,3.4.39,2,.19,3,.18,3.37.53s-.82.8-.49,1.76A3.22,3.22,0,0,0,153.67,460.82Z"/>
  </g>
</svg>
