<svg xmlns="http://www.w3.org/2000/svg" xmlns:xlink="http://www.w3.org/1999/xlink" viewBox="0 0 500 700">
  <defs>
    <style>
      .b471c75d-80d6-45e9-8033-09f23ae2777a {
        fill: none;
      }

      .c0ec1f1d-0d50-47cd-9974-738e9399a3e5 {
        fill: #cebaa3;
      }

      .\30 894042d-c3e2-4e6b-9af7-da9c36fc9e90, .\37 2326270-1d92-4d66-bc41-46d0d3514882 {
        font-size: 48px;
      }

      .\37 2326270-1d92-4d66-bc41-46d0d3514882 {
        font-family: FredokaOne-Regular, Fredoka One;
      }

      .e72c0450-26cd-4e37-a065-fb28bca2a06a {
        letter-spacing: -0.12em;
      }

      .b10c5fef-082f-4705-84ca-8679e702d3e4 {
        letter-spacing: -0.03em;
      }

      .\36 baaf40f-3a76-457a-bb7c-4cbef575f62a {
        letter-spacing: -0.02em;
      }

      .f7500238-f409-4eea-9645-4dae65a04aff {
        letter-spacing: -0.03em;
      }

      .\35 dd864ae-bd03-4d8f-9dc7-2386548add1c {
        letter-spacing: -0.03em;
      }

      .\33 6ea347b-f51f-4ef3-ac24-3e406f967131 {
        font-size: 14px;
        font-family: MyriadPro-Regular, Myriad Pro;
      }

      .\32 906f0ff-a5f1-4e7a-889b-5f33a58b8f6b {
        fill: #506091;
      }

      .\35 fac8463-3b75-4c07-915a-81bcd858398d {
        fill: #234c13;
      }

      .\30 894042d-c3e2-4e6b-9af7-da9c36fc9e90, .caadf9ba-d809-4845-b6d5-931e5b77740c {
        fill: #fff;
      }

      .\30 894042d-c3e2-4e6b-9af7-da9c36fc9e90 {
        font-family: ArialRoundedMTBold, Arial Rounded MT Bold;
      }

      .f9973be3-8d41-4b4e-8044-b9b116ac349e {
        fill: #232323;
      }

      .\35 fcd34fd-aea3-40d5-a197-f0c5b81821a1 {
        clip-path: url(#fed4f5c3-0590-4965-86a9-583a579624bd);
      }

      .\37 99a1c7f-47bb-4058-9a6e-24fe986050a3 {
        fill: #f9b51c;
        stroke-width: 2px;
      }

      .\37 99a1c7f-47bb-4058-9a6e-24fe986050a3, .f2db77d2-d6a6-4d3b-b207-4992f668d60f {
        stroke: #000;
        stroke-miterlimit: 10;
      }

      .\32 9943019-e7af-447d-a7e0-30dd341a14cc {
        fill: #246d53;
      }

      .\33 7c2b2e4-f550-429f-b4f9-e3c4fbeb414e {
        fill: #af2539;
      }

      .f2db77d2-d6a6-4d3b-b207-4992f668d60f {
        stroke-width: 0.5px;
      }
    </style>
    <clipPath id="fed4f5c3-0590-4965-86a9-583a579624bd">
      <ellipse class="b471c75d-80d6-45e9-8033-09f23ae2777a" cx="135" cy="535" rx="146" ry="116"/>
    </clipPath>
  </defs>
  <title>Travelling without moving</title>
  <g id="a77b18d0-0b39-46b0-9c7b-40c69837e4bb" data-name="Lag 7">
    <rect class="c0ec1f1d-0d50-47cd-9974-738e9399a3e5" width="500" height="700"/>
  </g>
  <g id="3aeb8a52-c05f-4d55-a659-1c4ce2dad799" data-name="AlbumBackground">
    <text class="72326270-1d92-4d66-bc41-46d0d3514882" transform="translate(39 294.77)"><tspan class="e72c0450-26cd-4e37-a065-fb28bca2a06a">T</tspan><tspan class="b10c5fef-082f-4705-84ca-8679e702d3e4" x="29.33" y="0">r</tspan><tspan class="6baaf40f-3a76-457a-bb7c-4cbef575f62a" x="49.82" y="0">a</tspan><tspan class="f7500238-f409-4eea-9645-4dae65a04aff" x="77.71" y="0">v</tspan><tspan x="106.89" y="0">elling </tspan><tspan class="b10c5fef-082f-4705-84ca-8679e702d3e4" x="0" y="48">W</tspan><tspan x="46.51" y="48">ithout M</tspan><tspan class="5dd864ae-bd03-4d8f-9dc7-2386548add1c" x="242.69" y="48">o</tspan><tspan x="270.04" y="48">ving</tspan></text>
    <text class="36ea347b-f51f-4ef3-ac24-3e406f967131" transform="translate(256 400.27)">1</text>
    <text class="36ea347b-f51f-4ef3-ac24-3e406f967131" transform="translate(256 420.27)">2</text>
    <text class="36ea347b-f51f-4ef3-ac24-3e406f967131" transform="translate(256 440.27)">3</text>
    <text class="36ea347b-f51f-4ef3-ac24-3e406f967131" transform="translate(256 460.27)">4</text>
    <text class="36ea347b-f51f-4ef3-ac24-3e406f967131" transform="translate(256 480.27)">5</text>
    <text class="36ea347b-f51f-4ef3-ac24-3e406f967131" transform="translate(256 500.27)">6</text>
    <text class="36ea347b-f51f-4ef3-ac24-3e406f967131" transform="translate(256 520.27)">7</text>
    <text class="36ea347b-f51f-4ef3-ac24-3e406f967131" transform="translate(256 540.27)">8</text>
    <text class="36ea347b-f51f-4ef3-ac24-3e406f967131" transform="translate(256 560.27)">9</text>
    <text class="36ea347b-f51f-4ef3-ac24-3e406f967131" transform="translate(256 580.27)">10</text>
    <text class="36ea347b-f51f-4ef3-ac24-3e406f967131" transform="translate(256 600.27)">11</text>
  </g>
  <g id="02235939-288c-4501-b12a-c09fea831651" data-name="Categori">
    <rect class="2906f0ff-a5f1-4e7a-889b-5f33a58b8f6b" width="500" height="128"/>
    <rect class="5fac8463-3b75-4c07-915a-81bcd858398d" x="26" y="43" width="199" height="57" rx="12" ry="12"/>
    <text class="0894042d-c3e2-4e6b-9af7-da9c36fc9e90" transform="translate(68 87)">1996</text>
  </g>
  <g id="db3589df-8f67-404d-8473-43220218675f" data-name="Lag 9">
    <rect class="f9973be3-8d41-4b4e-8044-b9b116ac349e" x="31" y="390" width="206" height="206"/>
    <g class="5fcd34fd-aea3-40d5-a197-f0c5b81821a1">
      <rect class="2906f0ff-a5f1-4e7a-889b-5f33a58b8f6b" x="31" y="390" width="206" height="206"/>
    </g>
    <g id="fa7c45b5-820b-450e-ac08-9a573730d7b5" data-name="Lag 10">
      <rect class="799a1c7f-47bb-4058-9a6e-24fe986050a3" x="101" y="444" width="68" height="115"/>
    </g>
    <g id="57c1ee0b-fdf9-4178-a57d-3432199c049e" data-name="Lag 11">
      <rect class="29943019-e7af-447d-a7e0-30dd341a14cc" x="102" y="445" width="66" height="6"/>
      <rect class="caadf9ba-d809-4845-b6d5-931e5b77740c" x="102" y="451" width="66" height="6"/>
      <rect class="37c2b2e4-f550-429f-b4f9-e3c4fbeb414e" x="102" y="457" width="66" height="6"/>
    </g>
    <g>
      <path class="caadf9ba-d809-4845-b6d5-931e5b77740c" d="M87,405.57v.3c0,3.35,1.22,4.87-3.85,4.26a1.9,1.9,0,0,1-2-1.85,2.44,2.44,0,0,1,0-.27c0-.31-1.52-1.22-1.83.3s1.53,3.35,4.88,3.35c1.21,0,4.86.32,4.86-3v-3.05a1.1,1.1,0,0,0-1.23-1,1.08,1.08,0,0,0-.89.67Z"/>
      <path class="caadf9ba-d809-4845-b6d5-931e5b77740c" d="M95.26,404.66s5.47-.31,5.78,3v1.82s-.31.61,1.22.61c.3,0,.3,1.22-.61,1.22h-.92s-.61,0-.61-.3-.29-.31-.6,0c0,0-1.22.91-5.48.61-4.88,0-5.48-5.79,4.26-4,0,0,.61.31.61-.3,0-2.13-6.1-1.83-6.39-.31-.92,1.22-2.14-.3-1.22-1.22A7.44,7.44,0,0,1,95,404.66Z"/>
      <path class="f9973be3-8d41-4b4e-8044-b9b116ac349e" d="M95.56,408.31c.91,0,6.7,1.52,0,2.13-3,0-5.18-1.52-.61-2.13Z"/>
      <path class="caadf9ba-d809-4845-b6d5-931e5b77740c" d="M103.17,406.18v4.56a1.13,1.13,0,0,0,1.22.92,1.12,1.12,0,0,0,.91-.92v-3.65a4.57,4.57,0,0,1,5.49,0v3.65a1.06,1.06,0,0,0,.29.61,1.17,1.17,0,0,0,1.53,0,1,1,0,0,0,.3-.61v-3.65a4.7,4.7,0,0,1,3-.91,4.62,4.62,0,0,1,2.44.91v3.65a1.11,1.11,0,0,0,1.21.92,1.13,1.13,0,0,0,.92-.92v-4.26a4.53,4.53,0,0,0-1.22-1.21,5.26,5.26,0,0,0-3.66-.61,7.31,7.31,0,0,0-2.71.91.76.76,0,0,1-.61.3.8.8,0,0,1-.61-.3,5,5,0,0,0-1.82-.91,5.82,5.82,0,0,0-3.66.3,7.31,7.31,0,0,0-1.22.61,1.1,1.1,0,0,0-.3-.61,1.07,1.07,0,0,0-.61-.3h-1.26a.81.81,0,0,0-.61.91.79.79,0,0,0,.61.61Z"/>
      <path class="caadf9ba-d809-4845-b6d5-931e5b77740c" d="M121.75,405.87v4.57a1.22,1.22,0,1,0,2.43.18v-4.75a1.22,1.22,0,0,0-1.31-1.12A1.2,1.2,0,0,0,121.75,405.87Z"/>
      <path class="caadf9ba-d809-4845-b6d5-931e5b77740c" d="M121.75,402.52a1.22,1.22,0,0,1,2.43,0v.31a1.22,1.22,0,1,1-2.43.18.54.54,0,0,1,0-.18Z"/>
      <path class="caadf9ba-d809-4845-b6d5-931e5b77740c" d="M184.46,405.87v4.57a1.22,1.22,0,0,0,2.44.18v-4.75a1.22,1.22,0,0,0-2.44,0Z"/>
      <path class="caadf9ba-d809-4845-b6d5-931e5b77740c" d="M184.46,402.52a1.22,1.22,0,0,1,2.44,0v.31a1.22,1.22,0,0,1-2.44.18v-.49Z"/>
      <path class="caadf9ba-d809-4845-b6d5-931e5b77740c" d="M125.7,406.48v4.26a1.07,1.07,0,0,0,2.13,0V407.4a9.54,9.54,0,0,1,7-1.83c-.25.19-2.1,1.65-1.82,3.35a2.52,2.52,0,0,0,.6,1.21c2.22,2.57,9.38,2.34,11-.61a2.13,2.13,0,0,0,.31-1.21c-.14-2.13-3.87-3.39-4.56-3.65-5.79-2.1-12.73,1.2-12.79,1.21a1.72,1.72,0,0,0-.61-.91,1.6,1.6,0,0,0-.92-.3,1,1,0,0,0-1.19.79.5.5,0,0,0,0,.12A1,1,0,0,0,125.7,406.48Z"/>
      <path class="f9973be3-8d41-4b4e-8044-b9b116ac349e" d="M138.49,406.48h.91c2.19.06,3.66,1.08,3.66,1.83s-1.47,1.78-3.66,1.82h-.91c-2.19,0-3.66-1.07-3.66-1.82S136.3,406.55,138.49,406.48Z"/>
      <path class="caadf9ba-d809-4845-b6d5-931e5b77740c" d="M155.84,405.87c-.81-.41-3.94-1.9-7-.6-.5.21-2.93,1.23-3.05,3a3.37,3.37,0,0,0,1.22,2.43c2.81,2.63,8.32.51,8.82.31v3a1.27,1.27,0,0,0,1.58.86,1.32,1.32,0,0,0,.86-.86v-7.3a.74.74,0,0,0,.9-.31.66.66,0,0,0,0-.61,1.48,1.48,0,0,0-1.94-.77,1.52,1.52,0,0,0-.77.77Z"/>
      <path class="f9973be3-8d41-4b4e-8044-b9b116ac349e" d="M151.28,410.44h.6c2.32,0,3.93-1,4-1.82s-1.54-2-4-2.14h-.6c-2.14,0-3.62,1-3.66,1.83S149,410.38,151.28,410.44Z"/>
      <path class="caadf9ba-d809-4845-b6d5-931e5b77740c" d="M159.78,405.87v4a6,6,0,0,0,1.83,1.83,8.23,8.23,0,0,0,8.53-.61,5.18,5.18,0,0,0,.91-1.22v-4a1.24,1.24,0,0,0-1.21-.6,1.27,1.27,0,0,0-.92.6v3.65a5.62,5.62,0,0,1-7,0v-3.65a1.26,1.26,0,0,0-1.22-.6A1.32,1.32,0,0,0,159.78,405.87Z"/>
      <path class="caadf9ba-d809-4845-b6d5-931e5b77740c" d="M177.16,405a6.66,6.66,0,0,1,4.25,1.22,5.28,5.28,0,0,1,.92.91v2.71a1.15,1.15,0,0,1,1.52,1.22,1.49,1.49,0,0,1-.61.61,2,2,0,0,1-2.13-.3,9.53,9.53,0,0,1-7,.3c-.53-.21-2.13-.89-2.13-1.83s1.58-1.6,2.13-1.82a8.77,8.77,0,0,1,6.1,0,2.32,2.32,0,0,0-.61-1.22c-.55-.53-1.24-.56-2.44-.61a3.63,3.63,0,0,0-2.13.3,2.79,2.79,0,0,0-.92.92.94.94,0,0,1-1.82-.31,1.06,1.06,0,0,1,0-.61C172.73,404.92,176.73,405,177.16,405Z"/>
      <path class="f9973be3-8d41-4b4e-8044-b9b116ac349e" d="M176.55,408.92h.91c1.59.19,2.71.56,2.71.91s-1.15.72-2.71.91h-.91c-1.59-.19-2.72-.56-2.72-.91S175,409.11,176.55,408.92Z"/>
    </g>
    <path class="f2db77d2-d6a6-4d3b-b207-4992f668d60f" d="M137.48,477.16A3.58,3.58,0,0,0,141,475a3.66,3.66,0,0,0-2.4-4.53c.35,0,3.9.15,5.59,2.92a5.66,5.66,0,0,1,.8,2.66,5.74,5.74,0,0,1-.27,2.66c-1.19,3.37-5.27,4.2-5.59,4.26l-.26.53a1.55,1.55,0,0,1,.79.54,1.34,1.34,0,0,1,.27.53.32.32,0,0,1,0,.27c-.11.18-.54.2-1.06,0,.53.49.73,1.09.53,1.33s-.91.27-1.6-.27A.73.73,0,0,1,137,487v.53c.39,0,3.92.31,5.59,3.19a6,6,0,0,1,.8,2.92c-.08,3.46-.17,6.93-.27,10.39a13.68,13.68,0,0,0,2.13,6.38l-.26.54a11,11,0,0,1,4.79,1.33.26.26,0,0,1,.27.26h0a.27.27,0,0,1-.27.27,10.89,10.89,0,0,1-2.13.27h-.52a.27.27,0,1,1,0,.53h-1.59a3.59,3.59,0,0,0-.8-.53,3.77,3.77,0,0,0-.8-.27,1.38,1.38,0,0,0-.27.27,1.34,1.34,0,0,0-.26.8c-.18,3.82-.36,7.63-.53,11.45a16.62,16.62,0,0,0,1.34,8.55,15.94,15.94,0,0,0,2.13,3.46,1.72,1.72,0,0,1-.27.27,1.66,1.66,0,0,1-.53.27,2.11,2.11,0,0,1,1.07,2.39,2,2,0,0,1-1.34,1.06,2.42,2.42,0,0,1-1.86-.26l-4.82-2.41V537.6l-.8-.26a11.43,11.43,0,0,0,0-3.2c-.22-1.53-.65-2.19-.8-4a18.92,18.92,0,0,1,0-2.13c0-.78.12-4.25,0-7.46a17,17,0,0,0-.26-3.46c-.14,0-.28,1.23-.53,6.93a65.89,65.89,0,0,0,0,9.32c.11,1.78.29,3.47.53,5.06h-1.34a.87.87,0,0,1,0,.8c-.3.42-1.13.07-2.12.27a3.59,3.59,0,0,0-1.87,1.06,7,7,0,0,1-1.87.26,7.32,7.32,0,0,1-2.13-.26,1,1,0,0,1-.53-.53c-.22-.64.48-1.66,1.87-2.4l-.8-.53a17.46,17.46,0,0,0,1.33-2.92,16.38,16.38,0,0,0,.79-3.46v-8c.14-2.19.46-3,.54-5.32v-2.13a.32.32,0,0,0-.27,0c-.13.06-.16.22-.27.53s-.17.5-.26.53-.68-.62-.8-.8a.94.94,0,0,0-1.06-1.06,5,5,0,0,0-1.33.27,6,6,0,0,0-1.6.79c-.56.17-1,0-1.07-.26s.24-.51.27-.53a7.3,7.3,0,0,1,2.66-2.4,7.09,7.09,0,0,1,1.34-.54,19.9,19.9,0,0,1,1.06-9,18.9,18.9,0,0,0,.26-3.19,20.12,20.12,0,0,0-.26-3.2,8.37,8.37,0,0,1,2.92-8,2.09,2.09,0,0,1-1.07-.26,2.15,2.15,0,0,1-.8-.81c-.27.08-.54.17-.8.27-.49.2-.67.35-.8.27s-.19-.32,0-1.07c-.57.15-.73.09-.8,0s0-.13,0-.26a.79.79,0,0,0-.26-.53,5.67,5.67,0,0,1-4.8,0,5.29,5.29,0,0,1-2.13-2.14,8,8,0,0,1,.27-5.06,8.18,8.18,0,0,1,4-4.26c-2.1,2.23-2.19,4.89-1.06,5.84.94.83,2.64.35,2.91.26-.3-.26-.61-.58-.53-.8s1.2-.16,1.33-.54-.64-.73-.53-1.06.4-.34,1.6-.26c-.82-.66-1.17-1.1-1.07-1.34s1.21-.24,3.2.27a7.37,7.37,0,0,1,.8-1.06c.66-.77.92-.81,1.06-.8a.81.81,0,0,1,.54.27,2.35,2.35,0,0,0,.53,0c.78-.11,1.16-.65,1.33-.54s.12.34-.27,1.33a7.94,7.94,0,0,0,1.07-.26c.62-.21.92-.4,1.06-.27s-.18.59,0,1.06A1.11,1.11,0,0,0,137.48,477.16Z"/>
  </g>
</svg>
