<svg id="1ae47e39-a11f-4b74-9ae9-6f5baa7899ed" data-name="Lag 1" xmlns="http://www.w3.org/2000/svg" viewBox="0 0 595.28 841.89">
  <defs>
    <style>
      .\30 5560808-7d4e-4e34-8d3a-617a462b7f66 {
        font-size: 22px;
      }

      .\30 5560808-7d4e-4e34-8d3a-617a462b7f66, .da899654-0ce7-44ac-a551-8d11462651e9 {
        fill: #1d1d1b;
        font-family: MyriadPro-Regular, Myriad Pro;
      }

      .\30 3588643-cdc6-4c92-b8bc-c3e4b9d6d9dc {
        letter-spacing: 0.02em;
      }

      .\30 e0d6a62-5128-4048-8682-7d0116a3765d {
        letter-spacing: 0em;
      }

      .c7cba617-29a8-4646-8247-4514291cc265 {
        fill: #fff;
      }

      .c7cba617-29a8-4646-8247-4514291cc265, .e4ef51a5-d94d-41a8-973c-167b74dda573 {
        stroke: #1d1d1b;
        stroke-miterlimit: 10;
      }

      .e4ef51a5-d94d-41a8-973c-167b74dda573 {
        fill: none;
      }

      .f59adf92-b638-4e06-bcdc-02aa317bcbdc {
        letter-spacing: -0.01em;
      }

      .\31 9c46dec-fb61-443c-86d5-a4067bcfdbf1 {
        letter-spacing: 0em;
      }

      .da899654-0ce7-44ac-a551-8d11462651e9 {
        font-size: 19.92px;
      }

      .\39 dc49bf1-5e46-4b5e-bd60-ee79846449ec {
        letter-spacing: 0.02em;
      }

      .\33 5f6b223-6d75-4507-9121-e5bf3460a313 {
        letter-spacing: 0em;
      }

      .a0e5ba84-06e2-4e53-95e6-096402055648 {
        letter-spacing: -0.01em;
      }
    </style>
  </defs>
  <title>Wireframe</title>
  <text class="05560808-7d4e-4e34-8d3a-617a462b7f66" transform="translate(145 85.62)">Band name and sho<tspan class="03588643-cdc6-4c92-b8bc-c3e4b9d6d9dc" x="181.54" y="0">r</tspan><tspan x="189.26" y="0">t desc</tspan><tspan class="0e0d6a62-5128-4048-8682-7d0116a3765d" x="243.21" y="0">r</tspan><tspan x="250.49" y="0">iption</tspan></text>
  <rect class="c7cba617-29a8-4646-8247-4514291cc265" x="145" width="305.28" height="841.89"/>
  <rect class="e4ef51a5-d94d-41a8-973c-167b74dda573" x="145" y="50.5" width="305.28" height="58"/>
  <rect class="c7cba617-29a8-4646-8247-4514291cc265" x="145" y="176.6" width="305.28" height="665.29"/>
  <text class="05560808-7d4e-4e34-8d3a-617a462b7f66" transform="translate(225.5 203.5)">ablum <tspan class="f59adf92-b638-4e06-bcdc-02aa317bcbdc" x="63.45" y="0">c</tspan><tspan x="73.17" y="0">o</tspan><tspan class="19c46dec-fb61-443c-86d5-a4067bcfdbf1" x="85.25" y="0">n</tspan><tspan x="97.37" y="0">tainer</tspan></text>
  <g>
    <rect class="c7cba617-29a8-4646-8247-4514291cc265" x="166" y="226" width="261" height="359"/>
    <line class="c7cba617-29a8-4646-8247-4514291cc265" x1="427" y1="585" x2="166" y2="226"/>
    <line class="c7cba617-29a8-4646-8247-4514291cc265" x1="166" y1="585" x2="427" y2="226"/>
  </g>
  <g>
    <rect class="c7cba617-29a8-4646-8247-4514291cc265" x="166" y="272" width="261" height="359"/>
    <line class="c7cba617-29a8-4646-8247-4514291cc265" x1="427" y1="631" x2="166" y2="272"/>
    <line class="c7cba617-29a8-4646-8247-4514291cc265" x1="166" y1="631" x2="427" y2="272"/>
  </g>
  <g>
    <rect class="c7cba617-29a8-4646-8247-4514291cc265" x="166" y="318" width="261" height="359"/>
    <line class="c7cba617-29a8-4646-8247-4514291cc265" x1="427" y1="677" x2="166" y2="318"/>
    <line class="c7cba617-29a8-4646-8247-4514291cc265" x1="166" y1="677" x2="427" y2="318"/>
  </g>
  <g>
    <rect class="c7cba617-29a8-4646-8247-4514291cc265" x="166" y="369" width="261" height="359"/>
    <line class="c7cba617-29a8-4646-8247-4514291cc265" x1="427" y1="728" x2="166" y2="369"/>
    <line class="c7cba617-29a8-4646-8247-4514291cc265" x1="166" y1="728" x2="427" y2="369"/>
  </g>
  <g>
    <rect class="c7cba617-29a8-4646-8247-4514291cc265" x="166" y="410" width="261" height="359"/>
    <line class="c7cba617-29a8-4646-8247-4514291cc265" x1="427" y1="769" x2="166" y2="410"/>
    <line class="c7cba617-29a8-4646-8247-4514291cc265" x1="166" y1="769" x2="427" y2="410"/>
  </g>
  <g>
    <rect class="c7cba617-29a8-4646-8247-4514291cc265" x="166" y="466" width="261" height="359"/>
    <line class="c7cba617-29a8-4646-8247-4514291cc265" x1="427" y1="825" x2="166" y2="466"/>
    <line class="c7cba617-29a8-4646-8247-4514291cc265" x1="166" y1="825" x2="427" y2="466"/>
  </g>
  <text class="da899654-0ce7-44ac-a551-8d11462651e9" transform="translate(164 84.76)">Band name and sho<tspan class="9dc49bf1-5e46-4b5e-bd60-ee79846449ec" x="164.35" y="0">r</tspan><tspan x="171.34" y="0">t desc</tspan><tspan class="35f6b223-6d75-4507-9121-e5bf3460a313" x="220.17" y="0">r</tspan><tspan x="226.77" y="0">iption</tspan></text>
  <text class="05560808-7d4e-4e34-8d3a-617a462b7f66" transform="translate(258 504)">s<tspan class="a0e5ba84-06e2-4e53-95e6-096402055648" x="8.71" y="0">v</tspan><tspan x="19.07" y="0">g album</tspan></text>
  <text class="05560808-7d4e-4e34-8d3a-617a462b7f66" transform="translate(258 438)">s<tspan class="a0e5ba84-06e2-4e53-95e6-096402055648" x="8.71" y="0">v</tspan><tspan x="19.07" y="0">g album</tspan></text>
  <text class="05560808-7d4e-4e34-8d3a-617a462b7f66" transform="translate(258 392)">s<tspan class="a0e5ba84-06e2-4e53-95e6-096402055648" x="8.71" y="0">v</tspan><tspan x="19.07" y="0">g album</tspan></text>
  <text class="05560808-7d4e-4e34-8d3a-617a462b7f66" transform="translate(258 345)">s<tspan class="a0e5ba84-06e2-4e53-95e6-096402055648" x="8.71" y="0">v</tspan><tspan x="19.07" y="0">g album</tspan></text>
  <text class="05560808-7d4e-4e34-8d3a-617a462b7f66" transform="translate(258 297)">s<tspan class="a0e5ba84-06e2-4e53-95e6-096402055648" x="8.71" y="0">v</tspan><tspan x="19.07" y="0">g album</tspan></text>
  <text class="05560808-7d4e-4e34-8d3a-617a462b7f66" transform="translate(258 254)">s<tspan class="a0e5ba84-06e2-4e53-95e6-096402055648" x="8.71" y="0">v</tspan><tspan x="19.07" y="0">g album</tspan></text>
</svg>
